<svg xmlns="http://www.w3.org/2000/svg" viewBox="0 0 850 220" width="100%" height="100%" shape-rendering="crispEdges">
  <defs>
    <style>
      @keyframes targetScan {
        0% { transform: translateX(0px); opacity: 0; }
        15% { opacity: 0.8; }
        85% { opacity: 0.8; }
        100% { transform: translateX(750px); opacity: 0; }
      }
      @keyframes pulseLock {
        0%, 100% { opacity: 1; transform: scale(1); }
        50% { opacity: 0.4; transform: scale(0.96); }
      }
      .font-mono { font-family: 'JetBrains Mono', 'Fira Code', 'Courier New', monospace; }
      .laser-scan { animation: targetScan 4s ease-in-out infinite; }
      .reticle-pulse { transform-origin: 750px 105px; animation: pulseLock 2s infinite ease-in-out; }
    </style>
  </defs>

  <!-- 45° CHAMFERED CHASSIS -->
  <polygon points="20 4, 830 4, 846 20, 846 200, 830 216, 20 216, 4 200, 4 20"
           fill="rgba(10, 14, 23, 0.88)" stroke="rgba(50, 36, 16, 0.85)" stroke-width="2"/>
  <polygon points="24 10, 826 10, 840 24, 840 196, 826 210, 24 210, 10 196, 10 24"
           fill="none" stroke="#F59E0B" stroke-width="1.5" opacity="0.75"/>

  <!-- CORNER ACCENTS -->
  <polygon points="20 4, 35 4, 4 35, 4 20" fill="#F59E0B"/>
  <polygon points="830 4, 815 4, 846 35, 846 20" fill="#F59E0B"/>
  <polygon points="20 216, 35 216, 4 185, 4 200" fill="#F59E0B"/>
  <polygon points="830 216, 815 216, 846 185, 846 200" fill="#F59E0B"/>

  <!-- TOP BAR -->
  <text x="35" y="24" fill="#F59E0B" font-size="10" font-weight="bold" class="font-mono">▲ HTML5 &lt;picture&gt; CONTAINER</text>
  <text x="270" y="24" fill="#94A3B8" font-size="10" class="font-mono">MEDIA: (prefers-color-scheme: dark)</text>
  <text x="815" y="24" fill="#EA580C" font-size="10" font-weight="bold" text-anchor="end" class="font-mono">SYSTEM_THEME // DARK</text>

  <!-- 3D TITLE -->
  <g class="pixel-text-3d">
  <!-- Shadow Dark -->
  <rect x="48" y="58" width="25" height="5" fill="#451a03"/><rect x="48" y="63" width="10" height="5" fill="#451a03"/><rect x="68" y="63" width="10" height="5" fill="#451a03"/><rect x="48" y="68" width="10" height="5" fill="#451a03"/><rect x="68" y="68" width="10" height="5" fill="#451a03"/><rect x="48" y="73" width="25" height="5" fill="#451a03"/><rect x="48" y="78" width="25" height="5" fill="#451a03"/><rect x="48" y="83" width="10" height="5" fill="#451a03"/><rect x="48" y="88" width="10" height="5" fill="#451a03"/><rect x="48" y="93" width="10" height="5" fill="#451a03"/><rect x="48" y="98" width="10" height="5" fill="#451a03"/><rect x="88" y="58" width="30" height="5" fill="#451a03"/><rect x="98" y="63" width="10" height="5" fill="#451a03"/><rect x="98" y="68" width="10" height="5" fill="#451a03"/><rect x="98" y="73" width="10" height="5" fill="#451a03"/><rect x="98" y="78" width="10" height="5" fill="#451a03"/><rect x="98" y="83" width="10" height="5" fill="#451a03"/><rect x="98" y="88" width="10" height="5" fill="#451a03"/><rect x="98" y="93" width="10" height="5" fill="#451a03"/><rect x="88" y="98" width="30" height="5" fill="#451a03"/><rect x="133" y="58" width="25" height="5" fill="#451a03"/><rect x="128" y="63" width="10" height="5" fill="#451a03"/><rect x="153" y="63" width="5" height="5" fill="#451a03"/><rect x="128" y="68" width="10" height="5" fill="#451a03"/><rect x="128" y="73" width="10" height="5" fill="#451a03"/><rect x="128" y="78" width="10" height="5" fill="#451a03"/><rect x="128" y="83" width="10" height="5" fill="#451a03"/><rect x="128" y="88" width="10" height="5" fill="#451a03"/><rect x="128" y="93" width="10" height="5" fill="#451a03"/><rect x="153" y="93" width="5" height="5" fill="#451a03"/><rect x="133" y="98" width="25" height="5" fill="#451a03"/><rect x="168" y="58" width="35" height="5" fill="#451a03"/><rect x="168" y="63" width="35" height="5" fill="#451a03"/><rect x="183" y="68" width="10" height="5" fill="#451a03"/><rect x="183" y="73" width="10" height="5" fill="#451a03"/><rect x="183" y="78" width="10" height="5" fill="#451a03"/><rect x="183" y="83" width="10" height="5" fill="#451a03"/><rect x="183" y="88" width="10" height="5" fill="#451a03"/><rect x="183" y="93" width="10" height="5" fill="#451a03"/><rect x="183" y="98" width="10" height="5" fill="#451a03"/><rect x="213" y="58" width="10" height="5" fill="#451a03"/><rect x="233" y="58" width="10" height="5" fill="#451a03"/><rect x="213" y="63" width="10" height="5" fill="#451a03"/><rect x="233" y="63" width="10" height="5" fill="#451a03"/><rect x="213" y="68" width="10" height="5" fill="#451a03"/><rect x="233" y="68" width="10" height="5" fill="#451a03"/><rect x="213" y="73" width="10" height="5" fill="#451a03"/><rect x="233" y="73" width="10" height="5" fill="#451a03"/><rect x="213" y="78" width="10" height="5" fill="#451a03"/><rect x="233" y="78" width="10" height="5" fill="#451a03"/><rect x="213" y="83" width="10" height="5" fill="#451a03"/><rect x="233" y="83" width="10" height="5" fill="#451a03"/><rect x="213" y="88" width="10" height="5" fill="#451a03"/><rect x="233" y="88" width="10" height="5" fill="#451a03"/><rect x="213" y="93" width="10" height="5" fill="#451a03"/><rect x="233" y="93" width="10" height="5" fill="#451a03"/><rect x="218" y="98" width="20" height="5" fill="#451a03"/><rect x="253" y="58" width="25" height="5" fill="#451a03"/><rect x="253" y="63" width="10" height="5" fill="#451a03"/><rect x="273" y="63" width="10" height="5" fill="#451a03"/><rect x="253" y="68" width="10" height="5" fill="#451a03"/><rect x="273" y="68" width="10" height="5" fill="#451a03"/><rect x="253" y="73" width="25" height="5" fill="#451a03"/><rect x="253" y="78" width="25" height="5" fill="#451a03"/><rect x="253" y="83" width="10" height="5" fill="#451a03"/><rect x="268" y="83" width="10" height="5" fill="#451a03"/><rect x="253" y="88" width="10" height="5" fill="#451a03"/><rect x="273" y="88" width="10" height="5" fill="#451a03"/><rect x="253" y="93" width="10" height="5" fill="#451a03"/><rect x="273" y="93" width="10" height="5" fill="#451a03"/><rect x="253" y="98" width="10" height="5" fill="#451a03"/><rect x="278" y="98" width="5" height="5" fill="#451a03"/><rect x="293" y="58" width="30" height="5" fill="#451a03"/><rect x="293" y="63" width="10" height="5" fill="#451a03"/><rect x="293" y="68" width="10" height="5" fill="#451a03"/><rect x="293" y="73" width="25" height="5" fill="#451a03"/><rect x="293" y="78" width="25" height="5" fill="#451a03"/><rect x="293" y="83" width="10" height="5" fill="#451a03"/><rect x="293" y="88" width="10" height="5" fill="#451a03"/><rect x="293" y="93" width="10" height="5" fill="#451a03"/><rect x="293" y="98" width="30" height="5" fill="#451a03"/><rect x="393" y="58" width="10" height="5" fill="#451a03"/><rect x="388" y="63" width="10" height="5" fill="#451a03"/><rect x="388" y="68" width="10" height="5" fill="#451a03"/><rect x="383" y="73" width="10" height="5" fill="#451a03"/><rect x="383" y="78" width="10" height="5" fill="#451a03"/><rect x="378" y="83" width="10" height="5" fill="#451a03"/><rect x="378" y="88" width="10" height="5" fill="#451a03"/><rect x="373" y="93" width="10" height="5" fill="#451a03"/><rect x="373" y="98" width="10" height="5" fill="#451a03"/><rect x="433" y="58" width="10" height="5" fill="#451a03"/><rect x="428" y="63" width="10" height="5" fill="#451a03"/><rect x="428" y="68" width="10" height="5" fill="#451a03"/><rect x="423" y="73" width="10" height="5" fill="#451a03"/><rect x="423" y="78" width="10" height="5" fill="#451a03"/><rect x="418" y="83" width="10" height="5" fill="#451a03"/><rect x="418" y="88" width="10" height="5" fill="#451a03"/><rect x="413" y="93" width="10" height="5" fill="#451a03"/><rect x="413" y="98" width="10" height="5" fill="#451a03"/><rect x="493" y="58" width="25" height="5" fill="#451a03"/><rect x="493" y="63" width="10" height="5" fill="#451a03"/><rect x="513" y="63" width="10" height="5" fill="#451a03"/><rect x="493" y="68" width="10" height="5" fill="#451a03"/><rect x="513" y="68" width="10" height="5" fill="#451a03"/><rect x="493" y="73" width="10" height="5" fill="#451a03"/><rect x="513" y="73" width="10" height="5" fill="#451a03"/><rect x="493" y="78" width="10" height="5" fill="#451a03"/><rect x="513" y="78" width="10" height="5" fill="#451a03"/><rect x="493" y="83" width="10" height="5" fill="#451a03"/><rect x="513" y="83" width="10" height="5" fill="#451a03"/><rect x="493" y="88" width="10" height="5" fill="#451a03"/><rect x="513" y="88" width="10" height="5" fill="#451a03"/><rect x="493" y="93" width="10" height="5" fill="#451a03"/><rect x="513" y="93" width="10" height="5" fill="#451a03"/><rect x="493" y="98" width="25" height="5" fill="#451a03"/><rect x="538" y="58" width="20" height="5" fill="#451a03"/><rect x="533" y="63" width="10" height="5" fill="#451a03"/><rect x="553" y="63" width="10" height="5" fill="#451a03"/><rect x="533" y="68" width="10" height="5" fill="#451a03"/><rect x="553" y="68" width="10" height="5" fill="#451a03"/><rect x="533" y="73" width="30" height="5" fill="#451a03"/><rect x="533" y="78" width="30" height="5" fill="#451a03"/><rect x="533" y="83" width="10" height="5" fill="#451a03"/><rect x="553" y="83" width="10" height="5" fill="#451a03"/><rect x="533" y="88" width="10" height="5" fill="#451a03"/><rect x="553" y="88" width="10" height="5" fill="#451a03"/><rect x="533" y="93" width="10" height="5" fill="#451a03"/><rect x="553" y="93" width="10" height="5" fill="#451a03"/><rect x="533" y="98" width="10" height="5" fill="#451a03"/><rect x="553" y="98" width="10" height="5" fill="#451a03"/><rect x="573" y="58" width="25" height="5" fill="#451a03"/><rect x="573" y="63" width="10" height="5" fill="#451a03"/><rect x="593" y="63" width="10" height="5" fill="#451a03"/><rect x="573" y="68" width="10" height="5" fill="#451a03"/><rect x="593" y="68" width="10" height="5" fill="#451a03"/><rect x="573" y="73" width="25" height="5" fill="#451a03"/><rect x="573" y="78" width="25" height="5" fill="#451a03"/><rect x="573" y="83" width="10" height="5" fill="#451a03"/><rect x="588" y="83" width="10" height="5" fill="#451a03"/><rect x="573" y="88" width="10" height="5" fill="#451a03"/><rect x="593" y="88" width="10" height="5" fill="#451a03"/><rect x="573" y="93" width="10" height="5" fill="#451a03"/><rect x="593" y="93" width="10" height="5" fill="#451a03"/><rect x="573" y="98" width="10" height="5" fill="#451a03"/><rect x="598" y="98" width="5" height="5" fill="#451a03"/><rect x="613" y="58" width="10" height="5" fill="#451a03"/><rect x="638" y="58" width="5" height="5" fill="#451a03"/><rect x="613" y="63" width="10" height="5" fill="#451a03"/><rect x="633" y="63" width="10" height="5" fill="#451a03"/><rect x="613" y="68" width="10" height="5" fill="#451a03"/><rect x="628" y="68" width="10" height="5" fill="#451a03"/><rect x="613" y="73" width="20" height="5" fill="#451a03"/><rect x="613" y="78" width="20" height="5" fill="#451a03"/><rect x="613" y="83" width="10" height="5" fill="#451a03"/><rect x="628" y="83" width="10" height="5" fill="#451a03"/><rect x="613" y="88" width="10" height="5" fill="#451a03"/><rect x="633" y="88" width="10" height="5" fill="#451a03"/><rect x="613" y="93" width="10" height="5" fill="#451a03"/><rect x="638" y="93" width="5" height="5" fill="#451a03"/><rect x="613" y="98" width="10" height="5" fill="#451a03"/><rect x="638" y="98" width="5" height="5" fill="#451a03"/>
  <!-- Shadow Mid -->
  <rect x="45" y="55" width="25" height="5" fill="#92400e"/><rect x="45" y="60" width="10" height="5" fill="#92400e"/><rect x="65" y="60" width="10" height="5" fill="#92400e"/><rect x="45" y="65" width="10" height="5" fill="#92400e"/><rect x="65" y="65" width="10" height="5" fill="#92400e"/><rect x="45" y="70" width="25" height="5" fill="#92400e"/><rect x="45" y="75" width="25" height="5" fill="#92400e"/><rect x="45" y="80" width="10" height="5" fill="#92400e"/><rect x="45" y="85" width="10" height="5" fill="#92400e"/><rect x="45" y="90" width="10" height="5" fill="#92400e"/><rect x="45" y="95" width="10" height="5" fill="#92400e"/><rect x="85" y="55" width="30" height="5" fill="#92400e"/><rect x="95" y="60" width="10" height="5" fill="#92400e"/><rect x="95" y="65" width="10" height="5" fill="#92400e"/><rect x="95" y="70" width="10" height="5" fill="#92400e"/><rect x="95" y="75" width="10" height="5" fill="#92400e"/><rect x="95" y="80" width="10" height="5" fill="#92400e"/><rect x="95" y="85" width="10" height="5" fill="#92400e"/><rect x="95" y="90" width="10" height="5" fill="#92400e"/><rect x="85" y="95" width="30" height="5" fill="#92400e"/><rect x="130" y="55" width="25" height="5" fill="#92400e"/><rect x="125" y="60" width="10" height="5" fill="#92400e"/><rect x="150" y="60" width="5" height="5" fill="#92400e"/><rect x="125" y="65" width="10" height="5" fill="#92400e"/><rect x="125" y="70" width="10" height="5" fill="#92400e"/><rect x="125" y="75" width="10" height="5" fill="#92400e"/><rect x="125" y="80" width="10" height="5" fill="#92400e"/><rect x="125" y="85" width="10" height="5" fill="#92400e"/><rect x="125" y="90" width="10" height="5" fill="#92400e"/><rect x="150" y="90" width="5" height="5" fill="#92400e"/><rect x="130" y="95" width="25" height="5" fill="#92400e"/><rect x="165" y="55" width="35" height="5" fill="#92400e"/><rect x="165" y="60" width="35" height="5" fill="#92400e"/><rect x="180" y="65" width="10" height="5" fill="#92400e"/><rect x="180" y="70" width="10" height="5" fill="#92400e"/><rect x="180" y="75" width="10" height="5" fill="#92400e"/><rect x="180" y="80" width="10" height="5" fill="#92400e"/><rect x="180" y="85" width="10" height="5" fill="#92400e"/><rect x="180" y="90" width="10" height="5" fill="#92400e"/><rect x="180" y="95" width="10" height="5" fill="#92400e"/><rect x="210" y="55" width="10" height="5" fill="#92400e"/><rect x="230" y="55" width="10" height="5" fill="#92400e"/><rect x="210" y="60" width="10" height="5" fill="#92400e"/><rect x="230" y="60" width="10" height="5" fill="#92400e"/><rect x="210" y="65" width="10" height="5" fill="#92400e"/><rect x="230" y="65" width="10" height="5" fill="#92400e"/><rect x="210" y="70" width="10" height="5" fill="#92400e"/><rect x="230" y="70" width="10" height="5" fill="#92400e"/><rect x="210" y="75" width="10" height="5" fill="#92400e"/><rect x="230" y="75" width="10" height="5" fill="#92400e"/><rect x="210" y="80" width="10" height="5" fill="#92400e"/><rect x="230" y="80" width="10" height="5" fill="#92400e"/><rect x="210" y="85" width="10" height="5" fill="#92400e"/><rect x="230" y="85" width="10" height="5" fill="#92400e"/><rect x="210" y="90" width="10" height="5" fill="#92400e"/><rect x="230" y="90" width="10" height="5" fill="#92400e"/><rect x="215" y="95" width="20" height="5" fill="#92400e"/><rect x="250" y="55" width="25" height="5" fill="#92400e"/><rect x="250" y="60" width="10" height="5" fill="#92400e"/><rect x="270" y="60" width="10" height="5" fill="#92400e"/><rect x="250" y="65" width="10" height="5" fill="#92400e"/><rect x="270" y="65" width="10" height="5" fill="#92400e"/><rect x="250" y="70" width="25" height="5" fill="#92400e"/><rect x="250" y="75" width="25" height="5" fill="#92400e"/><rect x="250" y="80" width="10" height="5" fill="#92400e"/><rect x="265" y="80" width="10" height="5" fill="#92400e"/><rect x="250" y="85" width="10" height="5" fill="#92400e"/><rect x="270" y="85" width="10" height="5" fill="#92400e"/><rect x="250" y="90" width="10" height="5" fill="#92400e"/><rect x="270" y="90" width="10" height="5" fill="#92400e"/><rect x="250" y="95" width="10" height="5" fill="#92400e"/><rect x="275" y="95" width="5" height="5" fill="#92400e"/><rect x="290" y="55" width="30" height="5" fill="#92400e"/><rect x="290" y="60" width="10" height="5" fill="#92400e"/><rect x="290" y="65" width="10" height="5" fill="#92400e"/><rect x="290" y="70" width="25" height="5" fill="#92400e"/><rect x="290" y="75" width="25" height="5" fill="#92400e"/><rect x="290" y="80" width="10" height="5" fill="#92400e"/><rect x="290" y="85" width="10" height="5" fill="#92400e"/><rect x="290" y="90" width="10" height="5" fill="#92400e"/><rect x="290" y="95" width="30" height="5" fill="#92400e"/><rect x="390" y="55" width="10" height="5" fill="#92400e"/><rect x="385" y="60" width="10" height="5" fill="#92400e"/><rect x="385" y="65" width="10" height="5" fill="#92400e"/><rect x="380" y="70" width="10" height="5" fill="#92400e"/><rect x="380" y="75" width="10" height="5" fill="#92400e"/><rect x="375" y="80" width="10" height="5" fill="#92400e"/><rect x="375" y="85" width="10" height="5" fill="#92400e"/><rect x="370" y="90" width="10" height="5" fill="#92400e"/><rect x="370" y="95" width="10" height="5" fill="#92400e"/><rect x="430" y="55" width="10" height="5" fill="#92400e"/><rect x="425" y="60" width="10" height="5" fill="#92400e"/><rect x="425" y="65" width="10" height="5" fill="#92400e"/><rect x="420" y="70" width="10" height="5" fill="#92400e"/><rect x="420" y="75" width="10" height="5" fill="#92400e"/><rect x="415" y="80" width="10" height="5" fill="#92400e"/><rect x="415" y="85" width="10" height="5" fill="#92400e"/><rect x="410" y="90" width="10" height="5" fill="#92400e"/><rect x="410" y="95" width="10" height="5" fill="#92400e"/><rect x="490" y="55" width="25" height="5" fill="#92400e"/><rect x="490" y="60" width="10" height="5" fill="#92400e"/><rect x="510" y="60" width="10" height="5" fill="#92400e"/><rect x="490" y="65" width="10" height="5" fill="#92400e"/><rect x="510" y="65" width="10" height="5" fill="#92400e"/><rect x="490" y="70" width="10" height="5" fill="#92400e"/><rect x="510" y="70" width="10" height="5" fill="#92400e"/><rect x="490" y="75" width="10" height="5" fill="#92400e"/><rect x="510" y="75" width="10" height="5" fill="#92400e"/><rect x="490" y="80" width="10" height="5" fill="#92400e"/><rect x="510" y="80" width="10" height="5" fill="#92400e"/><rect x="490" y="85" width="10" height="5" fill="#92400e"/><rect x="510" y="85" width="10" height="5" fill="#92400e"/><rect x="490" y="90" width="10" height="5" fill="#92400e"/><rect x="510" y="90" width="10" height="5" fill="#92400e"/><rect x="490" y="95" width="25" height="5" fill="#92400e"/><rect x="535" y="55" width="20" height="5" fill="#92400e"/><rect x="530" y="60" width="10" height="5" fill="#92400e"/><rect x="550" y="60" width="10" height="5" fill="#92400e"/><rect x="530" y="65" width="10" height="5" fill="#92400e"/><rect x="550" y="65" width="10" height="5" fill="#92400e"/><rect x="530" y="70" width="30" height="5" fill="#92400e"/><rect x="530" y="75" width="30" height="5" fill="#92400e"/><rect x="530" y="80" width="10" height="5" fill="#92400e"/><rect x="550" y="80" width="10" height="5" fill="#92400e"/><rect x="530" y="85" width="10" height="5" fill="#92400e"/><rect x="550" y="85" width="10" height="5" fill="#92400e"/><rect x="530" y="90" width="10" height="5" fill="#92400e"/><rect x="550" y="90" width="10" height="5" fill="#92400e"/><rect x="530" y="95" width="10" height="5" fill="#92400e"/><rect x="550" y="95" width="10" height="5" fill="#92400e"/><rect x="570" y="55" width="25" height="5" fill="#92400e"/><rect x="570" y="60" width="10" height="5" fill="#92400e"/><rect x="590" y="60" width="10" height="5" fill="#92400e"/><rect x="570" y="65" width="10" height="5" fill="#92400e"/><rect x="590" y="65" width="10" height="5" fill="#92400e"/><rect x="570" y="70" width="25" height="5" fill="#92400e"/><rect x="570" y="75" width="25" height="5" fill="#92400e"/><rect x="570" y="80" width="10" height="5" fill="#92400e"/><rect x="585" y="80" width="10" height="5" fill="#92400e"/><rect x="570" y="85" width="10" height="5" fill="#92400e"/><rect x="590" y="85" width="10" height="5" fill="#92400e"/><rect x="570" y="90" width="10" height="5" fill="#92400e"/><rect x="590" y="90" width="10" height="5" fill="#92400e"/><rect x="570" y="95" width="10" height="5" fill="#92400e"/><rect x="595" y="95" width="5" height="5" fill="#92400e"/><rect x="610" y="55" width="10" height="5" fill="#92400e"/><rect x="635" y="55" width="5" height="5" fill="#92400e"/><rect x="610" y="60" width="10" height="5" fill="#92400e"/><rect x="630" y="60" width="10" height="5" fill="#92400e"/><rect x="610" y="65" width="10" height="5" fill="#92400e"/><rect x="625" y="65" width="10" height="5" fill="#92400e"/><rect x="610" y="70" width="20" height="5" fill="#92400e"/><rect x="610" y="75" width="20" height="5" fill="#92400e"/><rect x="610" y="80" width="10" height="5" fill="#92400e"/><rect x="625" y="80" width="10" height="5" fill="#92400e"/><rect x="610" y="85" width="10" height="5" fill="#92400e"/><rect x="630" y="85" width="10" height="5" fill="#92400e"/><rect x="610" y="90" width="10" height="5" fill="#92400e"/><rect x="635" y="90" width="5" height="5" fill="#92400e"/><rect x="610" y="95" width="10" height="5" fill="#92400e"/><rect x="635" y="95" width="5" height="5" fill="#92400e"/>
  <!-- Front Face -->
  <rect x="42" y="52" width="25" height="5" fill="#F59E0B"/><rect x="42" y="57" width="10" height="5" fill="#F59E0B"/><rect x="62" y="57" width="10" height="5" fill="#F59E0B"/><rect x="42" y="62" width="10" height="5" fill="#F59E0B"/><rect x="62" y="62" width="10" height="5" fill="#F59E0B"/><rect x="42" y="67" width="25" height="5" fill="#F59E0B"/><rect x="42" y="72" width="25" height="5" fill="#F59E0B"/><rect x="42" y="77" width="10" height="5" fill="#F59E0B"/><rect x="42" y="82" width="10" height="5" fill="#F59E0B"/><rect x="42" y="87" width="10" height="5" fill="#F59E0B"/><rect x="42" y="92" width="10" height="5" fill="#F59E0B"/><rect x="82" y="52" width="30" height="5" fill="#F59E0B"/><rect x="92" y="57" width="10" height="5" fill="#F59E0B"/><rect x="92" y="62" width="10" height="5" fill="#F59E0B"/><rect x="92" y="67" width="10" height="5" fill="#F59E0B"/><rect x="92" y="72" width="10" height="5" fill="#F59E0B"/><rect x="92" y="77" width="10" height="5" fill="#F59E0B"/><rect x="92" y="82" width="10" height="5" fill="#F59E0B"/><rect x="92" y="87" width="10" height="5" fill="#F59E0B"/><rect x="82" y="92" width="30" height="5" fill="#F59E0B"/><rect x="127" y="52" width="25" height="5" fill="#F59E0B"/><rect x="122" y="57" width="10" height="5" fill="#F59E0B"/><rect x="147" y="57" width="5" height="5" fill="#F59E0B"/><rect x="122" y="62" width="10" height="5" fill="#F59E0B"/><rect x="122" y="67" width="10" height="5" fill="#F59E0B"/><rect x="122" y="72" width="10" height="5" fill="#F59E0B"/><rect x="122" y="77" width="10" height="5" fill="#F59E0B"/><rect x="122" y="82" width="10" height="5" fill="#F59E0B"/><rect x="122" y="87" width="10" height="5" fill="#F59E0B"/><rect x="147" y="87" width="5" height="5" fill="#F59E0B"/><rect x="127" y="92" width="25" height="5" fill="#F59E0B"/><rect x="162" y="52" width="35" height="5" fill="#F59E0B"/><rect x="162" y="57" width="35" height="5" fill="#F59E0B"/><rect x="177" y="62" width="10" height="5" fill="#F59E0B"/><rect x="177" y="67" width="10" height="5" fill="#F59E0B"/><rect x="177" y="72" width="10" height="5" fill="#F59E0B"/><rect x="177" y="77" width="10" height="5" fill="#F59E0B"/><rect x="177" y="82" width="10" height="5" fill="#F59E0B"/><rect x="177" y="87" width="10" height="5" fill="#F59E0B"/><rect x="177" y="92" width="10" height="5" fill="#F59E0B"/><rect x="207" y="52" width="10" height="5" fill="#F59E0B"/><rect x="227" y="52" width="10" height="5" fill="#F59E0B"/><rect x="207" y="57" width="10" height="5" fill="#F59E0B"/><rect x="227" y="57" width="10" height="5" fill="#F59E0B"/><rect x="207" y="62" width="10" height="5" fill="#F59E0B"/><rect x="227" y="62" width="10" height="5" fill="#F59E0B"/><rect x="207" y="67" width="10" height="5" fill="#F59E0B"/><rect x="227" y="67" width="10" height="5" fill="#F59E0B"/><rect x="207" y="72" width="10" height="5" fill="#F59E0B"/><rect x="227" y="72" width="10" height="5" fill="#F59E0B"/><rect x="207" y="77" width="10" height="5" fill="#F59E0B"/><rect x="227" y="77" width="10" height="5" fill="#F59E0B"/><rect x="207" y="82" width="10" height="5" fill="#F59E0B"/><rect x="227" y="82" width="10" height="5" fill="#F59E0B"/><rect x="207" y="87" width="10" height="5" fill="#F59E0B"/><rect x="227" y="87" width="10" height="5" fill="#F59E0B"/><rect x="212" y="92" width="20" height="5" fill="#F59E0B"/><rect x="247" y="52" width="25" height="5" fill="#F59E0B"/><rect x="247" y="57" width="10" height="5" fill="#F59E0B"/><rect x="267" y="57" width="10" height="5" fill="#F59E0B"/><rect x="247" y="62" width="10" height="5" fill="#F59E0B"/><rect x="267" y="62" width="10" height="5" fill="#F59E0B"/><rect x="247" y="67" width="25" height="5" fill="#F59E0B"/><rect x="247" y="72" width="25" height="5" fill="#F59E0B"/><rect x="247" y="77" width="10" height="5" fill="#F59E0B"/><rect x="262" y="77" width="10" height="5" fill="#F59E0B"/><rect x="247" y="82" width="10" height="5" fill="#F59E0B"/><rect x="267" y="82" width="10" height="5" fill="#F59E0B"/><rect x="247" y="87" width="10" height="5" fill="#F59E0B"/><rect x="267" y="87" width="10" height="5" fill="#F59E0B"/><rect x="247" y="92" width="10" height="5" fill="#F59E0B"/><rect x="272" y="92" width="5" height="5" fill="#F59E0B"/><rect x="287" y="52" width="30" height="5" fill="#F59E0B"/><rect x="287" y="57" width="10" height="5" fill="#F59E0B"/><rect x="287" y="62" width="10" height="5" fill="#F59E0B"/><rect x="287" y="67" width="25" height="5" fill="#F59E0B"/><rect x="287" y="72" width="25" height="5" fill="#F59E0B"/><rect x="287" y="77" width="10" height="5" fill="#F59E0B"/><rect x="287" y="82" width="10" height="5" fill="#F59E0B"/><rect x="287" y="87" width="10" height="5" fill="#F59E0B"/><rect x="287" y="92" width="30" height="5" fill="#F59E0B"/><rect x="387" y="52" width="10" height="5" fill="#F59E0B"/><rect x="382" y="57" width="10" height="5" fill="#F59E0B"/><rect x="382" y="62" width="10" height="5" fill="#F59E0B"/><rect x="377" y="67" width="10" height="5" fill="#F59E0B"/><rect x="377" y="72" width="10" height="5" fill="#F59E0B"/><rect x="372" y="77" width="10" height="5" fill="#F59E0B"/><rect x="372" y="82" width="10" height="5" fill="#F59E0B"/><rect x="367" y="87" width="10" height="5" fill="#F59E0B"/><rect x="367" y="92" width="10" height="5" fill="#F59E0B"/><rect x="427" y="52" width="10" height="5" fill="#F59E0B"/><rect x="422" y="57" width="10" height="5" fill="#F59E0B"/><rect x="422" y="62" width="10" height="5" fill="#F59E0B"/><rect x="417" y="67" width="10" height="5" fill="#F59E0B"/><rect x="417" y="72" width="10" height="5" fill="#F59E0B"/><rect x="412" y="77" width="10" height="5" fill="#F59E0B"/><rect x="412" y="82" width="10" height="5" fill="#F59E0B"/><rect x="407" y="87" width="10" height="5" fill="#F59E0B"/><rect x="407" y="92" width="10" height="5" fill="#F59E0B"/><rect x="487" y="52" width="25" height="5" fill="#F59E0B"/><rect x="487" y="57" width="10" height="5" fill="#F59E0B"/><rect x="507" y="57" width="10" height="5" fill="#F59E0B"/><rect x="487" y="62" width="10" height="5" fill="#F59E0B"/><rect x="507" y="62" width="10" height="5" fill="#F59E0B"/><rect x="487" y="67" width="10" height="5" fill="#F59E0B"/><rect x="507" y="67" width="10" height="5" fill="#F59E0B"/><rect x="487" y="72" width="10" height="5" fill="#F59E0B"/><rect x="507" y="72" width="10" height="5" fill="#F59E0B"/><rect x="487" y="77" width="10" height="5" fill="#F59E0B"/><rect x="507" y="77" width="10" height="5" fill="#F59E0B"/><rect x="487" y="82" width="10" height="5" fill="#F59E0B"/><rect x="507" y="82" width="10" height="5" fill="#F59E0B"/><rect x="487" y="87" width="10" height="5" fill="#F59E0B"/><rect x="507" y="87" width="10" height="5" fill="#F59E0B"/><rect x="487" y="92" width="25" height="5" fill="#F59E0B"/><rect x="532" y="52" width="20" height="5" fill="#F59E0B"/><rect x="527" y="57" width="10" height="5" fill="#F59E0B"/><rect x="547" y="57" width="10" height="5" fill="#F59E0B"/><rect x="527" y="62" width="10" height="5" fill="#F59E0B"/><rect x="547" y="62" width="10" height="5" fill="#F59E0B"/><rect x="527" y="67" width="30" height="5" fill="#F59E0B"/><rect x="527" y="72" width="30" height="5" fill="#F59E0B"/><rect x="527" y="77" width="10" height="5" fill="#F59E0B"/><rect x="547" y="77" width="10" height="5" fill="#F59E0B"/><rect x="527" y="82" width="10" height="5" fill="#F59E0B"/><rect x="547" y="82" width="10" height="5" fill="#F59E0B"/><rect x="527" y="87" width="10" height="5" fill="#F59E0B"/><rect x="547" y="87" width="10" height="5" fill="#F59E0B"/><rect x="527" y="92" width="10" height="5" fill="#F59E0B"/><rect x="547" y="92" width="10" height="5" fill="#F59E0B"/><rect x="567" y="52" width="25" height="5" fill="#F59E0B"/><rect x="567" y="57" width="10" height="5" fill="#F59E0B"/><rect x="587" y="57" width="10" height="5" fill="#F59E0B"/><rect x="567" y="62" width="10" height="5" fill="#F59E0B"/><rect x="587" y="62" width="10" height="5" fill="#F59E0B"/><rect x="567" y="67" width="25" height="5" fill="#F59E0B"/><rect x="567" y="72" width="25" height="5" fill="#F59E0B"/><rect x="567" y="77" width="10" height="5" fill="#F59E0B"/><rect x="582" y="77" width="10" height="5" fill="#F59E0B"/><rect x="567" y="82" width="10" height="5" fill="#F59E0B"/><rect x="587" y="82" width="10" height="5" fill="#F59E0B"/><rect x="567" y="87" width="10" height="5" fill="#F59E0B"/><rect x="587" y="87" width="10" height="5" fill="#F59E0B"/><rect x="567" y="92" width="10" height="5" fill="#F59E0B"/><rect x="592" y="92" width="5" height="5" fill="#F59E0B"/><rect x="607" y="52" width="10" height="5" fill="#F59E0B"/><rect x="632" y="52" width="5" height="5" fill="#F59E0B"/><rect x="607" y="57" width="10" height="5" fill="#F59E0B"/><rect x="627" y="57" width="10" height="5" fill="#F59E0B"/><rect x="607" y="62" width="10" height="5" fill="#F59E0B"/><rect x="622" y="62" width="10" height="5" fill="#F59E0B"/><rect x="607" y="67" width="20" height="5" fill="#F59E0B"/><rect x="607" y="72" width="20" height="5" fill="#F59E0B"/><rect x="607" y="77" width="10" height="5" fill="#F59E0B"/><rect x="622" y="77" width="10" height="5" fill="#F59E0B"/><rect x="607" y="82" width="10" height="5" fill="#F59E0B"/><rect x="627" y="82" width="10" height="5" fill="#F59E0B"/><rect x="607" y="87" width="10" height="5" fill="#F59E0B"/><rect x="632" y="87" width="5" height="5" fill="#F59E0B"/><rect x="607" y="92" width="10" height="5" fill="#F59E0B"/><rect x="632" y="92" width="5" height="5" fill="#F59E0B"/>
</g>

  <!-- SUBTITLE -->
  <text x="42" y="115" fill="#F8F8F2" font-size="12" font-weight="bold" class="font-mono">
    ⚡ ADAPTIVE VIA HTML5 &lt;picture&gt; (DARK SCHEME ACTIVE)
  </text>

  <!-- TELEMETRY -->
  <text x="42" y="148" fill="#F59E0B" font-size="11" class="font-mono">&gt; SOURCE: <tspan fill="#F8F8F2">&lt;source media="(prefers-color-scheme: dark)" ...&gt;</tspan></text>
  <text x="42" y="168" fill="#F59E0B" font-size="11" class="font-mono">&gt; PALETTE: <tspan fill="#EA580C">TACTICAL AMBER // DARK GLASS</tspan></text>
  <text x="42" y="188" fill="#F59E0B" font-size="11" class="font-mono">&gt; ENGINE: <tspan fill="#00D26A">Client Browser System Theme Switcher</tspan></text>

  <!-- RETICLE HUD -->
  <g class="reticle-pulse">
    <circle cx="750" cy="105" r="42" fill="none" stroke="#F59E0B" stroke-width="1.5" stroke-dasharray="8,4" opacity="0.75"/>
    <circle cx="750" cy="105" r="22" fill="none" stroke="#EA580C" stroke-width="1.5" opacity="0.6"/>
    <circle cx="750" cy="105" r="4" fill="#F59E0B"/>
    <line x1="750" y1="52" x2="750" y2="158" stroke="#F59E0B" stroke-width="1" stroke-dasharray="2,2" opacity="0.5"/>
    <line x1="698" y1="105" x2="802" y2="105" stroke="#F59E0B" stroke-width="1" stroke-dasharray="2,2" opacity="0.5"/>
  </g>
</svg>