<svg xmlns="http://www.w3.org/2000/svg" viewBox="0 0 850 247" width="100%" height="100%" shape-rendering="crispEdges">
  <defs>
    <style>
      
      :root {
        --bg-glass: rgba(15, 18, 30, 0.85);
        --bg-panel: rgba(22, 27, 46, 0.80);
        --border-chassis: rgba(41, 46, 66, 0.85);
        --primary: #4F8BFF;
        --accent: #A855F7;
        --tertiary: #06B6D4;
        --title-front: #4F8BFF;
        --title-mid: #2563EB;
        --title-dark: #1E3A8A;
        --text-main: #F1F5F9;
        --text-dim: #94A3B8;
        --status: #10B981;
        --warning: #F59E0B;
        --grid-op: 0.08;
      }
      @media (prefers-color-scheme: dark) {
        :root {
          --bg-glass: rgba(15, 18, 30, 0.85);
          --bg-panel: rgba(22, 27, 46, 0.80);
          --border-chassis: rgba(41, 46, 66, 0.85);
          --primary: #4F8BFF;
          --accent: #A855F7;
          --tertiary: #06B6D4;
          --title-front: #4F8BFF;
          --title-mid: #2563EB;
          --title-dark: #1E3A8A;
          --text-main: #F1F5F9;
          --text-dim: #94A3B8;
          --status: #10B981;
          --warning: #F59E0B;
          --grid-op: 0.08;
        }
      }
      @media (prefers-color-scheme: light) {
        :root {
          --bg-glass: #F8FAFC;
          --bg-panel: #F1F5F9;
          --border-chassis: #E2E8F0;
          --primary: #1D4ED8;
          --accent: #6D28D9;
          --tertiary: #0891B2;
          --title-front: #1D4ED8;
          --title-mid: #1E40AF;
          --title-dark: #0F172A;
          --text-main: #0F172A;
          --text-dim: #64748B;
          --status: #16A34A;
          --warning: #D97706;
          --grid-op: 0.10;
        }
      }
      @media (hover: hover) {
        .btn-hover:hover, a:hover polygon, a:hover rect {
          filter: drop-shadow(0 0 6px var(--primary, #4F8BFF));
          cursor: pointer;
          transition: filter 0.2s ease;
        }
      }

      @keyframes eqBar1 { 0%, 100% { height: 12px; y: 28px; } 50% { height: 32px; y: 8px; } }
      @keyframes eqBar2 { 0%, 100% { height: 28px; y: 12px; } 50% { height: 10px; y: 30px; } }
      @keyframes eqBar3 { 0%, 100% { height: 18px; y: 22px; } 50% { height: 36px; y: 4px; } }
      @keyframes eqBar4 { 0%, 100% { height: 34px; y: 6px; } 50% { height: 14px; y: 26px; } }
      @keyframes eqBar5 { 0%, 100% { height: 22px; y: 18px; } 50% { height: 8px; y: 32px; } }
      @keyframes neonBreath { 0%, 100% { opacity: 0.9; } 50% { opacity: 0.45; } }
      .font-mono { font-family: 'JetBrains Mono', 'Fira Code', 'Courier New', monospace; }
      .eq1 { animation: eqBar1 1.2s infinite ease-in-out; }
      .eq2 { animation: eqBar2 0.9s infinite ease-in-out; }
      .eq3 { animation: eqBar3 1.4s infinite ease-in-out; }
      .eq4 { animation: eqBar4 1.1s infinite ease-in-out; }
      .eq5 { animation: eqBar5 1.5s infinite ease-in-out; }
      .breath { animation: neonBreath 3s infinite ease-in-out; }
    </style>
  </defs>

  <!-- BACKGROUND GLASS -->
  <rect x="4" y="4" width="842" height="239" fill="var(--bg-glass)" stroke="var(--border-chassis)" stroke-width="2"/>
  <rect x="8" y="8" width="834" height="231" fill="none" stroke="var(--primary)" stroke-width="1.5" class="breath"/>

  <!-- CORNER PIXEL ACCENTS -->
  <rect x="4" y="4" width="8" height="3" fill="var(--primary)"/>
  <rect x="4" y="4" width="3" height="8" fill="var(--primary)"/>
  <rect x="838" y="4" width="8" height="3" fill="var(--primary)"/>
  <rect x="843" y="4" width="3" height="8" fill="var(--primary)"/>
  <rect x="4" y="240" width="8" height="3" fill="var(--primary)"/>
  <rect x="4" y="235" width="3" height="8" fill="var(--primary)"/>
  <rect x="838" y="240" width="8" height="3" fill="var(--primary)"/>
  <rect x="843" y="235" width="3" height="8" fill="var(--primary)"/>

  <!-- 3D PIXEL TITLE -->
  <g class="pixel-text-3d">
  <!-- Shadow Dark -->
  <rect x="46" y="40" width="20" height="4" fill="var(--title-dark)"/><rect x="46" y="44" width="8" height="4" fill="var(--title-dark)"/><rect x="62" y="44" width="8" height="4" fill="var(--title-dark)"/><rect x="46" y="48" width="8" height="4" fill="var(--title-dark)"/><rect x="62" y="48" width="8" height="4" fill="var(--title-dark)"/><rect x="46" y="52" width="20" height="4" fill="var(--title-dark)"/><rect x="46" y="56" width="20" height="4" fill="var(--title-dark)"/><rect x="46" y="60" width="8" height="4" fill="var(--title-dark)"/><rect x="58" y="60" width="8" height="4" fill="var(--title-dark)"/><rect x="46" y="64" width="8" height="4" fill="var(--title-dark)"/><rect x="62" y="64" width="8" height="4" fill="var(--title-dark)"/><rect x="46" y="68" width="8" height="4" fill="var(--title-dark)"/><rect x="62" y="68" width="8" height="4" fill="var(--title-dark)"/><rect x="46" y="72" width="8" height="4" fill="var(--title-dark)"/><rect x="66" y="72" width="4" height="4" fill="var(--title-dark)"/><rect x="78" y="40" width="24" height="4" fill="var(--title-dark)"/><rect x="78" y="44" width="8" height="4" fill="var(--title-dark)"/><rect x="78" y="48" width="8" height="4" fill="var(--title-dark)"/><rect x="78" y="52" width="20" height="4" fill="var(--title-dark)"/><rect x="78" y="56" width="20" height="4" fill="var(--title-dark)"/><rect x="78" y="60" width="8" height="4" fill="var(--title-dark)"/><rect x="78" y="64" width="8" height="4" fill="var(--title-dark)"/><rect x="78" y="68" width="8" height="4" fill="var(--title-dark)"/><rect x="78" y="72" width="24" height="4" fill="var(--title-dark)"/><rect x="114" y="40" width="16" height="4" fill="var(--title-dark)"/><rect x="110" y="44" width="8" height="4" fill="var(--title-dark)"/><rect x="126" y="44" width="8" height="4" fill="var(--title-dark)"/><rect x="110" y="48" width="8" height="4" fill="var(--title-dark)"/><rect x="126" y="48" width="8" height="4" fill="var(--title-dark)"/><rect x="110" y="52" width="24" height="4" fill="var(--title-dark)"/><rect x="110" y="56" width="24" height="4" fill="var(--title-dark)"/><rect x="110" y="60" width="8" height="4" fill="var(--title-dark)"/><rect x="126" y="60" width="8" height="4" fill="var(--title-dark)"/><rect x="110" y="64" width="8" height="4" fill="var(--title-dark)"/><rect x="126" y="64" width="8" height="4" fill="var(--title-dark)"/><rect x="110" y="68" width="8" height="4" fill="var(--title-dark)"/><rect x="126" y="68" width="8" height="4" fill="var(--title-dark)"/><rect x="110" y="72" width="8" height="4" fill="var(--title-dark)"/><rect x="126" y="72" width="8" height="4" fill="var(--title-dark)"/><rect x="142" y="40" width="20" height="4" fill="var(--title-dark)"/><rect x="142" y="44" width="8" height="4" fill="var(--title-dark)"/><rect x="158" y="44" width="8" height="4" fill="var(--title-dark)"/><rect x="142" y="48" width="8" height="4" fill="var(--title-dark)"/><rect x="158" y="48" width="8" height="4" fill="var(--title-dark)"/><rect x="142" y="52" width="8" height="4" fill="var(--title-dark)"/><rect x="158" y="52" width="8" height="4" fill="var(--title-dark)"/><rect x="142" y="56" width="8" height="4" fill="var(--title-dark)"/><rect x="158" y="56" width="8" height="4" fill="var(--title-dark)"/><rect x="142" y="60" width="8" height="4" fill="var(--title-dark)"/><rect x="158" y="60" width="8" height="4" fill="var(--title-dark)"/><rect x="142" y="64" width="8" height="4" fill="var(--title-dark)"/><rect x="158" y="64" width="8" height="4" fill="var(--title-dark)"/><rect x="142" y="68" width="8" height="4" fill="var(--title-dark)"/><rect x="158" y="68" width="8" height="4" fill="var(--title-dark)"/><rect x="142" y="72" width="20" height="4" fill="var(--title-dark)"/><rect x="174" y="40" width="8" height="4" fill="var(--title-dark)"/><rect x="194" y="40" width="8" height="4" fill="var(--title-dark)"/><rect x="174" y="44" width="12" height="4" fill="var(--title-dark)"/><rect x="190" y="44" width="12" height="4" fill="var(--title-dark)"/><rect x="174" y="48" width="28" height="4" fill="var(--title-dark)"/><rect x="174" y="52" width="8" height="4" fill="var(--title-dark)"/><rect x="186" y="52" width="4" height="4" fill="var(--title-dark)"/><rect x="194" y="52" width="8" height="4" fill="var(--title-dark)"/><rect x="174" y="56" width="8" height="4" fill="var(--title-dark)"/><rect x="194" y="56" width="8" height="4" fill="var(--title-dark)"/><rect x="174" y="60" width="8" height="4" fill="var(--title-dark)"/><rect x="194" y="60" width="8" height="4" fill="var(--title-dark)"/><rect x="174" y="64" width="8" height="4" fill="var(--title-dark)"/><rect x="194" y="64" width="8" height="4" fill="var(--title-dark)"/><rect x="174" y="68" width="8" height="4" fill="var(--title-dark)"/><rect x="194" y="68" width="8" height="4" fill="var(--title-dark)"/><rect x="174" y="72" width="8" height="4" fill="var(--title-dark)"/><rect x="194" y="72" width="8" height="4" fill="var(--title-dark)"/><rect x="210" y="40" width="24" height="4" fill="var(--title-dark)"/><rect x="210" y="44" width="8" height="4" fill="var(--title-dark)"/><rect x="210" y="48" width="8" height="4" fill="var(--title-dark)"/><rect x="210" y="52" width="20" height="4" fill="var(--title-dark)"/><rect x="210" y="56" width="20" height="4" fill="var(--title-dark)"/><rect x="210" y="60" width="8" height="4" fill="var(--title-dark)"/><rect x="210" y="64" width="8" height="4" fill="var(--title-dark)"/><rect x="210" y="68" width="8" height="4" fill="var(--title-dark)"/><rect x="210" y="72" width="24" height="4" fill="var(--title-dark)"/><rect x="242" y="40" width="8" height="4" fill="var(--title-dark)"/><rect x="262" y="40" width="4" height="4" fill="var(--title-dark)"/><rect x="242" y="44" width="8" height="4" fill="var(--title-dark)"/><rect x="258" y="44" width="8" height="4" fill="var(--title-dark)"/><rect x="242" y="48" width="8" height="4" fill="var(--title-dark)"/><rect x="254" y="48" width="8" height="4" fill="var(--title-dark)"/><rect x="242" y="52" width="16" height="4" fill="var(--title-dark)"/><rect x="242" y="56" width="16" height="4" fill="var(--title-dark)"/><rect x="242" y="60" width="8" height="4" fill="var(--title-dark)"/><rect x="254" y="60" width="8" height="4" fill="var(--title-dark)"/><rect x="242" y="64" width="8" height="4" fill="var(--title-dark)"/><rect x="258" y="64" width="8" height="4" fill="var(--title-dark)"/><rect x="242" y="68" width="8" height="4" fill="var(--title-dark)"/><rect x="262" y="68" width="4" height="4" fill="var(--title-dark)"/><rect x="242" y="72" width="8" height="4" fill="var(--title-dark)"/><rect x="262" y="72" width="4" height="4" fill="var(--title-dark)"/><rect x="274" y="40" width="24" height="4" fill="var(--title-dark)"/><rect x="282" y="44" width="8" height="4" fill="var(--title-dark)"/><rect x="282" y="48" width="8" height="4" fill="var(--title-dark)"/><rect x="282" y="52" width="8" height="4" fill="var(--title-dark)"/><rect x="282" y="56" width="8" height="4" fill="var(--title-dark)"/><rect x="282" y="60" width="8" height="4" fill="var(--title-dark)"/><rect x="282" y="64" width="8" height="4" fill="var(--title-dark)"/><rect x="282" y="68" width="8" height="4" fill="var(--title-dark)"/><rect x="274" y="72" width="24" height="4" fill="var(--title-dark)"/><rect x="306" y="40" width="28" height="4" fill="var(--title-dark)"/><rect x="306" y="44" width="28" height="4" fill="var(--title-dark)"/><rect x="318" y="48" width="8" height="4" fill="var(--title-dark)"/><rect x="318" y="52" width="8" height="4" fill="var(--title-dark)"/><rect x="318" y="56" width="8" height="4" fill="var(--title-dark)"/><rect x="318" y="60" width="8" height="4" fill="var(--title-dark)"/><rect x="318" y="64" width="8" height="4" fill="var(--title-dark)"/><rect x="318" y="68" width="8" height="4" fill="var(--title-dark)"/><rect x="318" y="72" width="8" height="4" fill="var(--title-dark)"/><rect x="62" y="85" width="8" height="4" fill="var(--title-dark)"/><rect x="58" y="89" width="8" height="4" fill="var(--title-dark)"/><rect x="58" y="93" width="8" height="4" fill="var(--title-dark)"/><rect x="54" y="97" width="8" height="4" fill="var(--title-dark)"/><rect x="54" y="101" width="8" height="4" fill="var(--title-dark)"/><rect x="50" y="105" width="8" height="4" fill="var(--title-dark)"/><rect x="50" y="109" width="8" height="4" fill="var(--title-dark)"/><rect x="46" y="113" width="8" height="4" fill="var(--title-dark)"/><rect x="46" y="117" width="8" height="4" fill="var(--title-dark)"/><rect x="94" y="85" width="8" height="4" fill="var(--title-dark)"/><rect x="90" y="89" width="8" height="4" fill="var(--title-dark)"/><rect x="90" y="93" width="8" height="4" fill="var(--title-dark)"/><rect x="86" y="97" width="8" height="4" fill="var(--title-dark)"/><rect x="86" y="101" width="8" height="4" fill="var(--title-dark)"/><rect x="82" y="105" width="8" height="4" fill="var(--title-dark)"/><rect x="82" y="109" width="8" height="4" fill="var(--title-dark)"/><rect x="78" y="113" width="8" height="4" fill="var(--title-dark)"/><rect x="78" y="117" width="8" height="4" fill="var(--title-dark)"/><rect x="146" y="85" width="20" height="4" fill="var(--title-dark)"/><rect x="142" y="89" width="8" height="4" fill="var(--title-dark)"/><rect x="162" y="89" width="4" height="4" fill="var(--title-dark)"/><rect x="142" y="93" width="8" height="4" fill="var(--title-dark)"/><rect x="146" y="97" width="16" height="4" fill="var(--title-dark)"/><rect x="146" y="101" width="16" height="4" fill="var(--title-dark)"/><rect x="158" y="105" width="8" height="4" fill="var(--title-dark)"/><rect x="142" y="109" width="4" height="4" fill="var(--title-dark)"/><rect x="158" y="109" width="8" height="4" fill="var(--title-dark)"/><rect x="142" y="113" width="8" height="4" fill="var(--title-dark)"/><rect x="158" y="113" width="8" height="4" fill="var(--title-dark)"/><rect x="146" y="117" width="16" height="4" fill="var(--title-dark)"/><rect x="174" y="85" width="28" height="4" fill="var(--title-dark)"/><rect x="174" y="89" width="28" height="4" fill="var(--title-dark)"/><rect x="186" y="93" width="8" height="4" fill="var(--title-dark)"/><rect x="186" y="97" width="8" height="4" fill="var(--title-dark)"/><rect x="186" y="101" width="8" height="4" fill="var(--title-dark)"/><rect x="186" y="105" width="8" height="4" fill="var(--title-dark)"/><rect x="186" y="109" width="8" height="4" fill="var(--title-dark)"/><rect x="186" y="113" width="8" height="4" fill="var(--title-dark)"/><rect x="186" y="117" width="8" height="4" fill="var(--title-dark)"/><rect x="210" y="85" width="8" height="4" fill="var(--title-dark)"/><rect x="226" y="85" width="8" height="4" fill="var(--title-dark)"/><rect x="210" y="89" width="8" height="4" fill="var(--title-dark)"/><rect x="226" y="89" width="8" height="4" fill="var(--title-dark)"/><rect x="210" y="93" width="8" height="4" fill="var(--title-dark)"/><rect x="226" y="93" width="8" height="4" fill="var(--title-dark)"/><rect x="210" y="97" width="8" height="4" fill="var(--title-dark)"/><rect x="226" y="97" width="8" height="4" fill="var(--title-dark)"/><rect x="210" y="101" width="8" height="4" fill="var(--title-dark)"/><rect x="226" y="101" width="8" height="4" fill="var(--title-dark)"/><rect x="210" y="105" width="8" height="4" fill="var(--title-dark)"/><rect x="226" y="105" width="8" height="4" fill="var(--title-dark)"/><rect x="210" y="109" width="8" height="4" fill="var(--title-dark)"/><rect x="226" y="109" width="8" height="4" fill="var(--title-dark)"/><rect x="210" y="113" width="8" height="4" fill="var(--title-dark)"/><rect x="226" y="113" width="8" height="4" fill="var(--title-dark)"/><rect x="214" y="117" width="16" height="4" fill="var(--title-dark)"/><rect x="242" y="85" width="20" height="4" fill="var(--title-dark)"/><rect x="242" y="89" width="8" height="4" fill="var(--title-dark)"/><rect x="258" y="89" width="8" height="4" fill="var(--title-dark)"/><rect x="242" y="93" width="8" height="4" fill="var(--title-dark)"/><rect x="258" y="93" width="8" height="4" fill="var(--title-dark)"/><rect x="242" y="97" width="8" height="4" fill="var(--title-dark)"/><rect x="258" y="97" width="8" height="4" fill="var(--title-dark)"/><rect x="242" y="101" width="8" height="4" fill="var(--title-dark)"/><rect x="258" y="101" width="8" height="4" fill="var(--title-dark)"/><rect x="242" y="105" width="8" height="4" fill="var(--title-dark)"/><rect x="258" y="105" width="8" height="4" fill="var(--title-dark)"/><rect x="242" y="109" width="8" height="4" fill="var(--title-dark)"/><rect x="258" y="109" width="8" height="4" fill="var(--title-dark)"/><rect x="242" y="113" width="8" height="4" fill="var(--title-dark)"/><rect x="258" y="113" width="8" height="4" fill="var(--title-dark)"/><rect x="242" y="117" width="20" height="4" fill="var(--title-dark)"/><rect x="274" y="85" width="24" height="4" fill="var(--title-dark)"/><rect x="282" y="89" width="8" height="4" fill="var(--title-dark)"/><rect x="282" y="93" width="8" height="4" fill="var(--title-dark)"/><rect x="282" y="97" width="8" height="4" fill="var(--title-dark)"/><rect x="282" y="101" width="8" height="4" fill="var(--title-dark)"/><rect x="282" y="105" width="8" height="4" fill="var(--title-dark)"/><rect x="282" y="109" width="8" height="4" fill="var(--title-dark)"/><rect x="282" y="113" width="8" height="4" fill="var(--title-dark)"/><rect x="274" y="117" width="24" height="4" fill="var(--title-dark)"/><rect x="310" y="85" width="16" height="4" fill="var(--title-dark)"/><rect x="306" y="89" width="8" height="4" fill="var(--title-dark)"/><rect x="322" y="89" width="8" height="4" fill="var(--title-dark)"/><rect x="306" y="93" width="8" height="4" fill="var(--title-dark)"/><rect x="322" y="93" width="8" height="4" fill="var(--title-dark)"/><rect x="306" y="97" width="8" height="4" fill="var(--title-dark)"/><rect x="322" y="97" width="8" height="4" fill="var(--title-dark)"/><rect x="306" y="101" width="8" height="4" fill="var(--title-dark)"/><rect x="322" y="101" width="8" height="4" fill="var(--title-dark)"/><rect x="306" y="105" width="8" height="4" fill="var(--title-dark)"/><rect x="322" y="105" width="8" height="4" fill="var(--title-dark)"/><rect x="306" y="109" width="8" height="4" fill="var(--title-dark)"/><rect x="322" y="109" width="8" height="4" fill="var(--title-dark)"/><rect x="306" y="113" width="8" height="4" fill="var(--title-dark)"/><rect x="322" y="113" width="8" height="4" fill="var(--title-dark)"/><rect x="310" y="117" width="16" height="4" fill="var(--title-dark)"/>
  <!-- Shadow Mid -->
  <rect x="44" y="38" width="20" height="4" fill="var(--title-mid)"/><rect x="44" y="42" width="8" height="4" fill="var(--title-mid)"/><rect x="60" y="42" width="8" height="4" fill="var(--title-mid)"/><rect x="44" y="46" width="8" height="4" fill="var(--title-mid)"/><rect x="60" y="46" width="8" height="4" fill="var(--title-mid)"/><rect x="44" y="50" width="20" height="4" fill="var(--title-mid)"/><rect x="44" y="54" width="20" height="4" fill="var(--title-mid)"/><rect x="44" y="58" width="8" height="4" fill="var(--title-mid)"/><rect x="56" y="58" width="8" height="4" fill="var(--title-mid)"/><rect x="44" y="62" width="8" height="4" fill="var(--title-mid)"/><rect x="60" y="62" width="8" height="4" fill="var(--title-mid)"/><rect x="44" y="66" width="8" height="4" fill="var(--title-mid)"/><rect x="60" y="66" width="8" height="4" fill="var(--title-mid)"/><rect x="44" y="70" width="8" height="4" fill="var(--title-mid)"/><rect x="64" y="70" width="4" height="4" fill="var(--title-mid)"/><rect x="76" y="38" width="24" height="4" fill="var(--title-mid)"/><rect x="76" y="42" width="8" height="4" fill="var(--title-mid)"/><rect x="76" y="46" width="8" height="4" fill="var(--title-mid)"/><rect x="76" y="50" width="20" height="4" fill="var(--title-mid)"/><rect x="76" y="54" width="20" height="4" fill="var(--title-mid)"/><rect x="76" y="58" width="8" height="4" fill="var(--title-mid)"/><rect x="76" y="62" width="8" height="4" fill="var(--title-mid)"/><rect x="76" y="66" width="8" height="4" fill="var(--title-mid)"/><rect x="76" y="70" width="24" height="4" fill="var(--title-mid)"/><rect x="112" y="38" width="16" height="4" fill="var(--title-mid)"/><rect x="108" y="42" width="8" height="4" fill="var(--title-mid)"/><rect x="124" y="42" width="8" height="4" fill="var(--title-mid)"/><rect x="108" y="46" width="8" height="4" fill="var(--title-mid)"/><rect x="124" y="46" width="8" height="4" fill="var(--title-mid)"/><rect x="108" y="50" width="24" height="4" fill="var(--title-mid)"/><rect x="108" y="54" width="24" height="4" fill="var(--title-mid)"/><rect x="108" y="58" width="8" height="4" fill="var(--title-mid)"/><rect x="124" y="58" width="8" height="4" fill="var(--title-mid)"/><rect x="108" y="62" width="8" height="4" fill="var(--title-mid)"/><rect x="124" y="62" width="8" height="4" fill="var(--title-mid)"/><rect x="108" y="66" width="8" height="4" fill="var(--title-mid)"/><rect x="124" y="66" width="8" height="4" fill="var(--title-mid)"/><rect x="108" y="70" width="8" height="4" fill="var(--title-mid)"/><rect x="124" y="70" width="8" height="4" fill="var(--title-mid)"/><rect x="140" y="38" width="20" height="4" fill="var(--title-mid)"/><rect x="140" y="42" width="8" height="4" fill="var(--title-mid)"/><rect x="156" y="42" width="8" height="4" fill="var(--title-mid)"/><rect x="140" y="46" width="8" height="4" fill="var(--title-mid)"/><rect x="156" y="46" width="8" height="4" fill="var(--title-mid)"/><rect x="140" y="50" width="8" height="4" fill="var(--title-mid)"/><rect x="156" y="50" width="8" height="4" fill="var(--title-mid)"/><rect x="140" y="54" width="8" height="4" fill="var(--title-mid)"/><rect x="156" y="54" width="8" height="4" fill="var(--title-mid)"/><rect x="140" y="58" width="8" height="4" fill="var(--title-mid)"/><rect x="156" y="58" width="8" height="4" fill="var(--title-mid)"/><rect x="140" y="62" width="8" height="4" fill="var(--title-mid)"/><rect x="156" y="62" width="8" height="4" fill="var(--title-mid)"/><rect x="140" y="66" width="8" height="4" fill="var(--title-mid)"/><rect x="156" y="66" width="8" height="4" fill="var(--title-mid)"/><rect x="140" y="70" width="20" height="4" fill="var(--title-mid)"/><rect x="172" y="38" width="8" height="4" fill="var(--title-mid)"/><rect x="192" y="38" width="8" height="4" fill="var(--title-mid)"/><rect x="172" y="42" width="12" height="4" fill="var(--title-mid)"/><rect x="188" y="42" width="12" height="4" fill="var(--title-mid)"/><rect x="172" y="46" width="28" height="4" fill="var(--title-mid)"/><rect x="172" y="50" width="8" height="4" fill="var(--title-mid)"/><rect x="184" y="50" width="4" height="4" fill="var(--title-mid)"/><rect x="192" y="50" width="8" height="4" fill="var(--title-mid)"/><rect x="172" y="54" width="8" height="4" fill="var(--title-mid)"/><rect x="192" y="54" width="8" height="4" fill="var(--title-mid)"/><rect x="172" y="58" width="8" height="4" fill="var(--title-mid)"/><rect x="192" y="58" width="8" height="4" fill="var(--title-mid)"/><rect x="172" y="62" width="8" height="4" fill="var(--title-mid)"/><rect x="192" y="62" width="8" height="4" fill="var(--title-mid)"/><rect x="172" y="66" width="8" height="4" fill="var(--title-mid)"/><rect x="192" y="66" width="8" height="4" fill="var(--title-mid)"/><rect x="172" y="70" width="8" height="4" fill="var(--title-mid)"/><rect x="192" y="70" width="8" height="4" fill="var(--title-mid)"/><rect x="208" y="38" width="24" height="4" fill="var(--title-mid)"/><rect x="208" y="42" width="8" height="4" fill="var(--title-mid)"/><rect x="208" y="46" width="8" height="4" fill="var(--title-mid)"/><rect x="208" y="50" width="20" height="4" fill="var(--title-mid)"/><rect x="208" y="54" width="20" height="4" fill="var(--title-mid)"/><rect x="208" y="58" width="8" height="4" fill="var(--title-mid)"/><rect x="208" y="62" width="8" height="4" fill="var(--title-mid)"/><rect x="208" y="66" width="8" height="4" fill="var(--title-mid)"/><rect x="208" y="70" width="24" height="4" fill="var(--title-mid)"/><rect x="240" y="38" width="8" height="4" fill="var(--title-mid)"/><rect x="260" y="38" width="4" height="4" fill="var(--title-mid)"/><rect x="240" y="42" width="8" height="4" fill="var(--title-mid)"/><rect x="256" y="42" width="8" height="4" fill="var(--title-mid)"/><rect x="240" y="46" width="8" height="4" fill="var(--title-mid)"/><rect x="252" y="46" width="8" height="4" fill="var(--title-mid)"/><rect x="240" y="50" width="16" height="4" fill="var(--title-mid)"/><rect x="240" y="54" width="16" height="4" fill="var(--title-mid)"/><rect x="240" y="58" width="8" height="4" fill="var(--title-mid)"/><rect x="252" y="58" width="8" height="4" fill="var(--title-mid)"/><rect x="240" y="62" width="8" height="4" fill="var(--title-mid)"/><rect x="256" y="62" width="8" height="4" fill="var(--title-mid)"/><rect x="240" y="66" width="8" height="4" fill="var(--title-mid)"/><rect x="260" y="66" width="4" height="4" fill="var(--title-mid)"/><rect x="240" y="70" width="8" height="4" fill="var(--title-mid)"/><rect x="260" y="70" width="4" height="4" fill="var(--title-mid)"/><rect x="272" y="38" width="24" height="4" fill="var(--title-mid)"/><rect x="280" y="42" width="8" height="4" fill="var(--title-mid)"/><rect x="280" y="46" width="8" height="4" fill="var(--title-mid)"/><rect x="280" y="50" width="8" height="4" fill="var(--title-mid)"/><rect x="280" y="54" width="8" height="4" fill="var(--title-mid)"/><rect x="280" y="58" width="8" height="4" fill="var(--title-mid)"/><rect x="280" y="62" width="8" height="4" fill="var(--title-mid)"/><rect x="280" y="66" width="8" height="4" fill="var(--title-mid)"/><rect x="272" y="70" width="24" height="4" fill="var(--title-mid)"/><rect x="304" y="38" width="28" height="4" fill="var(--title-mid)"/><rect x="304" y="42" width="28" height="4" fill="var(--title-mid)"/><rect x="316" y="46" width="8" height="4" fill="var(--title-mid)"/><rect x="316" y="50" width="8" height="4" fill="var(--title-mid)"/><rect x="316" y="54" width="8" height="4" fill="var(--title-mid)"/><rect x="316" y="58" width="8" height="4" fill="var(--title-mid)"/><rect x="316" y="62" width="8" height="4" fill="var(--title-mid)"/><rect x="316" y="66" width="8" height="4" fill="var(--title-mid)"/><rect x="316" y="70" width="8" height="4" fill="var(--title-mid)"/><rect x="60" y="83" width="8" height="4" fill="var(--title-mid)"/><rect x="56" y="87" width="8" height="4" fill="var(--title-mid)"/><rect x="56" y="91" width="8" height="4" fill="var(--title-mid)"/><rect x="52" y="95" width="8" height="4" fill="var(--title-mid)"/><rect x="52" y="99" width="8" height="4" fill="var(--title-mid)"/><rect x="48" y="103" width="8" height="4" fill="var(--title-mid)"/><rect x="48" y="107" width="8" height="4" fill="var(--title-mid)"/><rect x="44" y="111" width="8" height="4" fill="var(--title-mid)"/><rect x="44" y="115" width="8" height="4" fill="var(--title-mid)"/><rect x="92" y="83" width="8" height="4" fill="var(--title-mid)"/><rect x="88" y="87" width="8" height="4" fill="var(--title-mid)"/><rect x="88" y="91" width="8" height="4" fill="var(--title-mid)"/><rect x="84" y="95" width="8" height="4" fill="var(--title-mid)"/><rect x="84" y="99" width="8" height="4" fill="var(--title-mid)"/><rect x="80" y="103" width="8" height="4" fill="var(--title-mid)"/><rect x="80" y="107" width="8" height="4" fill="var(--title-mid)"/><rect x="76" y="111" width="8" height="4" fill="var(--title-mid)"/><rect x="76" y="115" width="8" height="4" fill="var(--title-mid)"/><rect x="144" y="83" width="20" height="4" fill="var(--title-mid)"/><rect x="140" y="87" width="8" height="4" fill="var(--title-mid)"/><rect x="160" y="87" width="4" height="4" fill="var(--title-mid)"/><rect x="140" y="91" width="8" height="4" fill="var(--title-mid)"/><rect x="144" y="95" width="16" height="4" fill="var(--title-mid)"/><rect x="144" y="99" width="16" height="4" fill="var(--title-mid)"/><rect x="156" y="103" width="8" height="4" fill="var(--title-mid)"/><rect x="140" y="107" width="4" height="4" fill="var(--title-mid)"/><rect x="156" y="107" width="8" height="4" fill="var(--title-mid)"/><rect x="140" y="111" width="8" height="4" fill="var(--title-mid)"/><rect x="156" y="111" width="8" height="4" fill="var(--title-mid)"/><rect x="144" y="115" width="16" height="4" fill="var(--title-mid)"/><rect x="172" y="83" width="28" height="4" fill="var(--title-mid)"/><rect x="172" y="87" width="28" height="4" fill="var(--title-mid)"/><rect x="184" y="91" width="8" height="4" fill="var(--title-mid)"/><rect x="184" y="95" width="8" height="4" fill="var(--title-mid)"/><rect x="184" y="99" width="8" height="4" fill="var(--title-mid)"/><rect x="184" y="103" width="8" height="4" fill="var(--title-mid)"/><rect x="184" y="107" width="8" height="4" fill="var(--title-mid)"/><rect x="184" y="111" width="8" height="4" fill="var(--title-mid)"/><rect x="184" y="115" width="8" height="4" fill="var(--title-mid)"/><rect x="208" y="83" width="8" height="4" fill="var(--title-mid)"/><rect x="224" y="83" width="8" height="4" fill="var(--title-mid)"/><rect x="208" y="87" width="8" height="4" fill="var(--title-mid)"/><rect x="224" y="87" width="8" height="4" fill="var(--title-mid)"/><rect x="208" y="91" width="8" height="4" fill="var(--title-mid)"/><rect x="224" y="91" width="8" height="4" fill="var(--title-mid)"/><rect x="208" y="95" width="8" height="4" fill="var(--title-mid)"/><rect x="224" y="95" width="8" height="4" fill="var(--title-mid)"/><rect x="208" y="99" width="8" height="4" fill="var(--title-mid)"/><rect x="224" y="99" width="8" height="4" fill="var(--title-mid)"/><rect x="208" y="103" width="8" height="4" fill="var(--title-mid)"/><rect x="224" y="103" width="8" height="4" fill="var(--title-mid)"/><rect x="208" y="107" width="8" height="4" fill="var(--title-mid)"/><rect x="224" y="107" width="8" height="4" fill="var(--title-mid)"/><rect x="208" y="111" width="8" height="4" fill="var(--title-mid)"/><rect x="224" y="111" width="8" height="4" fill="var(--title-mid)"/><rect x="212" y="115" width="16" height="4" fill="var(--title-mid)"/><rect x="240" y="83" width="20" height="4" fill="var(--title-mid)"/><rect x="240" y="87" width="8" height="4" fill="var(--title-mid)"/><rect x="256" y="87" width="8" height="4" fill="var(--title-mid)"/><rect x="240" y="91" width="8" height="4" fill="var(--title-mid)"/><rect x="256" y="91" width="8" height="4" fill="var(--title-mid)"/><rect x="240" y="95" width="8" height="4" fill="var(--title-mid)"/><rect x="256" y="95" width="8" height="4" fill="var(--title-mid)"/><rect x="240" y="99" width="8" height="4" fill="var(--title-mid)"/><rect x="256" y="99" width="8" height="4" fill="var(--title-mid)"/><rect x="240" y="103" width="8" height="4" fill="var(--title-mid)"/><rect x="256" y="103" width="8" height="4" fill="var(--title-mid)"/><rect x="240" y="107" width="8" height="4" fill="var(--title-mid)"/><rect x="256" y="107" width="8" height="4" fill="var(--title-mid)"/><rect x="240" y="111" width="8" height="4" fill="var(--title-mid)"/><rect x="256" y="111" width="8" height="4" fill="var(--title-mid)"/><rect x="240" y="115" width="20" height="4" fill="var(--title-mid)"/><rect x="272" y="83" width="24" height="4" fill="var(--title-mid)"/><rect x="280" y="87" width="8" height="4" fill="var(--title-mid)"/><rect x="280" y="91" width="8" height="4" fill="var(--title-mid)"/><rect x="280" y="95" width="8" height="4" fill="var(--title-mid)"/><rect x="280" y="99" width="8" height="4" fill="var(--title-mid)"/><rect x="280" y="103" width="8" height="4" fill="var(--title-mid)"/><rect x="280" y="107" width="8" height="4" fill="var(--title-mid)"/><rect x="280" y="111" width="8" height="4" fill="var(--title-mid)"/><rect x="272" y="115" width="24" height="4" fill="var(--title-mid)"/><rect x="308" y="83" width="16" height="4" fill="var(--title-mid)"/><rect x="304" y="87" width="8" height="4" fill="var(--title-mid)"/><rect x="320" y="87" width="8" height="4" fill="var(--title-mid)"/><rect x="304" y="91" width="8" height="4" fill="var(--title-mid)"/><rect x="320" y="91" width="8" height="4" fill="var(--title-mid)"/><rect x="304" y="95" width="8" height="4" fill="var(--title-mid)"/><rect x="320" y="95" width="8" height="4" fill="var(--title-mid)"/><rect x="304" y="99" width="8" height="4" fill="var(--title-mid)"/><rect x="320" y="99" width="8" height="4" fill="var(--title-mid)"/><rect x="304" y="103" width="8" height="4" fill="var(--title-mid)"/><rect x="320" y="103" width="8" height="4" fill="var(--title-mid)"/><rect x="304" y="107" width="8" height="4" fill="var(--title-mid)"/><rect x="320" y="107" width="8" height="4" fill="var(--title-mid)"/><rect x="304" y="111" width="8" height="4" fill="var(--title-mid)"/><rect x="320" y="111" width="8" height="4" fill="var(--title-mid)"/><rect x="308" y="115" width="16" height="4" fill="var(--title-mid)"/>
  <!-- Front Face -->
  <rect x="42" y="36" width="20" height="4" fill="var(--title-front)"/><rect x="42" y="40" width="8" height="4" fill="var(--title-front)"/><rect x="58" y="40" width="8" height="4" fill="var(--title-front)"/><rect x="42" y="44" width="8" height="4" fill="var(--title-front)"/><rect x="58" y="44" width="8" height="4" fill="var(--title-front)"/><rect x="42" y="48" width="20" height="4" fill="var(--title-front)"/><rect x="42" y="52" width="20" height="4" fill="var(--title-front)"/><rect x="42" y="56" width="8" height="4" fill="var(--title-front)"/><rect x="54" y="56" width="8" height="4" fill="var(--title-front)"/><rect x="42" y="60" width="8" height="4" fill="var(--title-front)"/><rect x="58" y="60" width="8" height="4" fill="var(--title-front)"/><rect x="42" y="64" width="8" height="4" fill="var(--title-front)"/><rect x="58" y="64" width="8" height="4" fill="var(--title-front)"/><rect x="42" y="68" width="8" height="4" fill="var(--title-front)"/><rect x="62" y="68" width="4" height="4" fill="var(--title-front)"/><rect x="74" y="36" width="24" height="4" fill="var(--title-front)"/><rect x="74" y="40" width="8" height="4" fill="var(--title-front)"/><rect x="74" y="44" width="8" height="4" fill="var(--title-front)"/><rect x="74" y="48" width="20" height="4" fill="var(--title-front)"/><rect x="74" y="52" width="20" height="4" fill="var(--title-front)"/><rect x="74" y="56" width="8" height="4" fill="var(--title-front)"/><rect x="74" y="60" width="8" height="4" fill="var(--title-front)"/><rect x="74" y="64" width="8" height="4" fill="var(--title-front)"/><rect x="74" y="68" width="24" height="4" fill="var(--title-front)"/><rect x="110" y="36" width="16" height="4" fill="var(--title-front)"/><rect x="106" y="40" width="8" height="4" fill="var(--title-front)"/><rect x="122" y="40" width="8" height="4" fill="var(--title-front)"/><rect x="106" y="44" width="8" height="4" fill="var(--title-front)"/><rect x="122" y="44" width="8" height="4" fill="var(--title-front)"/><rect x="106" y="48" width="24" height="4" fill="var(--title-front)"/><rect x="106" y="52" width="24" height="4" fill="var(--title-front)"/><rect x="106" y="56" width="8" height="4" fill="var(--title-front)"/><rect x="122" y="56" width="8" height="4" fill="var(--title-front)"/><rect x="106" y="60" width="8" height="4" fill="var(--title-front)"/><rect x="122" y="60" width="8" height="4" fill="var(--title-front)"/><rect x="106" y="64" width="8" height="4" fill="var(--title-front)"/><rect x="122" y="64" width="8" height="4" fill="var(--title-front)"/><rect x="106" y="68" width="8" height="4" fill="var(--title-front)"/><rect x="122" y="68" width="8" height="4" fill="var(--title-front)"/><rect x="138" y="36" width="20" height="4" fill="var(--title-front)"/><rect x="138" y="40" width="8" height="4" fill="var(--title-front)"/><rect x="154" y="40" width="8" height="4" fill="var(--title-front)"/><rect x="138" y="44" width="8" height="4" fill="var(--title-front)"/><rect x="154" y="44" width="8" height="4" fill="var(--title-front)"/><rect x="138" y="48" width="8" height="4" fill="var(--title-front)"/><rect x="154" y="48" width="8" height="4" fill="var(--title-front)"/><rect x="138" y="52" width="8" height="4" fill="var(--title-front)"/><rect x="154" y="52" width="8" height="4" fill="var(--title-front)"/><rect x="138" y="56" width="8" height="4" fill="var(--title-front)"/><rect x="154" y="56" width="8" height="4" fill="var(--title-front)"/><rect x="138" y="60" width="8" height="4" fill="var(--title-front)"/><rect x="154" y="60" width="8" height="4" fill="var(--title-front)"/><rect x="138" y="64" width="8" height="4" fill="var(--title-front)"/><rect x="154" y="64" width="8" height="4" fill="var(--title-front)"/><rect x="138" y="68" width="20" height="4" fill="var(--title-front)"/><rect x="170" y="36" width="8" height="4" fill="var(--title-front)"/><rect x="190" y="36" width="8" height="4" fill="var(--title-front)"/><rect x="170" y="40" width="12" height="4" fill="var(--title-front)"/><rect x="186" y="40" width="12" height="4" fill="var(--title-front)"/><rect x="170" y="44" width="28" height="4" fill="var(--title-front)"/><rect x="170" y="48" width="8" height="4" fill="var(--title-front)"/><rect x="182" y="48" width="4" height="4" fill="var(--title-front)"/><rect x="190" y="48" width="8" height="4" fill="var(--title-front)"/><rect x="170" y="52" width="8" height="4" fill="var(--title-front)"/><rect x="190" y="52" width="8" height="4" fill="var(--title-front)"/><rect x="170" y="56" width="8" height="4" fill="var(--title-front)"/><rect x="190" y="56" width="8" height="4" fill="var(--title-front)"/><rect x="170" y="60" width="8" height="4" fill="var(--title-front)"/><rect x="190" y="60" width="8" height="4" fill="var(--title-front)"/><rect x="170" y="64" width="8" height="4" fill="var(--title-front)"/><rect x="190" y="64" width="8" height="4" fill="var(--title-front)"/><rect x="170" y="68" width="8" height="4" fill="var(--title-front)"/><rect x="190" y="68" width="8" height="4" fill="var(--title-front)"/><rect x="206" y="36" width="24" height="4" fill="var(--title-front)"/><rect x="206" y="40" width="8" height="4" fill="var(--title-front)"/><rect x="206" y="44" width="8" height="4" fill="var(--title-front)"/><rect x="206" y="48" width="20" height="4" fill="var(--title-front)"/><rect x="206" y="52" width="20" height="4" fill="var(--title-front)"/><rect x="206" y="56" width="8" height="4" fill="var(--title-front)"/><rect x="206" y="60" width="8" height="4" fill="var(--title-front)"/><rect x="206" y="64" width="8" height="4" fill="var(--title-front)"/><rect x="206" y="68" width="24" height="4" fill="var(--title-front)"/><rect x="238" y="36" width="8" height="4" fill="var(--title-front)"/><rect x="258" y="36" width="4" height="4" fill="var(--title-front)"/><rect x="238" y="40" width="8" height="4" fill="var(--title-front)"/><rect x="254" y="40" width="8" height="4" fill="var(--title-front)"/><rect x="238" y="44" width="8" height="4" fill="var(--title-front)"/><rect x="250" y="44" width="8" height="4" fill="var(--title-front)"/><rect x="238" y="48" width="16" height="4" fill="var(--title-front)"/><rect x="238" y="52" width="16" height="4" fill="var(--title-front)"/><rect x="238" y="56" width="8" height="4" fill="var(--title-front)"/><rect x="250" y="56" width="8" height="4" fill="var(--title-front)"/><rect x="238" y="60" width="8" height="4" fill="var(--title-front)"/><rect x="254" y="60" width="8" height="4" fill="var(--title-front)"/><rect x="238" y="64" width="8" height="4" fill="var(--title-front)"/><rect x="258" y="64" width="4" height="4" fill="var(--title-front)"/><rect x="238" y="68" width="8" height="4" fill="var(--title-front)"/><rect x="258" y="68" width="4" height="4" fill="var(--title-front)"/><rect x="270" y="36" width="24" height="4" fill="var(--title-front)"/><rect x="278" y="40" width="8" height="4" fill="var(--title-front)"/><rect x="278" y="44" width="8" height="4" fill="var(--title-front)"/><rect x="278" y="48" width="8" height="4" fill="var(--title-front)"/><rect x="278" y="52" width="8" height="4" fill="var(--title-front)"/><rect x="278" y="56" width="8" height="4" fill="var(--title-front)"/><rect x="278" y="60" width="8" height="4" fill="var(--title-front)"/><rect x="278" y="64" width="8" height="4" fill="var(--title-front)"/><rect x="270" y="68" width="24" height="4" fill="var(--title-front)"/><rect x="302" y="36" width="28" height="4" fill="var(--title-front)"/><rect x="302" y="40" width="28" height="4" fill="var(--title-front)"/><rect x="314" y="44" width="8" height="4" fill="var(--title-front)"/><rect x="314" y="48" width="8" height="4" fill="var(--title-front)"/><rect x="314" y="52" width="8" height="4" fill="var(--title-front)"/><rect x="314" y="56" width="8" height="4" fill="var(--title-front)"/><rect x="314" y="60" width="8" height="4" fill="var(--title-front)"/><rect x="314" y="64" width="8" height="4" fill="var(--title-front)"/><rect x="314" y="68" width="8" height="4" fill="var(--title-front)"/><rect x="58" y="81" width="8" height="4" fill="var(--title-front)"/><rect x="54" y="85" width="8" height="4" fill="var(--title-front)"/><rect x="54" y="89" width="8" height="4" fill="var(--title-front)"/><rect x="50" y="93" width="8" height="4" fill="var(--title-front)"/><rect x="50" y="97" width="8" height="4" fill="var(--title-front)"/><rect x="46" y="101" width="8" height="4" fill="var(--title-front)"/><rect x="46" y="105" width="8" height="4" fill="var(--title-front)"/><rect x="42" y="109" width="8" height="4" fill="var(--title-front)"/><rect x="42" y="113" width="8" height="4" fill="var(--title-front)"/><rect x="90" y="81" width="8" height="4" fill="var(--title-front)"/><rect x="86" y="85" width="8" height="4" fill="var(--title-front)"/><rect x="86" y="89" width="8" height="4" fill="var(--title-front)"/><rect x="82" y="93" width="8" height="4" fill="var(--title-front)"/><rect x="82" y="97" width="8" height="4" fill="var(--title-front)"/><rect x="78" y="101" width="8" height="4" fill="var(--title-front)"/><rect x="78" y="105" width="8" height="4" fill="var(--title-front)"/><rect x="74" y="109" width="8" height="4" fill="var(--title-front)"/><rect x="74" y="113" width="8" height="4" fill="var(--title-front)"/><rect x="142" y="81" width="20" height="4" fill="var(--title-front)"/><rect x="138" y="85" width="8" height="4" fill="var(--title-front)"/><rect x="158" y="85" width="4" height="4" fill="var(--title-front)"/><rect x="138" y="89" width="8" height="4" fill="var(--title-front)"/><rect x="142" y="93" width="16" height="4" fill="var(--title-front)"/><rect x="142" y="97" width="16" height="4" fill="var(--title-front)"/><rect x="154" y="101" width="8" height="4" fill="var(--title-front)"/><rect x="138" y="105" width="4" height="4" fill="var(--title-front)"/><rect x="154" y="105" width="8" height="4" fill="var(--title-front)"/><rect x="138" y="109" width="8" height="4" fill="var(--title-front)"/><rect x="154" y="109" width="8" height="4" fill="var(--title-front)"/><rect x="142" y="113" width="16" height="4" fill="var(--title-front)"/><rect x="170" y="81" width="28" height="4" fill="var(--title-front)"/><rect x="170" y="85" width="28" height="4" fill="var(--title-front)"/><rect x="182" y="89" width="8" height="4" fill="var(--title-front)"/><rect x="182" y="93" width="8" height="4" fill="var(--title-front)"/><rect x="182" y="97" width="8" height="4" fill="var(--title-front)"/><rect x="182" y="101" width="8" height="4" fill="var(--title-front)"/><rect x="182" y="105" width="8" height="4" fill="var(--title-front)"/><rect x="182" y="109" width="8" height="4" fill="var(--title-front)"/><rect x="182" y="113" width="8" height="4" fill="var(--title-front)"/><rect x="206" y="81" width="8" height="4" fill="var(--title-front)"/><rect x="222" y="81" width="8" height="4" fill="var(--title-front)"/><rect x="206" y="85" width="8" height="4" fill="var(--title-front)"/><rect x="222" y="85" width="8" height="4" fill="var(--title-front)"/><rect x="206" y="89" width="8" height="4" fill="var(--title-front)"/><rect x="222" y="89" width="8" height="4" fill="var(--title-front)"/><rect x="206" y="93" width="8" height="4" fill="var(--title-front)"/><rect x="222" y="93" width="8" height="4" fill="var(--title-front)"/><rect x="206" y="97" width="8" height="4" fill="var(--title-front)"/><rect x="222" y="97" width="8" height="4" fill="var(--title-front)"/><rect x="206" y="101" width="8" height="4" fill="var(--title-front)"/><rect x="222" y="101" width="8" height="4" fill="var(--title-front)"/><rect x="206" y="105" width="8" height="4" fill="var(--title-front)"/><rect x="222" y="105" width="8" height="4" fill="var(--title-front)"/><rect x="206" y="109" width="8" height="4" fill="var(--title-front)"/><rect x="222" y="109" width="8" height="4" fill="var(--title-front)"/><rect x="210" y="113" width="16" height="4" fill="var(--title-front)"/><rect x="238" y="81" width="20" height="4" fill="var(--title-front)"/><rect x="238" y="85" width="8" height="4" fill="var(--title-front)"/><rect x="254" y="85" width="8" height="4" fill="var(--title-front)"/><rect x="238" y="89" width="8" height="4" fill="var(--title-front)"/><rect x="254" y="89" width="8" height="4" fill="var(--title-front)"/><rect x="238" y="93" width="8" height="4" fill="var(--title-front)"/><rect x="254" y="93" width="8" height="4" fill="var(--title-front)"/><rect x="238" y="97" width="8" height="4" fill="var(--title-front)"/><rect x="254" y="97" width="8" height="4" fill="var(--title-front)"/><rect x="238" y="101" width="8" height="4" fill="var(--title-front)"/><rect x="254" y="101" width="8" height="4" fill="var(--title-front)"/><rect x="238" y="105" width="8" height="4" fill="var(--title-front)"/><rect x="254" y="105" width="8" height="4" fill="var(--title-front)"/><rect x="238" y="109" width="8" height="4" fill="var(--title-front)"/><rect x="254" y="109" width="8" height="4" fill="var(--title-front)"/><rect x="238" y="113" width="20" height="4" fill="var(--title-front)"/><rect x="270" y="81" width="24" height="4" fill="var(--title-front)"/><rect x="278" y="85" width="8" height="4" fill="var(--title-front)"/><rect x="278" y="89" width="8" height="4" fill="var(--title-front)"/><rect x="278" y="93" width="8" height="4" fill="var(--title-front)"/><rect x="278" y="97" width="8" height="4" fill="var(--title-front)"/><rect x="278" y="101" width="8" height="4" fill="var(--title-front)"/><rect x="278" y="105" width="8" height="4" fill="var(--title-front)"/><rect x="278" y="109" width="8" height="4" fill="var(--title-front)"/><rect x="270" y="113" width="24" height="4" fill="var(--title-front)"/><rect x="306" y="81" width="16" height="4" fill="var(--title-front)"/><rect x="302" y="85" width="8" height="4" fill="var(--title-front)"/><rect x="318" y="85" width="8" height="4" fill="var(--title-front)"/><rect x="302" y="89" width="8" height="4" fill="var(--title-front)"/><rect x="318" y="89" width="8" height="4" fill="var(--title-front)"/><rect x="302" y="93" width="8" height="4" fill="var(--title-front)"/><rect x="318" y="93" width="8" height="4" fill="var(--title-front)"/><rect x="302" y="97" width="8" height="4" fill="var(--title-front)"/><rect x="318" y="97" width="8" height="4" fill="var(--title-front)"/><rect x="302" y="101" width="8" height="4" fill="var(--title-front)"/><rect x="318" y="101" width="8" height="4" fill="var(--title-front)"/><rect x="302" y="105" width="8" height="4" fill="var(--title-front)"/><rect x="318" y="105" width="8" height="4" fill="var(--title-front)"/><rect x="302" y="109" width="8" height="4" fill="var(--title-front)"/><rect x="318" y="109" width="8" height="4" fill="var(--title-front)"/><rect x="306" y="113" width="16" height="4" fill="var(--title-front)"/>
</g>

  <!-- SUBTITLE CHIP -->
  <g transform="translate(42, 129)">
    <rect x="0" y="0" width="315" height="22" fill="var(--bg-panel)" stroke="var(--accent)" stroke-width="1"/>
    <text x="12" y="15" fill="var(--text-main)" font-size="11" font-weight="bold" class="font-mono">⚡ Universal Customization System for Gi...</text>
  </g>

  <!-- SPECS TELEMETRY -->
  
  <text x="42" y="173" fill="var(--primary)" font-size="10" class="font-mono">// SPEC.1: <tspan fill="var(--accent)">PYTHON 3.10+</tspan></text>

  <text x="42" y="191" fill="var(--primary)" font-size="10" class="font-mono">// SPEC.2: <tspan fill="var(--accent)">100% SVG</tspan></text>

  <text x="42" y="209" fill="var(--primary)" font-size="10" class="font-mono">// SPEC.3: <tspan fill="var(--accent)">NOMINAL</tspan></text>


  <!-- EQUALIZER BARS (RIGHT SIDE) -->
  <g transform="translate(730, 98)">
    <rect x="0" y="28" width="8" height="12" fill="var(--primary)" class="eq1"/>
    <rect x="14" y="12" width="8" height="28" fill="var(--accent)" class="eq2"/>
    <rect x="28" y="22" width="8" height="18" fill="var(--tertiary)" class="eq3"/>
    <rect x="42" y="6" width="8" height="34" fill="var(--warning)" class="eq4"/>
    <rect x="56" y="18" width="8" height="22" fill="var(--status)" class="eq5"/>
    <text x="32" y="52" fill="var(--primary)" font-size="9" font-weight="bold" text-anchor="middle" class="font-mono">LIVE_AUDIO</text>
  </g>
</svg>