<svg xmlns="http://www.w3.org/2000/svg" viewBox="0 0 850 640" width="100%" height="100%" shape-rendering="crispEdges">
  <defs>
    <style>
      
      :root {
        --bg-glass: rgba(15, 18, 30, 0.85);
        --bg-panel: rgba(22, 27, 46, 0.80);
        --border-chassis: rgba(41, 46, 66, 0.85);
        --primary: #4F8BFF;
        --accent: #A855F7;
        --tertiary: #06B6D4;
        --title-front: #4F8BFF;
        --title-mid: #2563EB;
        --title-dark: #1E3A8A;
        --text-main: #F1F5F9;
        --text-dim: #94A3B8;
        --status: #10B981;
        --warning: #F59E0B;
        --grid-op: 0.08;
      }
      @media (prefers-color-scheme: dark) {
        :root {
          --bg-glass: rgba(15, 18, 30, 0.85);
          --bg-panel: rgba(22, 27, 46, 0.80);
          --border-chassis: rgba(41, 46, 66, 0.85);
          --primary: #4F8BFF;
          --accent: #A855F7;
          --tertiary: #06B6D4;
          --title-front: #4F8BFF;
          --title-mid: #2563EB;
          --title-dark: #1E3A8A;
          --text-main: #F1F5F9;
          --text-dim: #94A3B8;
          --status: #10B981;
          --warning: #F59E0B;
          --grid-op: 0.08;
        }
      }
      @media (prefers-color-scheme: light) {
        :root {
          --bg-glass: #F8FAFC;
          --bg-panel: #F1F5F9;
          --border-chassis: #E2E8F0;
          --primary: #1D4ED8;
          --accent: #6D28D9;
          --tertiary: #0891B2;
          --title-front: #1D4ED8;
          --title-mid: #1E40AF;
          --title-dark: #0F172A;
          --text-main: #0F172A;
          --text-dim: #64748B;
          --status: #16A34A;
          --warning: #D97706;
          --grid-op: 0.10;
        }
      }
      @media (hover: hover) {
        .btn-hover:hover, a:hover polygon, a:hover rect {
          filter: drop-shadow(0 0 6px var(--primary, #4F8BFF));
          cursor: pointer;
          transition: filter 0.2s ease;
        }
      }

      .font-mono { font-family: 'JetBrains Mono', 'Fira Code', 'Courier New', monospace; }
    </style>
  </defs>

  
  <rect x="8" y="8" width="834" height="624" fill="var(--bg-glass)" stroke="var(--border-chassis)" stroke-width="2"/>
  <line x1="8" y1="8" x2="842" y2="8" stroke="var(--primary)" stroke-width="4"/>
  <rect x="14" y="14" width="8" height="8" fill="var(--primary)"/>
  <rect x="828" y="14" width="8" height="8" fill="var(--accent)"/>
  <rect x="14" y="618" width="8" height="8" fill="var(--accent)"/>
  <rect x="828" y="618" width="8" height="8" fill="var(--primary)"/>


  <!-- TOP REPOSITORY HEADER -->
  <rect x="80" y="56" width="365" height="34" fill="var(--bg-panel)" stroke="var(--border-chassis)" stroke-width="1.2"/>
  <text x="96" y="78" fill="var(--primary)" font-size="13" font-weight="bold" letter-spacing="1px" class="font-mono">■ REPOSITORY // KAZINAGG/PIXEL-README-KIT</text>
  <rect x="459" y="56" width="140" height="34" fill="var(--bg-panel)" stroke="var(--accent)" stroke-width="1.2"/>
  <text x="529" y="78" fill="var(--accent)" font-size="12" font-weight="bold" text-anchor="middle" class="font-mono">PUBLIC // v5.0</text>

  <!-- 3D PIXEL TITLE -->
  <g class="pixel-text-3d">
  <!-- Shadow Dark -->
  <rect x="88" y="178" width="35" height="7" fill="var(--title-dark)"/><rect x="88" y="185" width="14" height="7" fill="var(--title-dark)"/><rect x="116" y="185" width="14" height="7" fill="var(--title-dark)"/><rect x="88" y="192" width="14" height="7" fill="var(--title-dark)"/><rect x="116" y="192" width="14" height="7" fill="var(--title-dark)"/><rect x="88" y="199" width="35" height="7" fill="var(--title-dark)"/><rect x="88" y="206" width="35" height="7" fill="var(--title-dark)"/><rect x="88" y="213" width="14" height="7" fill="var(--title-dark)"/><rect x="109" y="213" width="14" height="7" fill="var(--title-dark)"/><rect x="88" y="220" width="14" height="7" fill="var(--title-dark)"/><rect x="116" y="220" width="14" height="7" fill="var(--title-dark)"/><rect x="88" y="227" width="14" height="7" fill="var(--title-dark)"/><rect x="116" y="227" width="14" height="7" fill="var(--title-dark)"/><rect x="88" y="234" width="14" height="7" fill="var(--title-dark)"/><rect x="123" y="234" width="7" height="7" fill="var(--title-dark)"/><rect x="144" y="178" width="42" height="7" fill="var(--title-dark)"/><rect x="144" y="185" width="14" height="7" fill="var(--title-dark)"/><rect x="144" y="192" width="14" height="7" fill="var(--title-dark)"/><rect x="144" y="199" width="35" height="7" fill="var(--title-dark)"/><rect x="144" y="206" width="35" height="7" fill="var(--title-dark)"/><rect x="144" y="213" width="14" height="7" fill="var(--title-dark)"/><rect x="144" y="220" width="14" height="7" fill="var(--title-dark)"/><rect x="144" y="227" width="14" height="7" fill="var(--title-dark)"/><rect x="144" y="234" width="42" height="7" fill="var(--title-dark)"/><rect x="207" y="178" width="28" height="7" fill="var(--title-dark)"/><rect x="200" y="185" width="14" height="7" fill="var(--title-dark)"/><rect x="228" y="185" width="14" height="7" fill="var(--title-dark)"/><rect x="200" y="192" width="14" height="7" fill="var(--title-dark)"/><rect x="228" y="192" width="14" height="7" fill="var(--title-dark)"/><rect x="200" y="199" width="42" height="7" fill="var(--title-dark)"/><rect x="200" y="206" width="42" height="7" fill="var(--title-dark)"/><rect x="200" y="213" width="14" height="7" fill="var(--title-dark)"/><rect x="228" y="213" width="14" height="7" fill="var(--title-dark)"/><rect x="200" y="220" width="14" height="7" fill="var(--title-dark)"/><rect x="228" y="220" width="14" height="7" fill="var(--title-dark)"/><rect x="200" y="227" width="14" height="7" fill="var(--title-dark)"/><rect x="228" y="227" width="14" height="7" fill="var(--title-dark)"/><rect x="200" y="234" width="14" height="7" fill="var(--title-dark)"/><rect x="228" y="234" width="14" height="7" fill="var(--title-dark)"/><rect x="256" y="178" width="35" height="7" fill="var(--title-dark)"/><rect x="256" y="185" width="14" height="7" fill="var(--title-dark)"/><rect x="284" y="185" width="14" height="7" fill="var(--title-dark)"/><rect x="256" y="192" width="14" height="7" fill="var(--title-dark)"/><rect x="284" y="192" width="14" height="7" fill="var(--title-dark)"/><rect x="256" y="199" width="14" height="7" fill="var(--title-dark)"/><rect x="284" y="199" width="14" height="7" fill="var(--title-dark)"/><rect x="256" y="206" width="14" height="7" fill="var(--title-dark)"/><rect x="284" y="206" width="14" height="7" fill="var(--title-dark)"/><rect x="256" y="213" width="14" height="7" fill="var(--title-dark)"/><rect x="284" y="213" width="14" height="7" fill="var(--title-dark)"/><rect x="256" y="220" width="14" height="7" fill="var(--title-dark)"/><rect x="284" y="220" width="14" height="7" fill="var(--title-dark)"/><rect x="256" y="227" width="14" height="7" fill="var(--title-dark)"/><rect x="284" y="227" width="14" height="7" fill="var(--title-dark)"/><rect x="256" y="234" width="35" height="7" fill="var(--title-dark)"/><rect x="312" y="178" width="14" height="7" fill="var(--title-dark)"/><rect x="347" y="178" width="14" height="7" fill="var(--title-dark)"/><rect x="312" y="185" width="21" height="7" fill="var(--title-dark)"/><rect x="340" y="185" width="21" height="7" fill="var(--title-dark)"/><rect x="312" y="192" width="49" height="7" fill="var(--title-dark)"/><rect x="312" y="199" width="14" height="7" fill="var(--title-dark)"/><rect x="333" y="199" width="7" height="7" fill="var(--title-dark)"/><rect x="347" y="199" width="14" height="7" fill="var(--title-dark)"/><rect x="312" y="206" width="14" height="7" fill="var(--title-dark)"/><rect x="347" y="206" width="14" height="7" fill="var(--title-dark)"/><rect x="312" y="213" width="14" height="7" fill="var(--title-dark)"/><rect x="347" y="213" width="14" height="7" fill="var(--title-dark)"/><rect x="312" y="220" width="14" height="7" fill="var(--title-dark)"/><rect x="347" y="220" width="14" height="7" fill="var(--title-dark)"/><rect x="312" y="227" width="14" height="7" fill="var(--title-dark)"/><rect x="347" y="227" width="14" height="7" fill="var(--title-dark)"/><rect x="312" y="234" width="14" height="7" fill="var(--title-dark)"/><rect x="347" y="234" width="14" height="7" fill="var(--title-dark)"/><rect x="375" y="178" width="42" height="7" fill="var(--title-dark)"/><rect x="375" y="185" width="14" height="7" fill="var(--title-dark)"/><rect x="375" y="192" width="14" height="7" fill="var(--title-dark)"/><rect x="375" y="199" width="35" height="7" fill="var(--title-dark)"/><rect x="375" y="206" width="35" height="7" fill="var(--title-dark)"/><rect x="375" y="213" width="14" height="7" fill="var(--title-dark)"/><rect x="375" y="220" width="14" height="7" fill="var(--title-dark)"/><rect x="375" y="227" width="14" height="7" fill="var(--title-dark)"/><rect x="375" y="234" width="42" height="7" fill="var(--title-dark)"/><rect x="431" y="178" width="14" height="7" fill="var(--title-dark)"/><rect x="466" y="178" width="7" height="7" fill="var(--title-dark)"/><rect x="431" y="185" width="14" height="7" fill="var(--title-dark)"/><rect x="459" y="185" width="14" height="7" fill="var(--title-dark)"/><rect x="431" y="192" width="14" height="7" fill="var(--title-dark)"/><rect x="452" y="192" width="14" height="7" fill="var(--title-dark)"/><rect x="431" y="199" width="28" height="7" fill="var(--title-dark)"/><rect x="431" y="206" width="28" height="7" fill="var(--title-dark)"/><rect x="431" y="213" width="14" height="7" fill="var(--title-dark)"/><rect x="452" y="213" width="14" height="7" fill="var(--title-dark)"/><rect x="431" y="220" width="14" height="7" fill="var(--title-dark)"/><rect x="459" y="220" width="14" height="7" fill="var(--title-dark)"/><rect x="431" y="227" width="14" height="7" fill="var(--title-dark)"/><rect x="466" y="227" width="7" height="7" fill="var(--title-dark)"/><rect x="431" y="234" width="14" height="7" fill="var(--title-dark)"/><rect x="466" y="234" width="7" height="7" fill="var(--title-dark)"/><rect x="487" y="178" width="42" height="7" fill="var(--title-dark)"/><rect x="501" y="185" width="14" height="7" fill="var(--title-dark)"/><rect x="501" y="192" width="14" height="7" fill="var(--title-dark)"/><rect x="501" y="199" width="14" height="7" fill="var(--title-dark)"/><rect x="501" y="206" width="14" height="7" fill="var(--title-dark)"/><rect x="501" y="213" width="14" height="7" fill="var(--title-dark)"/><rect x="501" y="220" width="14" height="7" fill="var(--title-dark)"/><rect x="501" y="227" width="14" height="7" fill="var(--title-dark)"/><rect x="487" y="234" width="42" height="7" fill="var(--title-dark)"/><rect x="543" y="178" width="49" height="7" fill="var(--title-dark)"/><rect x="543" y="185" width="49" height="7" fill="var(--title-dark)"/><rect x="564" y="192" width="14" height="7" fill="var(--title-dark)"/><rect x="564" y="199" width="14" height="7" fill="var(--title-dark)"/><rect x="564" y="206" width="14" height="7" fill="var(--title-dark)"/><rect x="564" y="213" width="14" height="7" fill="var(--title-dark)"/><rect x="564" y="220" width="14" height="7" fill="var(--title-dark)"/><rect x="564" y="227" width="14" height="7" fill="var(--title-dark)"/><rect x="564" y="234" width="14" height="7" fill="var(--title-dark)"/>
  <!-- Shadow Mid -->
  <rect x="84" y="174" width="35" height="7" fill="var(--title-mid)"/><rect x="84" y="181" width="14" height="7" fill="var(--title-mid)"/><rect x="112" y="181" width="14" height="7" fill="var(--title-mid)"/><rect x="84" y="188" width="14" height="7" fill="var(--title-mid)"/><rect x="112" y="188" width="14" height="7" fill="var(--title-mid)"/><rect x="84" y="195" width="35" height="7" fill="var(--title-mid)"/><rect x="84" y="202" width="35" height="7" fill="var(--title-mid)"/><rect x="84" y="209" width="14" height="7" fill="var(--title-mid)"/><rect x="105" y="209" width="14" height="7" fill="var(--title-mid)"/><rect x="84" y="216" width="14" height="7" fill="var(--title-mid)"/><rect x="112" y="216" width="14" height="7" fill="var(--title-mid)"/><rect x="84" y="223" width="14" height="7" fill="var(--title-mid)"/><rect x="112" y="223" width="14" height="7" fill="var(--title-mid)"/><rect x="84" y="230" width="14" height="7" fill="var(--title-mid)"/><rect x="119" y="230" width="7" height="7" fill="var(--title-mid)"/><rect x="140" y="174" width="42" height="7" fill="var(--title-mid)"/><rect x="140" y="181" width="14" height="7" fill="var(--title-mid)"/><rect x="140" y="188" width="14" height="7" fill="var(--title-mid)"/><rect x="140" y="195" width="35" height="7" fill="var(--title-mid)"/><rect x="140" y="202" width="35" height="7" fill="var(--title-mid)"/><rect x="140" y="209" width="14" height="7" fill="var(--title-mid)"/><rect x="140" y="216" width="14" height="7" fill="var(--title-mid)"/><rect x="140" y="223" width="14" height="7" fill="var(--title-mid)"/><rect x="140" y="230" width="42" height="7" fill="var(--title-mid)"/><rect x="203" y="174" width="28" height="7" fill="var(--title-mid)"/><rect x="196" y="181" width="14" height="7" fill="var(--title-mid)"/><rect x="224" y="181" width="14" height="7" fill="var(--title-mid)"/><rect x="196" y="188" width="14" height="7" fill="var(--title-mid)"/><rect x="224" y="188" width="14" height="7" fill="var(--title-mid)"/><rect x="196" y="195" width="42" height="7" fill="var(--title-mid)"/><rect x="196" y="202" width="42" height="7" fill="var(--title-mid)"/><rect x="196" y="209" width="14" height="7" fill="var(--title-mid)"/><rect x="224" y="209" width="14" height="7" fill="var(--title-mid)"/><rect x="196" y="216" width="14" height="7" fill="var(--title-mid)"/><rect x="224" y="216" width="14" height="7" fill="var(--title-mid)"/><rect x="196" y="223" width="14" height="7" fill="var(--title-mid)"/><rect x="224" y="223" width="14" height="7" fill="var(--title-mid)"/><rect x="196" y="230" width="14" height="7" fill="var(--title-mid)"/><rect x="224" y="230" width="14" height="7" fill="var(--title-mid)"/><rect x="252" y="174" width="35" height="7" fill="var(--title-mid)"/><rect x="252" y="181" width="14" height="7" fill="var(--title-mid)"/><rect x="280" y="181" width="14" height="7" fill="var(--title-mid)"/><rect x="252" y="188" width="14" height="7" fill="var(--title-mid)"/><rect x="280" y="188" width="14" height="7" fill="var(--title-mid)"/><rect x="252" y="195" width="14" height="7" fill="var(--title-mid)"/><rect x="280" y="195" width="14" height="7" fill="var(--title-mid)"/><rect x="252" y="202" width="14" height="7" fill="var(--title-mid)"/><rect x="280" y="202" width="14" height="7" fill="var(--title-mid)"/><rect x="252" y="209" width="14" height="7" fill="var(--title-mid)"/><rect x="280" y="209" width="14" height="7" fill="var(--title-mid)"/><rect x="252" y="216" width="14" height="7" fill="var(--title-mid)"/><rect x="280" y="216" width="14" height="7" fill="var(--title-mid)"/><rect x="252" y="223" width="14" height="7" fill="var(--title-mid)"/><rect x="280" y="223" width="14" height="7" fill="var(--title-mid)"/><rect x="252" y="230" width="35" height="7" fill="var(--title-mid)"/><rect x="308" y="174" width="14" height="7" fill="var(--title-mid)"/><rect x="343" y="174" width="14" height="7" fill="var(--title-mid)"/><rect x="308" y="181" width="21" height="7" fill="var(--title-mid)"/><rect x="336" y="181" width="21" height="7" fill="var(--title-mid)"/><rect x="308" y="188" width="49" height="7" fill="var(--title-mid)"/><rect x="308" y="195" width="14" height="7" fill="var(--title-mid)"/><rect x="329" y="195" width="7" height="7" fill="var(--title-mid)"/><rect x="343" y="195" width="14" height="7" fill="var(--title-mid)"/><rect x="308" y="202" width="14" height="7" fill="var(--title-mid)"/><rect x="343" y="202" width="14" height="7" fill="var(--title-mid)"/><rect x="308" y="209" width="14" height="7" fill="var(--title-mid)"/><rect x="343" y="209" width="14" height="7" fill="var(--title-mid)"/><rect x="308" y="216" width="14" height="7" fill="var(--title-mid)"/><rect x="343" y="216" width="14" height="7" fill="var(--title-mid)"/><rect x="308" y="223" width="14" height="7" fill="var(--title-mid)"/><rect x="343" y="223" width="14" height="7" fill="var(--title-mid)"/><rect x="308" y="230" width="14" height="7" fill="var(--title-mid)"/><rect x="343" y="230" width="14" height="7" fill="var(--title-mid)"/><rect x="371" y="174" width="42" height="7" fill="var(--title-mid)"/><rect x="371" y="181" width="14" height="7" fill="var(--title-mid)"/><rect x="371" y="188" width="14" height="7" fill="var(--title-mid)"/><rect x="371" y="195" width="35" height="7" fill="var(--title-mid)"/><rect x="371" y="202" width="35" height="7" fill="var(--title-mid)"/><rect x="371" y="209" width="14" height="7" fill="var(--title-mid)"/><rect x="371" y="216" width="14" height="7" fill="var(--title-mid)"/><rect x="371" y="223" width="14" height="7" fill="var(--title-mid)"/><rect x="371" y="230" width="42" height="7" fill="var(--title-mid)"/><rect x="427" y="174" width="14" height="7" fill="var(--title-mid)"/><rect x="462" y="174" width="7" height="7" fill="var(--title-mid)"/><rect x="427" y="181" width="14" height="7" fill="var(--title-mid)"/><rect x="455" y="181" width="14" height="7" fill="var(--title-mid)"/><rect x="427" y="188" width="14" height="7" fill="var(--title-mid)"/><rect x="448" y="188" width="14" height="7" fill="var(--title-mid)"/><rect x="427" y="195" width="28" height="7" fill="var(--title-mid)"/><rect x="427" y="202" width="28" height="7" fill="var(--title-mid)"/><rect x="427" y="209" width="14" height="7" fill="var(--title-mid)"/><rect x="448" y="209" width="14" height="7" fill="var(--title-mid)"/><rect x="427" y="216" width="14" height="7" fill="var(--title-mid)"/><rect x="455" y="216" width="14" height="7" fill="var(--title-mid)"/><rect x="427" y="223" width="14" height="7" fill="var(--title-mid)"/><rect x="462" y="223" width="7" height="7" fill="var(--title-mid)"/><rect x="427" y="230" width="14" height="7" fill="var(--title-mid)"/><rect x="462" y="230" width="7" height="7" fill="var(--title-mid)"/><rect x="483" y="174" width="42" height="7" fill="var(--title-mid)"/><rect x="497" y="181" width="14" height="7" fill="var(--title-mid)"/><rect x="497" y="188" width="14" height="7" fill="var(--title-mid)"/><rect x="497" y="195" width="14" height="7" fill="var(--title-mid)"/><rect x="497" y="202" width="14" height="7" fill="var(--title-mid)"/><rect x="497" y="209" width="14" height="7" fill="var(--title-mid)"/><rect x="497" y="216" width="14" height="7" fill="var(--title-mid)"/><rect x="497" y="223" width="14" height="7" fill="var(--title-mid)"/><rect x="483" y="230" width="42" height="7" fill="var(--title-mid)"/><rect x="539" y="174" width="49" height="7" fill="var(--title-mid)"/><rect x="539" y="181" width="49" height="7" fill="var(--title-mid)"/><rect x="560" y="188" width="14" height="7" fill="var(--title-mid)"/><rect x="560" y="195" width="14" height="7" fill="var(--title-mid)"/><rect x="560" y="202" width="14" height="7" fill="var(--title-mid)"/><rect x="560" y="209" width="14" height="7" fill="var(--title-mid)"/><rect x="560" y="216" width="14" height="7" fill="var(--title-mid)"/><rect x="560" y="223" width="14" height="7" fill="var(--title-mid)"/><rect x="560" y="230" width="14" height="7" fill="var(--title-mid)"/>
  <!-- Front Face -->
  <rect x="80" y="170" width="35" height="7" fill="var(--title-front)"/><rect x="80" y="177" width="14" height="7" fill="var(--title-front)"/><rect x="108" y="177" width="14" height="7" fill="var(--title-front)"/><rect x="80" y="184" width="14" height="7" fill="var(--title-front)"/><rect x="108" y="184" width="14" height="7" fill="var(--title-front)"/><rect x="80" y="191" width="35" height="7" fill="var(--title-front)"/><rect x="80" y="198" width="35" height="7" fill="var(--title-front)"/><rect x="80" y="205" width="14" height="7" fill="var(--title-front)"/><rect x="101" y="205" width="14" height="7" fill="var(--title-front)"/><rect x="80" y="212" width="14" height="7" fill="var(--title-front)"/><rect x="108" y="212" width="14" height="7" fill="var(--title-front)"/><rect x="80" y="219" width="14" height="7" fill="var(--title-front)"/><rect x="108" y="219" width="14" height="7" fill="var(--title-front)"/><rect x="80" y="226" width="14" height="7" fill="var(--title-front)"/><rect x="115" y="226" width="7" height="7" fill="var(--title-front)"/><rect x="136" y="170" width="42" height="7" fill="var(--title-front)"/><rect x="136" y="177" width="14" height="7" fill="var(--title-front)"/><rect x="136" y="184" width="14" height="7" fill="var(--title-front)"/><rect x="136" y="191" width="35" height="7" fill="var(--title-front)"/><rect x="136" y="198" width="35" height="7" fill="var(--title-front)"/><rect x="136" y="205" width="14" height="7" fill="var(--title-front)"/><rect x="136" y="212" width="14" height="7" fill="var(--title-front)"/><rect x="136" y="219" width="14" height="7" fill="var(--title-front)"/><rect x="136" y="226" width="42" height="7" fill="var(--title-front)"/><rect x="199" y="170" width="28" height="7" fill="var(--title-front)"/><rect x="192" y="177" width="14" height="7" fill="var(--title-front)"/><rect x="220" y="177" width="14" height="7" fill="var(--title-front)"/><rect x="192" y="184" width="14" height="7" fill="var(--title-front)"/><rect x="220" y="184" width="14" height="7" fill="var(--title-front)"/><rect x="192" y="191" width="42" height="7" fill="var(--title-front)"/><rect x="192" y="198" width="42" height="7" fill="var(--title-front)"/><rect x="192" y="205" width="14" height="7" fill="var(--title-front)"/><rect x="220" y="205" width="14" height="7" fill="var(--title-front)"/><rect x="192" y="212" width="14" height="7" fill="var(--title-front)"/><rect x="220" y="212" width="14" height="7" fill="var(--title-front)"/><rect x="192" y="219" width="14" height="7" fill="var(--title-front)"/><rect x="220" y="219" width="14" height="7" fill="var(--title-front)"/><rect x="192" y="226" width="14" height="7" fill="var(--title-front)"/><rect x="220" y="226" width="14" height="7" fill="var(--title-front)"/><rect x="248" y="170" width="35" height="7" fill="var(--title-front)"/><rect x="248" y="177" width="14" height="7" fill="var(--title-front)"/><rect x="276" y="177" width="14" height="7" fill="var(--title-front)"/><rect x="248" y="184" width="14" height="7" fill="var(--title-front)"/><rect x="276" y="184" width="14" height="7" fill="var(--title-front)"/><rect x="248" y="191" width="14" height="7" fill="var(--title-front)"/><rect x="276" y="191" width="14" height="7" fill="var(--title-front)"/><rect x="248" y="198" width="14" height="7" fill="var(--title-front)"/><rect x="276" y="198" width="14" height="7" fill="var(--title-front)"/><rect x="248" y="205" width="14" height="7" fill="var(--title-front)"/><rect x="276" y="205" width="14" height="7" fill="var(--title-front)"/><rect x="248" y="212" width="14" height="7" fill="var(--title-front)"/><rect x="276" y="212" width="14" height="7" fill="var(--title-front)"/><rect x="248" y="219" width="14" height="7" fill="var(--title-front)"/><rect x="276" y="219" width="14" height="7" fill="var(--title-front)"/><rect x="248" y="226" width="35" height="7" fill="var(--title-front)"/><rect x="304" y="170" width="14" height="7" fill="var(--title-front)"/><rect x="339" y="170" width="14" height="7" fill="var(--title-front)"/><rect x="304" y="177" width="21" height="7" fill="var(--title-front)"/><rect x="332" y="177" width="21" height="7" fill="var(--title-front)"/><rect x="304" y="184" width="49" height="7" fill="var(--title-front)"/><rect x="304" y="191" width="14" height="7" fill="var(--title-front)"/><rect x="325" y="191" width="7" height="7" fill="var(--title-front)"/><rect x="339" y="191" width="14" height="7" fill="var(--title-front)"/><rect x="304" y="198" width="14" height="7" fill="var(--title-front)"/><rect x="339" y="198" width="14" height="7" fill="var(--title-front)"/><rect x="304" y="205" width="14" height="7" fill="var(--title-front)"/><rect x="339" y="205" width="14" height="7" fill="var(--title-front)"/><rect x="304" y="212" width="14" height="7" fill="var(--title-front)"/><rect x="339" y="212" width="14" height="7" fill="var(--title-front)"/><rect x="304" y="219" width="14" height="7" fill="var(--title-front)"/><rect x="339" y="219" width="14" height="7" fill="var(--title-front)"/><rect x="304" y="226" width="14" height="7" fill="var(--title-front)"/><rect x="339" y="226" width="14" height="7" fill="var(--title-front)"/><rect x="367" y="170" width="42" height="7" fill="var(--title-front)"/><rect x="367" y="177" width="14" height="7" fill="var(--title-front)"/><rect x="367" y="184" width="14" height="7" fill="var(--title-front)"/><rect x="367" y="191" width="35" height="7" fill="var(--title-front)"/><rect x="367" y="198" width="35" height="7" fill="var(--title-front)"/><rect x="367" y="205" width="14" height="7" fill="var(--title-front)"/><rect x="367" y="212" width="14" height="7" fill="var(--title-front)"/><rect x="367" y="219" width="14" height="7" fill="var(--title-front)"/><rect x="367" y="226" width="42" height="7" fill="var(--title-front)"/><rect x="423" y="170" width="14" height="7" fill="var(--title-front)"/><rect x="458" y="170" width="7" height="7" fill="var(--title-front)"/><rect x="423" y="177" width="14" height="7" fill="var(--title-front)"/><rect x="451" y="177" width="14" height="7" fill="var(--title-front)"/><rect x="423" y="184" width="14" height="7" fill="var(--title-front)"/><rect x="444" y="184" width="14" height="7" fill="var(--title-front)"/><rect x="423" y="191" width="28" height="7" fill="var(--title-front)"/><rect x="423" y="198" width="28" height="7" fill="var(--title-front)"/><rect x="423" y="205" width="14" height="7" fill="var(--title-front)"/><rect x="444" y="205" width="14" height="7" fill="var(--title-front)"/><rect x="423" y="212" width="14" height="7" fill="var(--title-front)"/><rect x="451" y="212" width="14" height="7" fill="var(--title-front)"/><rect x="423" y="219" width="14" height="7" fill="var(--title-front)"/><rect x="458" y="219" width="7" height="7" fill="var(--title-front)"/><rect x="423" y="226" width="14" height="7" fill="var(--title-front)"/><rect x="458" y="226" width="7" height="7" fill="var(--title-front)"/><rect x="479" y="170" width="42" height="7" fill="var(--title-front)"/><rect x="493" y="177" width="14" height="7" fill="var(--title-front)"/><rect x="493" y="184" width="14" height="7" fill="var(--title-front)"/><rect x="493" y="191" width="14" height="7" fill="var(--title-front)"/><rect x="493" y="198" width="14" height="7" fill="var(--title-front)"/><rect x="493" y="205" width="14" height="7" fill="var(--title-front)"/><rect x="493" y="212" width="14" height="7" fill="var(--title-front)"/><rect x="493" y="219" width="14" height="7" fill="var(--title-front)"/><rect x="479" y="226" width="42" height="7" fill="var(--title-front)"/><rect x="535" y="170" width="49" height="7" fill="var(--title-front)"/><rect x="535" y="177" width="49" height="7" fill="var(--title-front)"/><rect x="556" y="184" width="14" height="7" fill="var(--title-front)"/><rect x="556" y="191" width="14" height="7" fill="var(--title-front)"/><rect x="556" y="198" width="14" height="7" fill="var(--title-front)"/><rect x="556" y="205" width="14" height="7" fill="var(--title-front)"/><rect x="556" y="212" width="14" height="7" fill="var(--title-front)"/><rect x="556" y="219" width="14" height="7" fill="var(--title-front)"/><rect x="556" y="226" width="14" height="7" fill="var(--title-front)"/>
</g>

  <!-- SUBTITLE CALLOUT -->
  <rect x="80" y="265" width="443" height="42" fill="var(--bg-panel)" stroke="var(--accent)" stroke-width="1.5"/>
  <text x="100" y="292" fill="var(--text-main)" font-size="15" font-weight="bold" class="font-mono">▶ Universal Customization System for GitHub</text>

  <!-- TECH / FEATURE TAGS ROW -->
  
    <g transform="translate(80, 530)">
      <rect x="0" y="0" width="71" height="34" fill="var(--bg-panel)" stroke="var(--primary)" stroke-width="1.2"/>
      <rect x="0" y="0" width="4" height="34" fill="var(--primary)"/>
      <text x="37" y="22" fill="var(--accent)" font-size="12" font-weight="bold" text-anchor="middle" class="font-mono">PYTHON</text>
    </g>

    <g transform="translate(167, 530)">
      <rect x="0" y="0" width="49" height="34" fill="var(--bg-panel)" stroke="var(--primary)" stroke-width="1.2"/>
      <rect x="0" y="0" width="4" height="34" fill="var(--primary)"/>
      <text x="26" y="22" fill="var(--accent)" font-size="12" font-weight="bold" text-anchor="middle" class="font-mono">SVG</text>
    </g>

    <g transform="translate(232, 530)">
      <rect x="0" y="0" width="71" height="34" fill="var(--bg-panel)" stroke="var(--primary)" stroke-width="1.2"/>
      <rect x="0" y="0" width="4" height="34" fill="var(--primary)"/>
      <text x="37" y="22" fill="var(--accent)" font-size="12" font-weight="bold" text-anchor="middle" class="font-mono">STUDIO</text>
    </g>

    <g transform="translate(319, 530)">
      <rect x="0" y="0" width="71" height="34" fill="var(--bg-panel)" stroke="var(--primary)" stroke-width="1.2"/>
      <rect x="0" y="0" width="4" height="34" fill="var(--primary)"/>
      <text x="37" y="22" fill="var(--accent)" font-size="12" font-weight="bold" text-anchor="middle" class="font-mono">GITHUB</text>
    </g>


  <!-- RIGHT SIDE RETICLE -->
  
  <g transform="translate(1020, 320)">
    <rect x="-110" y="-110" width="220" height="220" fill="none" stroke="var(--border-chassis)" stroke-width="1.5"/>
    <rect x="-80" y="-80" width="160" height="160" fill="var(--bg-panel)" stroke="var(--primary)" stroke-width="1.5"/>
    <line x1="-110" y1="0" x2="110" y2="0" stroke="var(--accent)" stroke-width="2"/>
    <line x1="0" y1="-110" x2="0" y2="110" stroke="var(--accent)" stroke-width="2"/>
    <circle cx="0" cy="0" r="6" fill="var(--primary)"/>
  </g>


  <!-- WATERMARK -->
  <text x="770" y="600" fill="var(--text-dim)" font-size="12" font-weight="bold" text-anchor="end" class="font-mono">PIXEL-README-KIT // 1280x640 OPENGRAPH</text>
</svg>