<svg xmlns="http://www.w3.org/2000/svg" viewBox="0 0 850 190" width="100%" height="100%" shape-rendering="crispEdges">
  <defs>
    <style>
      
      :root {
        --bg-glass: rgba(20, 14, 6, 0.88);
        --bg-panel: rgba(30, 22, 10, 0.82);
        --border-chassis: rgba(50, 36, 16, 0.85);
        --primary: #F59E0B;
        --accent: #EF4444;
        --tertiary: #EF4444;
        --title-front: #F59E0B;
        --title-mid: #6e4704;
        --title-dark: #241701;
        --text-main: #FFFBEB;
        --text-dim: #D97706;
        --status: #10B981;
        --warning: #F59E0B;
        --grid-op: 0.08;
      }
      @media (prefers-color-scheme: dark) {
        :root {
          --bg-glass: rgba(20, 14, 6, 0.88);
          --bg-panel: rgba(30, 22, 10, 0.82);
          --border-chassis: rgba(50, 36, 16, 0.85);
          --primary: #F59E0B;
          --accent: #EF4444;
          --tertiary: #EF4444;
          --title-front: #F59E0B;
          --title-mid: #6e4704;
          --title-dark: #241701;
          --text-main: #FFFBEB;
          --text-dim: #D97706;
          --status: #10B981;
          --warning: #F59E0B;
          --grid-op: 0.08;
        }
      }
      @media (prefers-color-scheme: light) {
        :root {
          --bg-glass: #FFFBEB;
          --bg-panel: #FEF3C7;
          --border-chassis: #FDE68A;
          --primary: #ab6e07;
          --accent: #EF4444;
          --tertiary: #EF4444;
          --title-front: #ab6e07;
          --title-mid: #664204;
          --title-dark: #332102;
          --text-main: #1F2937;
          --text-dim: #6B7280;
          --status: #10B981;
          --warning: #ab6e07;
          --grid-op: 0.10;
        }
      }
      @media (hover: hover) {
        .btn-hover:hover, a:hover polygon, a:hover rect {
          filter: drop-shadow(0 0 6px var(--primary, #F59E0B));
          cursor: pointer;
          transition: filter 0.2s ease;
        }
      }

      .font-mono { font-family: 'JetBrains Mono', 'Fira Code', 'Courier New', monospace; }
    </style>
  </defs>

  
  <!-- TACTICAL ARMORED CHASSIS -->
  <polygon points="16 1, 834 1, 849 16, 849 174, 834 189, 16 189, 1 174, 1 16"
           fill="var(--bg-glass)" stroke="var(--border-chassis)" stroke-width="1.8"/>
  <rect x="1" y="16" width="4" height="24" fill="var(--primary)"/>
  <rect x="845" y="150" width="4" height="24" fill="var(--accent)"/>
  <!-- Reticle Crosshair Marks -->
  <line x1="20" y1="10" x2="28" y2="10" stroke="var(--primary)" stroke-width="1.5"/>
  <line x1="24" y1="6" x2="24" y2="14" stroke="var(--primary)" stroke-width="1.5"/>
  <line x1="822" y1="10" x2="830" y2="10" stroke="var(--accent)" stroke-width="1.5"/>
  <line x1="826" y1="6" x2="826" y2="14" stroke="var(--accent)" stroke-width="1.5"/>
  <!-- Telemetry Grate (Bottom Right) -->
  <rect x="770" y="178" width="3" height="6" fill="var(--accent)"/>
  <rect x="777" y="178" width="3" height="6" fill="var(--accent)"/>
  <rect x="784" y="178" width="3" height="6" fill="var(--accent)"/>
  <rect x="791" y="178" width="3" height="6" fill="var(--accent)"/>
  <text x="24" y="182" fill="var(--text-dim)" font-size="8.5" class="font-mono">MIL-STD-810 // HUD_TELEMETRY // SYS_ID:0x884F</text>


  
  <!-- TACTICAL AVATAR & RANGEFINDER RETICLE -->
  <g transform="translate(28, 28)">
    <polygon points="10 0, 124 0, 134 10, 134 124, 124 134, 10 134, 0 124, 0 10"
             fill="var(--bg-panel)" stroke="var(--border-chassis)" stroke-width="1.8"/>
    <!-- Azimuth Rangefinder Ring -->
    <circle cx="67" cy="54" r="38" fill="none" stroke="var(--primary)" stroke-width="1.2" stroke-dasharray="3 4"/>
    <circle cx="67" cy="54" r="46" fill="none" stroke="var(--border-chassis)" stroke-width="0.8"/>
    <!-- Reticle Crosshair Ticks -->
    <line x1="67" y1="10" x2="67" y2="22" stroke="var(--accent)" stroke-width="1.5"/>
    <line x1="67" y1="86" x2="67" y2="98" stroke="var(--accent)" stroke-width="1.5"/>
    <line x1="14" y1="54" x2="26" y2="54" stroke="var(--accent)" stroke-width="1.5"/>
    <line x1="108" y1="54" x2="120" y2="54" stroke="var(--accent)" stroke-width="1.5"/>
    <!-- Operator Silhouette -->
    <circle cx="67" cy="50" r="16" fill="var(--bg-glass)" stroke="var(--primary)" stroke-width="2"/>
    <path d="M 32 94 L 46 78 L 88 78 L 102 94 Z" fill="var(--bg-glass)" stroke="var(--primary)" stroke-width="2"/>
    <circle cx="67" cy="50" r="6" fill="var(--accent)"/>
    <!-- Tactical Readiness Status Bar -->
    <rect x="8" y="110" width="118" height="16" fill="var(--bg-glass)" stroke="var(--accent)" stroke-width="1"/>
    <text x="67" y="122" fill="var(--accent)" font-size="8.5" font-weight="bold" text-anchor="middle" class="font-mono">HUD // ACTIVE</text>
  </g>


  <!-- TOP BREADCRUMB -->
  <rect x="180" y="24" width="212" height="24" fill="var(--bg-panel)" stroke="var(--border-chassis)" stroke-width="1"/>
  <text x="192" y="40" fill="var(--primary)" font-size="11" font-weight="bold" class="font-mono">■ TAC_ID // REMOTE // UTC+3</text>

  <!-- BADGE AND STATUS PILLS (TOP RIGHT) -->
  <g transform="translate(610, 24)">
    <rect x="0" y="0" width="71" height="24" fill="var(--bg-panel)" stroke="var(--accent)" stroke-width="1"/>
    <text x="35" y="16" fill="var(--accent)" font-size="10.5" font-weight="bold" text-anchor="middle" class="font-mono">LEVEL_99</text>
    <rect x="79" y="0" width="141" height="24" fill="var(--bg-panel)" stroke="var(--status)" stroke-width="1"/>
    <circle cx="91" y="12" r="3" fill="var(--status)"/>
    <text x="155" y="16" fill="var(--status)" font-size="10" font-weight="bold" text-anchor="middle" class="font-mono">AVAILABLE FOR HIRE</text>
  </g>

  <!-- NAME TYPOGRAPHY -->
  <g class="pixel-text-3d">
  <!-- Shadow Dark -->
  <rect x="191" y="64" width="20" height="5" fill="var(--title-dark)"/><rect x="186" y="69" width="10" height="5" fill="var(--title-dark)"/><rect x="206" y="69" width="10" height="5" fill="var(--title-dark)"/><rect x="186" y="74" width="10" height="5" fill="var(--title-dark)"/><rect x="206" y="74" width="10" height="5" fill="var(--title-dark)"/><rect x="186" y="79" width="30" height="5" fill="var(--title-dark)"/><rect x="186" y="84" width="30" height="5" fill="var(--title-dark)"/><rect x="186" y="89" width="10" height="5" fill="var(--title-dark)"/><rect x="206" y="89" width="10" height="5" fill="var(--title-dark)"/><rect x="186" y="94" width="10" height="5" fill="var(--title-dark)"/><rect x="206" y="94" width="10" height="5" fill="var(--title-dark)"/><rect x="186" y="99" width="10" height="5" fill="var(--title-dark)"/><rect x="206" y="99" width="10" height="5" fill="var(--title-dark)"/><rect x="186" y="104" width="10" height="5" fill="var(--title-dark)"/><rect x="206" y="104" width="10" height="5" fill="var(--title-dark)"/><rect x="226" y="64" width="10" height="5" fill="var(--title-dark)"/><rect x="226" y="69" width="10" height="5" fill="var(--title-dark)"/><rect x="226" y="74" width="10" height="5" fill="var(--title-dark)"/><rect x="226" y="79" width="10" height="5" fill="var(--title-dark)"/><rect x="226" y="84" width="10" height="5" fill="var(--title-dark)"/><rect x="226" y="89" width="10" height="5" fill="var(--title-dark)"/><rect x="226" y="94" width="10" height="5" fill="var(--title-dark)"/><rect x="226" y="99" width="10" height="5" fill="var(--title-dark)"/><rect x="226" y="104" width="30" height="5" fill="var(--title-dark)"/><rect x="266" y="64" width="30" height="5" fill="var(--title-dark)"/><rect x="266" y="69" width="10" height="5" fill="var(--title-dark)"/><rect x="266" y="74" width="10" height="5" fill="var(--title-dark)"/><rect x="266" y="79" width="25" height="5" fill="var(--title-dark)"/><rect x="266" y="84" width="25" height="5" fill="var(--title-dark)"/><rect x="266" y="89" width="10" height="5" fill="var(--title-dark)"/><rect x="266" y="94" width="10" height="5" fill="var(--title-dark)"/><rect x="266" y="99" width="10" height="5" fill="var(--title-dark)"/><rect x="266" y="104" width="30" height="5" fill="var(--title-dark)"/><rect x="306" y="64" width="10" height="5" fill="var(--title-dark)"/><rect x="326" y="64" width="10" height="5" fill="var(--title-dark)"/><rect x="306" y="69" width="10" height="5" fill="var(--title-dark)"/><rect x="326" y="69" width="10" height="5" fill="var(--title-dark)"/><rect x="311" y="74" width="20" height="5" fill="var(--title-dark)"/><rect x="316" y="79" width="10" height="5" fill="var(--title-dark)"/><rect x="316" y="84" width="10" height="5" fill="var(--title-dark)"/><rect x="311" y="89" width="20" height="5" fill="var(--title-dark)"/><rect x="306" y="94" width="10" height="5" fill="var(--title-dark)"/><rect x="326" y="94" width="10" height="5" fill="var(--title-dark)"/><rect x="306" y="99" width="10" height="5" fill="var(--title-dark)"/><rect x="326" y="99" width="10" height="5" fill="var(--title-dark)"/><rect x="306" y="104" width="10" height="5" fill="var(--title-dark)"/><rect x="326" y="104" width="10" height="5" fill="var(--title-dark)"/><rect x="386" y="64" width="25" height="5" fill="var(--title-dark)"/><rect x="386" y="69" width="10" height="5" fill="var(--title-dark)"/><rect x="406" y="69" width="10" height="5" fill="var(--title-dark)"/><rect x="386" y="74" width="10" height="5" fill="var(--title-dark)"/><rect x="406" y="74" width="10" height="5" fill="var(--title-dark)"/><rect x="386" y="79" width="10" height="5" fill="var(--title-dark)"/><rect x="406" y="79" width="10" height="5" fill="var(--title-dark)"/><rect x="386" y="84" width="10" height="5" fill="var(--title-dark)"/><rect x="406" y="84" width="10" height="5" fill="var(--title-dark)"/><rect x="386" y="89" width="10" height="5" fill="var(--title-dark)"/><rect x="406" y="89" width="10" height="5" fill="var(--title-dark)"/><rect x="386" y="94" width="10" height="5" fill="var(--title-dark)"/><rect x="406" y="94" width="10" height="5" fill="var(--title-dark)"/><rect x="386" y="99" width="10" height="5" fill="var(--title-dark)"/><rect x="406" y="99" width="10" height="5" fill="var(--title-dark)"/><rect x="386" y="104" width="25" height="5" fill="var(--title-dark)"/><rect x="426" y="64" width="30" height="5" fill="var(--title-dark)"/><rect x="426" y="69" width="10" height="5" fill="var(--title-dark)"/><rect x="426" y="74" width="10" height="5" fill="var(--title-dark)"/><rect x="426" y="79" width="25" height="5" fill="var(--title-dark)"/><rect x="426" y="84" width="25" height="5" fill="var(--title-dark)"/><rect x="426" y="89" width="10" height="5" fill="var(--title-dark)"/><rect x="426" y="94" width="10" height="5" fill="var(--title-dark)"/><rect x="426" y="99" width="10" height="5" fill="var(--title-dark)"/><rect x="426" y="104" width="30" height="5" fill="var(--title-dark)"/><rect x="466" y="64" width="10" height="5" fill="var(--title-dark)"/><rect x="486" y="64" width="10" height="5" fill="var(--title-dark)"/><rect x="466" y="69" width="10" height="5" fill="var(--title-dark)"/><rect x="486" y="69" width="10" height="5" fill="var(--title-dark)"/><rect x="466" y="74" width="10" height="5" fill="var(--title-dark)"/><rect x="486" y="74" width="10" height="5" fill="var(--title-dark)"/><rect x="466" y="79" width="10" height="5" fill="var(--title-dark)"/><rect x="486" y="79" width="10" height="5" fill="var(--title-dark)"/><rect x="466" y="84" width="10" height="5" fill="var(--title-dark)"/><rect x="486" y="84" width="10" height="5" fill="var(--title-dark)"/><rect x="471" y="89" width="20" height="5" fill="var(--title-dark)"/><rect x="471" y="94" width="20" height="5" fill="var(--title-dark)"/><rect x="476" y="99" width="10" height="5" fill="var(--title-dark)"/><rect x="476" y="104" width="10" height="5" fill="var(--title-dark)"/><rect x="506" y="64" width="30" height="5" fill="var(--title-dark)"/><rect x="506" y="69" width="10" height="5" fill="var(--title-dark)"/><rect x="506" y="74" width="10" height="5" fill="var(--title-dark)"/><rect x="506" y="79" width="25" height="5" fill="var(--title-dark)"/><rect x="506" y="84" width="25" height="5" fill="var(--title-dark)"/><rect x="506" y="89" width="10" height="5" fill="var(--title-dark)"/><rect x="506" y="94" width="10" height="5" fill="var(--title-dark)"/><rect x="506" y="99" width="10" height="5" fill="var(--title-dark)"/><rect x="506" y="104" width="30" height="5" fill="var(--title-dark)"/><rect x="546" y="64" width="10" height="5" fill="var(--title-dark)"/><rect x="546" y="69" width="10" height="5" fill="var(--title-dark)"/><rect x="546" y="74" width="10" height="5" fill="var(--title-dark)"/><rect x="546" y="79" width="10" height="5" fill="var(--title-dark)"/><rect x="546" y="84" width="10" height="5" fill="var(--title-dark)"/><rect x="546" y="89" width="10" height="5" fill="var(--title-dark)"/><rect x="546" y="94" width="10" height="5" fill="var(--title-dark)"/><rect x="546" y="99" width="10" height="5" fill="var(--title-dark)"/><rect x="546" y="104" width="30" height="5" fill="var(--title-dark)"/><rect x="591" y="64" width="20" height="5" fill="var(--title-dark)"/><rect x="586" y="69" width="10" height="5" fill="var(--title-dark)"/><rect x="606" y="69" width="10" height="5" fill="var(--title-dark)"/><rect x="586" y="74" width="10" height="5" fill="var(--title-dark)"/><rect x="606" y="74" width="10" height="5" fill="var(--title-dark)"/><rect x="586" y="79" width="10" height="5" fill="var(--title-dark)"/><rect x="606" y="79" width="10" height="5" fill="var(--title-dark)"/><rect x="586" y="84" width="10" height="5" fill="var(--title-dark)"/><rect x="606" y="84" width="10" height="5" fill="var(--title-dark)"/><rect x="586" y="89" width="10" height="5" fill="var(--title-dark)"/><rect x="606" y="89" width="10" height="5" fill="var(--title-dark)"/><rect x="586" y="94" width="10" height="5" fill="var(--title-dark)"/><rect x="606" y="94" width="10" height="5" fill="var(--title-dark)"/><rect x="586" y="99" width="10" height="5" fill="var(--title-dark)"/><rect x="606" y="99" width="10" height="5" fill="var(--title-dark)"/><rect x="591" y="104" width="20" height="5" fill="var(--title-dark)"/><rect x="626" y="64" width="25" height="5" fill="var(--title-dark)"/><rect x="626" y="69" width="10" height="5" fill="var(--title-dark)"/><rect x="646" y="69" width="10" height="5" fill="var(--title-dark)"/><rect x="626" y="74" width="10" height="5" fill="var(--title-dark)"/><rect x="646" y="74" width="10" height="5" fill="var(--title-dark)"/><rect x="626" y="79" width="25" height="5" fill="var(--title-dark)"/><rect x="626" y="84" width="25" height="5" fill="var(--title-dark)"/><rect x="626" y="89" width="10" height="5" fill="var(--title-dark)"/><rect x="626" y="94" width="10" height="5" fill="var(--title-dark)"/><rect x="626" y="99" width="10" height="5" fill="var(--title-dark)"/><rect x="626" y="104" width="10" height="5" fill="var(--title-dark)"/><rect x="666" y="64" width="30" height="5" fill="var(--title-dark)"/><rect x="666" y="69" width="10" height="5" fill="var(--title-dark)"/><rect x="666" y="74" width="10" height="5" fill="var(--title-dark)"/><rect x="666" y="79" width="25" height="5" fill="var(--title-dark)"/><rect x="666" y="84" width="25" height="5" fill="var(--title-dark)"/><rect x="666" y="89" width="10" height="5" fill="var(--title-dark)"/><rect x="666" y="94" width="10" height="5" fill="var(--title-dark)"/><rect x="666" y="99" width="10" height="5" fill="var(--title-dark)"/><rect x="666" y="104" width="30" height="5" fill="var(--title-dark)"/><rect x="706" y="64" width="25" height="5" fill="var(--title-dark)"/><rect x="706" y="69" width="10" height="5" fill="var(--title-dark)"/><rect x="726" y="69" width="10" height="5" fill="var(--title-dark)"/><rect x="706" y="74" width="10" height="5" fill="var(--title-dark)"/><rect x="726" y="74" width="10" height="5" fill="var(--title-dark)"/><rect x="706" y="79" width="25" height="5" fill="var(--title-dark)"/><rect x="706" y="84" width="25" height="5" fill="var(--title-dark)"/><rect x="706" y="89" width="10" height="5" fill="var(--title-dark)"/><rect x="721" y="89" width="10" height="5" fill="var(--title-dark)"/><rect x="706" y="94" width="10" height="5" fill="var(--title-dark)"/><rect x="726" y="94" width="10" height="5" fill="var(--title-dark)"/><rect x="706" y="99" width="10" height="5" fill="var(--title-dark)"/><rect x="726" y="99" width="10" height="5" fill="var(--title-dark)"/><rect x="706" y="104" width="10" height="5" fill="var(--title-dark)"/><rect x="731" y="104" width="5" height="5" fill="var(--title-dark)"/>
  <!-- Shadow Mid -->
  <rect x="188" y="61" width="20" height="5" fill="var(--title-mid)"/><rect x="183" y="66" width="10" height="5" fill="var(--title-mid)"/><rect x="203" y="66" width="10" height="5" fill="var(--title-mid)"/><rect x="183" y="71" width="10" height="5" fill="var(--title-mid)"/><rect x="203" y="71" width="10" height="5" fill="var(--title-mid)"/><rect x="183" y="76" width="30" height="5" fill="var(--title-mid)"/><rect x="183" y="81" width="30" height="5" fill="var(--title-mid)"/><rect x="183" y="86" width="10" height="5" fill="var(--title-mid)"/><rect x="203" y="86" width="10" height="5" fill="var(--title-mid)"/><rect x="183" y="91" width="10" height="5" fill="var(--title-mid)"/><rect x="203" y="91" width="10" height="5" fill="var(--title-mid)"/><rect x="183" y="96" width="10" height="5" fill="var(--title-mid)"/><rect x="203" y="96" width="10" height="5" fill="var(--title-mid)"/><rect x="183" y="101" width="10" height="5" fill="var(--title-mid)"/><rect x="203" y="101" width="10" height="5" fill="var(--title-mid)"/><rect x="223" y="61" width="10" height="5" fill="var(--title-mid)"/><rect x="223" y="66" width="10" height="5" fill="var(--title-mid)"/><rect x="223" y="71" width="10" height="5" fill="var(--title-mid)"/><rect x="223" y="76" width="10" height="5" fill="var(--title-mid)"/><rect x="223" y="81" width="10" height="5" fill="var(--title-mid)"/><rect x="223" y="86" width="10" height="5" fill="var(--title-mid)"/><rect x="223" y="91" width="10" height="5" fill="var(--title-mid)"/><rect x="223" y="96" width="10" height="5" fill="var(--title-mid)"/><rect x="223" y="101" width="30" height="5" fill="var(--title-mid)"/><rect x="263" y="61" width="30" height="5" fill="var(--title-mid)"/><rect x="263" y="66" width="10" height="5" fill="var(--title-mid)"/><rect x="263" y="71" width="10" height="5" fill="var(--title-mid)"/><rect x="263" y="76" width="25" height="5" fill="var(--title-mid)"/><rect x="263" y="81" width="25" height="5" fill="var(--title-mid)"/><rect x="263" y="86" width="10" height="5" fill="var(--title-mid)"/><rect x="263" y="91" width="10" height="5" fill="var(--title-mid)"/><rect x="263" y="96" width="10" height="5" fill="var(--title-mid)"/><rect x="263" y="101" width="30" height="5" fill="var(--title-mid)"/><rect x="303" y="61" width="10" height="5" fill="var(--title-mid)"/><rect x="323" y="61" width="10" height="5" fill="var(--title-mid)"/><rect x="303" y="66" width="10" height="5" fill="var(--title-mid)"/><rect x="323" y="66" width="10" height="5" fill="var(--title-mid)"/><rect x="308" y="71" width="20" height="5" fill="var(--title-mid)"/><rect x="313" y="76" width="10" height="5" fill="var(--title-mid)"/><rect x="313" y="81" width="10" height="5" fill="var(--title-mid)"/><rect x="308" y="86" width="20" height="5" fill="var(--title-mid)"/><rect x="303" y="91" width="10" height="5" fill="var(--title-mid)"/><rect x="323" y="91" width="10" height="5" fill="var(--title-mid)"/><rect x="303" y="96" width="10" height="5" fill="var(--title-mid)"/><rect x="323" y="96" width="10" height="5" fill="var(--title-mid)"/><rect x="303" y="101" width="10" height="5" fill="var(--title-mid)"/><rect x="323" y="101" width="10" height="5" fill="var(--title-mid)"/><rect x="383" y="61" width="25" height="5" fill="var(--title-mid)"/><rect x="383" y="66" width="10" height="5" fill="var(--title-mid)"/><rect x="403" y="66" width="10" height="5" fill="var(--title-mid)"/><rect x="383" y="71" width="10" height="5" fill="var(--title-mid)"/><rect x="403" y="71" width="10" height="5" fill="var(--title-mid)"/><rect x="383" y="76" width="10" height="5" fill="var(--title-mid)"/><rect x="403" y="76" width="10" height="5" fill="var(--title-mid)"/><rect x="383" y="81" width="10" height="5" fill="var(--title-mid)"/><rect x="403" y="81" width="10" height="5" fill="var(--title-mid)"/><rect x="383" y="86" width="10" height="5" fill="var(--title-mid)"/><rect x="403" y="86" width="10" height="5" fill="var(--title-mid)"/><rect x="383" y="91" width="10" height="5" fill="var(--title-mid)"/><rect x="403" y="91" width="10" height="5" fill="var(--title-mid)"/><rect x="383" y="96" width="10" height="5" fill="var(--title-mid)"/><rect x="403" y="96" width="10" height="5" fill="var(--title-mid)"/><rect x="383" y="101" width="25" height="5" fill="var(--title-mid)"/><rect x="423" y="61" width="30" height="5" fill="var(--title-mid)"/><rect x="423" y="66" width="10" height="5" fill="var(--title-mid)"/><rect x="423" y="71" width="10" height="5" fill="var(--title-mid)"/><rect x="423" y="76" width="25" height="5" fill="var(--title-mid)"/><rect x="423" y="81" width="25" height="5" fill="var(--title-mid)"/><rect x="423" y="86" width="10" height="5" fill="var(--title-mid)"/><rect x="423" y="91" width="10" height="5" fill="var(--title-mid)"/><rect x="423" y="96" width="10" height="5" fill="var(--title-mid)"/><rect x="423" y="101" width="30" height="5" fill="var(--title-mid)"/><rect x="463" y="61" width="10" height="5" fill="var(--title-mid)"/><rect x="483" y="61" width="10" height="5" fill="var(--title-mid)"/><rect x="463" y="66" width="10" height="5" fill="var(--title-mid)"/><rect x="483" y="66" width="10" height="5" fill="var(--title-mid)"/><rect x="463" y="71" width="10" height="5" fill="var(--title-mid)"/><rect x="483" y="71" width="10" height="5" fill="var(--title-mid)"/><rect x="463" y="76" width="10" height="5" fill="var(--title-mid)"/><rect x="483" y="76" width="10" height="5" fill="var(--title-mid)"/><rect x="463" y="81" width="10" height="5" fill="var(--title-mid)"/><rect x="483" y="81" width="10" height="5" fill="var(--title-mid)"/><rect x="468" y="86" width="20" height="5" fill="var(--title-mid)"/><rect x="468" y="91" width="20" height="5" fill="var(--title-mid)"/><rect x="473" y="96" width="10" height="5" fill="var(--title-mid)"/><rect x="473" y="101" width="10" height="5" fill="var(--title-mid)"/><rect x="503" y="61" width="30" height="5" fill="var(--title-mid)"/><rect x="503" y="66" width="10" height="5" fill="var(--title-mid)"/><rect x="503" y="71" width="10" height="5" fill="var(--title-mid)"/><rect x="503" y="76" width="25" height="5" fill="var(--title-mid)"/><rect x="503" y="81" width="25" height="5" fill="var(--title-mid)"/><rect x="503" y="86" width="10" height="5" fill="var(--title-mid)"/><rect x="503" y="91" width="10" height="5" fill="var(--title-mid)"/><rect x="503" y="96" width="10" height="5" fill="var(--title-mid)"/><rect x="503" y="101" width="30" height="5" fill="var(--title-mid)"/><rect x="543" y="61" width="10" height="5" fill="var(--title-mid)"/><rect x="543" y="66" width="10" height="5" fill="var(--title-mid)"/><rect x="543" y="71" width="10" height="5" fill="var(--title-mid)"/><rect x="543" y="76" width="10" height="5" fill="var(--title-mid)"/><rect x="543" y="81" width="10" height="5" fill="var(--title-mid)"/><rect x="543" y="86" width="10" height="5" fill="var(--title-mid)"/><rect x="543" y="91" width="10" height="5" fill="var(--title-mid)"/><rect x="543" y="96" width="10" height="5" fill="var(--title-mid)"/><rect x="543" y="101" width="30" height="5" fill="var(--title-mid)"/><rect x="588" y="61" width="20" height="5" fill="var(--title-mid)"/><rect x="583" y="66" width="10" height="5" fill="var(--title-mid)"/><rect x="603" y="66" width="10" height="5" fill="var(--title-mid)"/><rect x="583" y="71" width="10" height="5" fill="var(--title-mid)"/><rect x="603" y="71" width="10" height="5" fill="var(--title-mid)"/><rect x="583" y="76" width="10" height="5" fill="var(--title-mid)"/><rect x="603" y="76" width="10" height="5" fill="var(--title-mid)"/><rect x="583" y="81" width="10" height="5" fill="var(--title-mid)"/><rect x="603" y="81" width="10" height="5" fill="var(--title-mid)"/><rect x="583" y="86" width="10" height="5" fill="var(--title-mid)"/><rect x="603" y="86" width="10" height="5" fill="var(--title-mid)"/><rect x="583" y="91" width="10" height="5" fill="var(--title-mid)"/><rect x="603" y="91" width="10" height="5" fill="var(--title-mid)"/><rect x="583" y="96" width="10" height="5" fill="var(--title-mid)"/><rect x="603" y="96" width="10" height="5" fill="var(--title-mid)"/><rect x="588" y="101" width="20" height="5" fill="var(--title-mid)"/><rect x="623" y="61" width="25" height="5" fill="var(--title-mid)"/><rect x="623" y="66" width="10" height="5" fill="var(--title-mid)"/><rect x="643" y="66" width="10" height="5" fill="var(--title-mid)"/><rect x="623" y="71" width="10" height="5" fill="var(--title-mid)"/><rect x="643" y="71" width="10" height="5" fill="var(--title-mid)"/><rect x="623" y="76" width="25" height="5" fill="var(--title-mid)"/><rect x="623" y="81" width="25" height="5" fill="var(--title-mid)"/><rect x="623" y="86" width="10" height="5" fill="var(--title-mid)"/><rect x="623" y="91" width="10" height="5" fill="var(--title-mid)"/><rect x="623" y="96" width="10" height="5" fill="var(--title-mid)"/><rect x="623" y="101" width="10" height="5" fill="var(--title-mid)"/><rect x="663" y="61" width="30" height="5" fill="var(--title-mid)"/><rect x="663" y="66" width="10" height="5" fill="var(--title-mid)"/><rect x="663" y="71" width="10" height="5" fill="var(--title-mid)"/><rect x="663" y="76" width="25" height="5" fill="var(--title-mid)"/><rect x="663" y="81" width="25" height="5" fill="var(--title-mid)"/><rect x="663" y="86" width="10" height="5" fill="var(--title-mid)"/><rect x="663" y="91" width="10" height="5" fill="var(--title-mid)"/><rect x="663" y="96" width="10" height="5" fill="var(--title-mid)"/><rect x="663" y="101" width="30" height="5" fill="var(--title-mid)"/><rect x="703" y="61" width="25" height="5" fill="var(--title-mid)"/><rect x="703" y="66" width="10" height="5" fill="var(--title-mid)"/><rect x="723" y="66" width="10" height="5" fill="var(--title-mid)"/><rect x="703" y="71" width="10" height="5" fill="var(--title-mid)"/><rect x="723" y="71" width="10" height="5" fill="var(--title-mid)"/><rect x="703" y="76" width="25" height="5" fill="var(--title-mid)"/><rect x="703" y="81" width="25" height="5" fill="var(--title-mid)"/><rect x="703" y="86" width="10" height="5" fill="var(--title-mid)"/><rect x="718" y="86" width="10" height="5" fill="var(--title-mid)"/><rect x="703" y="91" width="10" height="5" fill="var(--title-mid)"/><rect x="723" y="91" width="10" height="5" fill="var(--title-mid)"/><rect x="703" y="96" width="10" height="5" fill="var(--title-mid)"/><rect x="723" y="96" width="10" height="5" fill="var(--title-mid)"/><rect x="703" y="101" width="10" height="5" fill="var(--title-mid)"/><rect x="728" y="101" width="5" height="5" fill="var(--title-mid)"/>
  <!-- Front Face -->
  <rect x="185" y="58" width="20" height="5" fill="var(--title-front)"/><rect x="180" y="63" width="10" height="5" fill="var(--title-front)"/><rect x="200" y="63" width="10" height="5" fill="var(--title-front)"/><rect x="180" y="68" width="10" height="5" fill="var(--title-front)"/><rect x="200" y="68" width="10" height="5" fill="var(--title-front)"/><rect x="180" y="73" width="30" height="5" fill="var(--title-front)"/><rect x="180" y="78" width="30" height="5" fill="var(--title-front)"/><rect x="180" y="83" width="10" height="5" fill="var(--title-front)"/><rect x="200" y="83" width="10" height="5" fill="var(--title-front)"/><rect x="180" y="88" width="10" height="5" fill="var(--title-front)"/><rect x="200" y="88" width="10" height="5" fill="var(--title-front)"/><rect x="180" y="93" width="10" height="5" fill="var(--title-front)"/><rect x="200" y="93" width="10" height="5" fill="var(--title-front)"/><rect x="180" y="98" width="10" height="5" fill="var(--title-front)"/><rect x="200" y="98" width="10" height="5" fill="var(--title-front)"/><rect x="220" y="58" width="10" height="5" fill="var(--title-front)"/><rect x="220" y="63" width="10" height="5" fill="var(--title-front)"/><rect x="220" y="68" width="10" height="5" fill="var(--title-front)"/><rect x="220" y="73" width="10" height="5" fill="var(--title-front)"/><rect x="220" y="78" width="10" height="5" fill="var(--title-front)"/><rect x="220" y="83" width="10" height="5" fill="var(--title-front)"/><rect x="220" y="88" width="10" height="5" fill="var(--title-front)"/><rect x="220" y="93" width="10" height="5" fill="var(--title-front)"/><rect x="220" y="98" width="30" height="5" fill="var(--title-front)"/><rect x="260" y="58" width="30" height="5" fill="var(--title-front)"/><rect x="260" y="63" width="10" height="5" fill="var(--title-front)"/><rect x="260" y="68" width="10" height="5" fill="var(--title-front)"/><rect x="260" y="73" width="25" height="5" fill="var(--title-front)"/><rect x="260" y="78" width="25" height="5" fill="var(--title-front)"/><rect x="260" y="83" width="10" height="5" fill="var(--title-front)"/><rect x="260" y="88" width="10" height="5" fill="var(--title-front)"/><rect x="260" y="93" width="10" height="5" fill="var(--title-front)"/><rect x="260" y="98" width="30" height="5" fill="var(--title-front)"/><rect x="300" y="58" width="10" height="5" fill="var(--title-front)"/><rect x="320" y="58" width="10" height="5" fill="var(--title-front)"/><rect x="300" y="63" width="10" height="5" fill="var(--title-front)"/><rect x="320" y="63" width="10" height="5" fill="var(--title-front)"/><rect x="305" y="68" width="20" height="5" fill="var(--title-front)"/><rect x="310" y="73" width="10" height="5" fill="var(--title-front)"/><rect x="310" y="78" width="10" height="5" fill="var(--title-front)"/><rect x="305" y="83" width="20" height="5" fill="var(--title-front)"/><rect x="300" y="88" width="10" height="5" fill="var(--title-front)"/><rect x="320" y="88" width="10" height="5" fill="var(--title-front)"/><rect x="300" y="93" width="10" height="5" fill="var(--title-front)"/><rect x="320" y="93" width="10" height="5" fill="var(--title-front)"/><rect x="300" y="98" width="10" height="5" fill="var(--title-front)"/><rect x="320" y="98" width="10" height="5" fill="var(--title-front)"/><rect x="380" y="58" width="25" height="5" fill="var(--title-front)"/><rect x="380" y="63" width="10" height="5" fill="var(--title-front)"/><rect x="400" y="63" width="10" height="5" fill="var(--title-front)"/><rect x="380" y="68" width="10" height="5" fill="var(--title-front)"/><rect x="400" y="68" width="10" height="5" fill="var(--title-front)"/><rect x="380" y="73" width="10" height="5" fill="var(--title-front)"/><rect x="400" y="73" width="10" height="5" fill="var(--title-front)"/><rect x="380" y="78" width="10" height="5" fill="var(--title-front)"/><rect x="400" y="78" width="10" height="5" fill="var(--title-front)"/><rect x="380" y="83" width="10" height="5" fill="var(--title-front)"/><rect x="400" y="83" width="10" height="5" fill="var(--title-front)"/><rect x="380" y="88" width="10" height="5" fill="var(--title-front)"/><rect x="400" y="88" width="10" height="5" fill="var(--title-front)"/><rect x="380" y="93" width="10" height="5" fill="var(--title-front)"/><rect x="400" y="93" width="10" height="5" fill="var(--title-front)"/><rect x="380" y="98" width="25" height="5" fill="var(--title-front)"/><rect x="420" y="58" width="30" height="5" fill="var(--title-front)"/><rect x="420" y="63" width="10" height="5" fill="var(--title-front)"/><rect x="420" y="68" width="10" height="5" fill="var(--title-front)"/><rect x="420" y="73" width="25" height="5" fill="var(--title-front)"/><rect x="420" y="78" width="25" height="5" fill="var(--title-front)"/><rect x="420" y="83" width="10" height="5" fill="var(--title-front)"/><rect x="420" y="88" width="10" height="5" fill="var(--title-front)"/><rect x="420" y="93" width="10" height="5" fill="var(--title-front)"/><rect x="420" y="98" width="30" height="5" fill="var(--title-front)"/><rect x="460" y="58" width="10" height="5" fill="var(--title-front)"/><rect x="480" y="58" width="10" height="5" fill="var(--title-front)"/><rect x="460" y="63" width="10" height="5" fill="var(--title-front)"/><rect x="480" y="63" width="10" height="5" fill="var(--title-front)"/><rect x="460" y="68" width="10" height="5" fill="var(--title-front)"/><rect x="480" y="68" width="10" height="5" fill="var(--title-front)"/><rect x="460" y="73" width="10" height="5" fill="var(--title-front)"/><rect x="480" y="73" width="10" height="5" fill="var(--title-front)"/><rect x="460" y="78" width="10" height="5" fill="var(--title-front)"/><rect x="480" y="78" width="10" height="5" fill="var(--title-front)"/><rect x="465" y="83" width="20" height="5" fill="var(--title-front)"/><rect x="465" y="88" width="20" height="5" fill="var(--title-front)"/><rect x="470" y="93" width="10" height="5" fill="var(--title-front)"/><rect x="470" y="98" width="10" height="5" fill="var(--title-front)"/><rect x="500" y="58" width="30" height="5" fill="var(--title-front)"/><rect x="500" y="63" width="10" height="5" fill="var(--title-front)"/><rect x="500" y="68" width="10" height="5" fill="var(--title-front)"/><rect x="500" y="73" width="25" height="5" fill="var(--title-front)"/><rect x="500" y="78" width="25" height="5" fill="var(--title-front)"/><rect x="500" y="83" width="10" height="5" fill="var(--title-front)"/><rect x="500" y="88" width="10" height="5" fill="var(--title-front)"/><rect x="500" y="93" width="10" height="5" fill="var(--title-front)"/><rect x="500" y="98" width="30" height="5" fill="var(--title-front)"/><rect x="540" y="58" width="10" height="5" fill="var(--title-front)"/><rect x="540" y="63" width="10" height="5" fill="var(--title-front)"/><rect x="540" y="68" width="10" height="5" fill="var(--title-front)"/><rect x="540" y="73" width="10" height="5" fill="var(--title-front)"/><rect x="540" y="78" width="10" height="5" fill="var(--title-front)"/><rect x="540" y="83" width="10" height="5" fill="var(--title-front)"/><rect x="540" y="88" width="10" height="5" fill="var(--title-front)"/><rect x="540" y="93" width="10" height="5" fill="var(--title-front)"/><rect x="540" y="98" width="30" height="5" fill="var(--title-front)"/><rect x="585" y="58" width="20" height="5" fill="var(--title-front)"/><rect x="580" y="63" width="10" height="5" fill="var(--title-front)"/><rect x="600" y="63" width="10" height="5" fill="var(--title-front)"/><rect x="580" y="68" width="10" height="5" fill="var(--title-front)"/><rect x="600" y="68" width="10" height="5" fill="var(--title-front)"/><rect x="580" y="73" width="10" height="5" fill="var(--title-front)"/><rect x="600" y="73" width="10" height="5" fill="var(--title-front)"/><rect x="580" y="78" width="10" height="5" fill="var(--title-front)"/><rect x="600" y="78" width="10" height="5" fill="var(--title-front)"/><rect x="580" y="83" width="10" height="5" fill="var(--title-front)"/><rect x="600" y="83" width="10" height="5" fill="var(--title-front)"/><rect x="580" y="88" width="10" height="5" fill="var(--title-front)"/><rect x="600" y="88" width="10" height="5" fill="var(--title-front)"/><rect x="580" y="93" width="10" height="5" fill="var(--title-front)"/><rect x="600" y="93" width="10" height="5" fill="var(--title-front)"/><rect x="585" y="98" width="20" height="5" fill="var(--title-front)"/><rect x="620" y="58" width="25" height="5" fill="var(--title-front)"/><rect x="620" y="63" width="10" height="5" fill="var(--title-front)"/><rect x="640" y="63" width="10" height="5" fill="var(--title-front)"/><rect x="620" y="68" width="10" height="5" fill="var(--title-front)"/><rect x="640" y="68" width="10" height="5" fill="var(--title-front)"/><rect x="620" y="73" width="25" height="5" fill="var(--title-front)"/><rect x="620" y="78" width="25" height="5" fill="var(--title-front)"/><rect x="620" y="83" width="10" height="5" fill="var(--title-front)"/><rect x="620" y="88" width="10" height="5" fill="var(--title-front)"/><rect x="620" y="93" width="10" height="5" fill="var(--title-front)"/><rect x="620" y="98" width="10" height="5" fill="var(--title-front)"/><rect x="660" y="58" width="30" height="5" fill="var(--title-front)"/><rect x="660" y="63" width="10" height="5" fill="var(--title-front)"/><rect x="660" y="68" width="10" height="5" fill="var(--title-front)"/><rect x="660" y="73" width="25" height="5" fill="var(--title-front)"/><rect x="660" y="78" width="25" height="5" fill="var(--title-front)"/><rect x="660" y="83" width="10" height="5" fill="var(--title-front)"/><rect x="660" y="88" width="10" height="5" fill="var(--title-front)"/><rect x="660" y="93" width="10" height="5" fill="var(--title-front)"/><rect x="660" y="98" width="30" height="5" fill="var(--title-front)"/><rect x="700" y="58" width="25" height="5" fill="var(--title-front)"/><rect x="700" y="63" width="10" height="5" fill="var(--title-front)"/><rect x="720" y="63" width="10" height="5" fill="var(--title-front)"/><rect x="700" y="68" width="10" height="5" fill="var(--title-front)"/><rect x="720" y="68" width="10" height="5" fill="var(--title-front)"/><rect x="700" y="73" width="25" height="5" fill="var(--title-front)"/><rect x="700" y="78" width="25" height="5" fill="var(--title-front)"/><rect x="700" y="83" width="10" height="5" fill="var(--title-front)"/><rect x="715" y="83" width="10" height="5" fill="var(--title-front)"/><rect x="700" y="88" width="10" height="5" fill="var(--title-front)"/><rect x="720" y="88" width="10" height="5" fill="var(--title-front)"/><rect x="700" y="93" width="10" height="5" fill="var(--title-front)"/><rect x="720" y="93" width="10" height="5" fill="var(--title-front)"/><rect x="700" y="98" width="10" height="5" fill="var(--title-front)"/><rect x="725" y="98" width="5" height="5" fill="var(--title-front)"/>
</g>

  <!-- ROLE PILL -->
  
  <g transform="translate(180, 116)">
    <polygon points="0 0, 283 0, 291 8, 291 26, 0 26" fill="var(--bg-panel)" stroke="var(--primary)" stroke-width="1.2"/>
    <rect x="0" y="0" width="5" height="26" fill="var(--primary)"/>
    <text x="14" y="17" fill="var(--accent)" font-size="11.5" font-weight="bold" class="font-mono">▶ FULLSTACK &amp; SYSTEMS ARCHITECT</text>
  </g>


  <!-- BIO SUMMARY -->
  <text x="182" y="166" fill="var(--text-main)" font-size="12" font-weight="normal" class="font-mono">Building high-performance runtimes and resilient developer tooling.</text>
</svg>