<svg xmlns="http://www.w3.org/2000/svg" viewBox="0 0 850 247" width="100%" height="100%" shape-rendering="crispEdges">
  <defs>
    <style>
      
      :root {
        --bg-glass: rgba(24, 24, 27, 0.88);
        --bg-panel: rgba(39, 39, 42, 0.82);
        --border-chassis: rgba(63, 63, 70, 0.85);
        --primary: #60A5FA;
        --accent: #F59E0B;
        --tertiary: #38BDF8;
        --title-front: #93C5FD;
        --title-mid: #3B82F6;
        --title-dark: #1D4ED8;
        --text-main: #F4F4F5;
        --text-dim: #A1A1AA;
        --status: #10B981;
        --warning: #D97706;
        --grid-op: 0.06;
      }
      @media (prefers-color-scheme: dark) {
        :root {
          --bg-glass: rgba(24, 24, 27, 0.88);
          --bg-panel: rgba(39, 39, 42, 0.82);
          --border-chassis: rgba(63, 63, 70, 0.85);
          --primary: #60A5FA;
          --accent: #F59E0B;
          --tertiary: #38BDF8;
          --title-front: #93C5FD;
          --title-mid: #3B82F6;
          --title-dark: #1D4ED8;
          --text-main: #F4F4F5;
          --text-dim: #A1A1AA;
          --status: #10B981;
          --warning: #D97706;
          --grid-op: 0.06;
        }
      }
      @media (prefers-color-scheme: light) {
        :root {
          --bg-glass: #FAFAF9;
          --bg-panel: #F5F5F4;
          --border-chassis: #E7E5E4;
          --primary: #1C1917;
          --accent: #B45309;
          --tertiary: #2563EB;
          --title-front: #1C1917;
          --title-mid: #44403C;
          --title-dark: #78716C;
          --text-main: #1C1917;
          --text-dim: #78716C;
          --status: #15803D;
          --warning: #B45309;
          --grid-op: 0.06;
        }
      }
      @media (hover: hover) {
        .btn-hover:hover, a:hover polygon, a:hover rect {
          filter: drop-shadow(0 0 6px var(--primary, #60A5FA));
          cursor: pointer;
          transition: filter 0.2s ease;
        }
      }

      @keyframes eqBar1 { 0%, 100% { height: 12px; y: 28px; } 50% { height: 32px; y: 8px; } }
      @keyframes eqBar2 { 0%, 100% { height: 28px; y: 12px; } 50% { height: 10px; y: 30px; } }
      @keyframes eqBar3 { 0%, 100% { height: 18px; y: 22px; } 50% { height: 36px; y: 4px; } }
      @keyframes eqBar4 { 0%, 100% { height: 34px; y: 6px; } 50% { height: 14px; y: 26px; } }
      @keyframes eqBar5 { 0%, 100% { height: 22px; y: 18px; } 50% { height: 8px; y: 32px; } }
      @keyframes neonBreath { 0%, 100% { opacity: 0.9; } 50% { opacity: 0.45; } }
      .font-mono { font-family: 'JetBrains Mono', 'Fira Code', 'Courier New', monospace; }
      .eq1 { animation: eqBar1 1.2s infinite ease-in-out; }
      .eq2 { animation: eqBar2 0.9s infinite ease-in-out; }
      .eq3 { animation: eqBar3 1.4s infinite ease-in-out; }
      .eq4 { animation: eqBar4 1.1s infinite ease-in-out; }
      .eq5 { animation: eqBar5 1.5s infinite ease-in-out; }
      .breath { animation: neonBreath 3s infinite ease-in-out; }
    </style>
  </defs>

  <!-- BACKGROUND GLASS -->
  <rect x="4" y="4" width="842" height="239" fill="var(--bg-glass)" stroke="var(--border-chassis)" stroke-width="2"/>
  <rect x="8" y="8" width="834" height="231" fill="none" stroke="var(--primary)" stroke-width="1.5" class="breath"/>

  <!-- CORNER PIXEL ACCENTS -->
  <rect x="4" y="4" width="8" height="3" fill="var(--primary)"/>
  <rect x="4" y="4" width="3" height="8" fill="var(--primary)"/>
  <rect x="838" y="4" width="8" height="3" fill="var(--primary)"/>
  <rect x="843" y="4" width="3" height="8" fill="var(--primary)"/>
  <rect x="4" y="240" width="8" height="3" fill="var(--primary)"/>
  <rect x="4" y="235" width="3" height="8" fill="var(--primary)"/>
  <rect x="838" y="240" width="8" height="3" fill="var(--primary)"/>
  <rect x="843" y="235" width="3" height="8" fill="var(--primary)"/>

  <!-- 3D PIXEL TITLE -->
  <g class="pixel-text-3d">
  <!-- Shadow Dark -->
  <rect x="46" y="40" width="20" height="4" fill="var(--title-dark)"/><rect x="46" y="44" width="8" height="4" fill="var(--title-dark)"/><rect x="62" y="44" width="8" height="4" fill="var(--title-dark)"/><rect x="46" y="48" width="8" height="4" fill="var(--title-dark)"/><rect x="62" y="48" width="8" height="4" fill="var(--title-dark)"/><rect x="46" y="52" width="20" height="4" fill="var(--title-dark)"/><rect x="46" y="56" width="20" height="4" fill="var(--title-dark)"/><rect x="46" y="60" width="8" height="4" fill="var(--title-dark)"/><rect x="58" y="60" width="8" height="4" fill="var(--title-dark)"/><rect x="46" y="64" width="8" height="4" fill="var(--title-dark)"/><rect x="62" y="64" width="8" height="4" fill="var(--title-dark)"/><rect x="46" y="68" width="8" height="4" fill="var(--title-dark)"/><rect x="62" y="68" width="8" height="4" fill="var(--title-dark)"/><rect x="46" y="72" width="8" height="4" fill="var(--title-dark)"/><rect x="66" y="72" width="4" height="4" fill="var(--title-dark)"/><rect x="78" y="40" width="24" height="4" fill="var(--title-dark)"/><rect x="78" y="44" width="8" height="4" fill="var(--title-dark)"/><rect x="78" y="48" width="8" height="4" fill="var(--title-dark)"/><rect x="78" y="52" width="20" height="4" fill="var(--title-dark)"/><rect x="78" y="56" width="20" height="4" fill="var(--title-dark)"/><rect x="78" y="60" width="8" height="4" fill="var(--title-dark)"/><rect x="78" y="64" width="8" height="4" fill="var(--title-dark)"/><rect x="78" y="68" width="8" height="4" fill="var(--title-dark)"/><rect x="78" y="72" width="24" height="4" fill="var(--title-dark)"/><rect x="114" y="40" width="20" height="4" fill="var(--title-dark)"/><rect x="110" y="44" width="8" height="4" fill="var(--title-dark)"/><rect x="130" y="44" width="4" height="4" fill="var(--title-dark)"/><rect x="110" y="48" width="8" height="4" fill="var(--title-dark)"/><rect x="114" y="52" width="16" height="4" fill="var(--title-dark)"/><rect x="114" y="56" width="16" height="4" fill="var(--title-dark)"/><rect x="126" y="60" width="8" height="4" fill="var(--title-dark)"/><rect x="110" y="64" width="4" height="4" fill="var(--title-dark)"/><rect x="126" y="64" width="8" height="4" fill="var(--title-dark)"/><rect x="110" y="68" width="8" height="4" fill="var(--title-dark)"/><rect x="126" y="68" width="8" height="4" fill="var(--title-dark)"/><rect x="114" y="72" width="16" height="4" fill="var(--title-dark)"/><rect x="142" y="40" width="24" height="4" fill="var(--title-dark)"/><rect x="142" y="44" width="8" height="4" fill="var(--title-dark)"/><rect x="142" y="48" width="8" height="4" fill="var(--title-dark)"/><rect x="142" y="52" width="20" height="4" fill="var(--title-dark)"/><rect x="142" y="56" width="20" height="4" fill="var(--title-dark)"/><rect x="142" y="60" width="8" height="4" fill="var(--title-dark)"/><rect x="142" y="64" width="8" height="4" fill="var(--title-dark)"/><rect x="142" y="68" width="8" height="4" fill="var(--title-dark)"/><rect x="142" y="72" width="24" height="4" fill="var(--title-dark)"/><rect x="178" y="40" width="16" height="4" fill="var(--title-dark)"/><rect x="174" y="44" width="8" height="4" fill="var(--title-dark)"/><rect x="190" y="44" width="8" height="4" fill="var(--title-dark)"/><rect x="174" y="48" width="8" height="4" fill="var(--title-dark)"/><rect x="190" y="48" width="8" height="4" fill="var(--title-dark)"/><rect x="174" y="52" width="24" height="4" fill="var(--title-dark)"/><rect x="174" y="56" width="24" height="4" fill="var(--title-dark)"/><rect x="174" y="60" width="8" height="4" fill="var(--title-dark)"/><rect x="190" y="60" width="8" height="4" fill="var(--title-dark)"/><rect x="174" y="64" width="8" height="4" fill="var(--title-dark)"/><rect x="190" y="64" width="8" height="4" fill="var(--title-dark)"/><rect x="174" y="68" width="8" height="4" fill="var(--title-dark)"/><rect x="190" y="68" width="8" height="4" fill="var(--title-dark)"/><rect x="174" y="72" width="8" height="4" fill="var(--title-dark)"/><rect x="190" y="72" width="8" height="4" fill="var(--title-dark)"/><rect x="206" y="40" width="20" height="4" fill="var(--title-dark)"/><rect x="206" y="44" width="8" height="4" fill="var(--title-dark)"/><rect x="222" y="44" width="8" height="4" fill="var(--title-dark)"/><rect x="206" y="48" width="8" height="4" fill="var(--title-dark)"/><rect x="222" y="48" width="8" height="4" fill="var(--title-dark)"/><rect x="206" y="52" width="20" height="4" fill="var(--title-dark)"/><rect x="206" y="56" width="20" height="4" fill="var(--title-dark)"/><rect x="206" y="60" width="8" height="4" fill="var(--title-dark)"/><rect x="218" y="60" width="8" height="4" fill="var(--title-dark)"/><rect x="206" y="64" width="8" height="4" fill="var(--title-dark)"/><rect x="222" y="64" width="8" height="4" fill="var(--title-dark)"/><rect x="206" y="68" width="8" height="4" fill="var(--title-dark)"/><rect x="222" y="68" width="8" height="4" fill="var(--title-dark)"/><rect x="206" y="72" width="8" height="4" fill="var(--title-dark)"/><rect x="226" y="72" width="4" height="4" fill="var(--title-dark)"/><rect x="242" y="40" width="20" height="4" fill="var(--title-dark)"/><rect x="238" y="44" width="8" height="4" fill="var(--title-dark)"/><rect x="258" y="44" width="4" height="4" fill="var(--title-dark)"/><rect x="238" y="48" width="8" height="4" fill="var(--title-dark)"/><rect x="238" y="52" width="8" height="4" fill="var(--title-dark)"/><rect x="238" y="56" width="8" height="4" fill="var(--title-dark)"/><rect x="238" y="60" width="8" height="4" fill="var(--title-dark)"/><rect x="238" y="64" width="8" height="4" fill="var(--title-dark)"/><rect x="238" y="68" width="8" height="4" fill="var(--title-dark)"/><rect x="258" y="68" width="4" height="4" fill="var(--title-dark)"/><rect x="242" y="72" width="20" height="4" fill="var(--title-dark)"/><rect x="270" y="40" width="8" height="4" fill="var(--title-dark)"/><rect x="286" y="40" width="8" height="4" fill="var(--title-dark)"/><rect x="270" y="44" width="8" height="4" fill="var(--title-dark)"/><rect x="286" y="44" width="8" height="4" fill="var(--title-dark)"/><rect x="270" y="48" width="8" height="4" fill="var(--title-dark)"/><rect x="286" y="48" width="8" height="4" fill="var(--title-dark)"/><rect x="270" y="52" width="24" height="4" fill="var(--title-dark)"/><rect x="270" y="56" width="24" height="4" fill="var(--title-dark)"/><rect x="270" y="60" width="8" height="4" fill="var(--title-dark)"/><rect x="286" y="60" width="8" height="4" fill="var(--title-dark)"/><rect x="270" y="64" width="8" height="4" fill="var(--title-dark)"/><rect x="286" y="64" width="8" height="4" fill="var(--title-dark)"/><rect x="270" y="68" width="8" height="4" fill="var(--title-dark)"/><rect x="286" y="68" width="8" height="4" fill="var(--title-dark)"/><rect x="270" y="72" width="8" height="4" fill="var(--title-dark)"/><rect x="286" y="72" width="8" height="4" fill="var(--title-dark)"/><rect x="46" y="85" width="20" height="4" fill="var(--title-dark)"/><rect x="46" y="89" width="8" height="4" fill="var(--title-dark)"/><rect x="62" y="89" width="8" height="4" fill="var(--title-dark)"/><rect x="46" y="93" width="8" height="4" fill="var(--title-dark)"/><rect x="62" y="93" width="8" height="4" fill="var(--title-dark)"/><rect x="46" y="97" width="8" height="4" fill="var(--title-dark)"/><rect x="62" y="97" width="8" height="4" fill="var(--title-dark)"/><rect x="46" y="101" width="8" height="4" fill="var(--title-dark)"/><rect x="62" y="101" width="8" height="4" fill="var(--title-dark)"/><rect x="46" y="105" width="8" height="4" fill="var(--title-dark)"/><rect x="62" y="105" width="8" height="4" fill="var(--title-dark)"/><rect x="46" y="109" width="8" height="4" fill="var(--title-dark)"/><rect x="62" y="109" width="8" height="4" fill="var(--title-dark)"/><rect x="46" y="113" width="8" height="4" fill="var(--title-dark)"/><rect x="62" y="113" width="8" height="4" fill="var(--title-dark)"/><rect x="46" y="117" width="20" height="4" fill="var(--title-dark)"/><rect x="82" y="85" width="16" height="4" fill="var(--title-dark)"/><rect x="78" y="89" width="8" height="4" fill="var(--title-dark)"/><rect x="94" y="89" width="8" height="4" fill="var(--title-dark)"/><rect x="78" y="93" width="8" height="4" fill="var(--title-dark)"/><rect x="94" y="93" width="8" height="4" fill="var(--title-dark)"/><rect x="78" y="97" width="8" height="4" fill="var(--title-dark)"/><rect x="94" y="97" width="8" height="4" fill="var(--title-dark)"/><rect x="78" y="101" width="8" height="4" fill="var(--title-dark)"/><rect x="94" y="101" width="8" height="4" fill="var(--title-dark)"/><rect x="78" y="105" width="8" height="4" fill="var(--title-dark)"/><rect x="94" y="105" width="8" height="4" fill="var(--title-dark)"/><rect x="78" y="109" width="8" height="4" fill="var(--title-dark)"/><rect x="94" y="109" width="8" height="4" fill="var(--title-dark)"/><rect x="78" y="113" width="8" height="4" fill="var(--title-dark)"/><rect x="94" y="113" width="8" height="4" fill="var(--title-dark)"/><rect x="82" y="117" width="16" height="4" fill="var(--title-dark)"/><rect x="114" y="85" width="20" height="4" fill="var(--title-dark)"/><rect x="110" y="89" width="8" height="4" fill="var(--title-dark)"/><rect x="130" y="89" width="4" height="4" fill="var(--title-dark)"/><rect x="110" y="93" width="8" height="4" fill="var(--title-dark)"/><rect x="114" y="97" width="16" height="4" fill="var(--title-dark)"/><rect x="114" y="101" width="16" height="4" fill="var(--title-dark)"/><rect x="126" y="105" width="8" height="4" fill="var(--title-dark)"/><rect x="110" y="109" width="4" height="4" fill="var(--title-dark)"/><rect x="126" y="109" width="8" height="4" fill="var(--title-dark)"/><rect x="110" y="113" width="8" height="4" fill="var(--title-dark)"/><rect x="126" y="113" width="8" height="4" fill="var(--title-dark)"/><rect x="114" y="117" width="16" height="4" fill="var(--title-dark)"/><rect x="146" y="85" width="20" height="4" fill="var(--title-dark)"/><rect x="142" y="89" width="8" height="4" fill="var(--title-dark)"/><rect x="162" y="89" width="4" height="4" fill="var(--title-dark)"/><rect x="142" y="93" width="8" height="4" fill="var(--title-dark)"/><rect x="146" y="97" width="16" height="4" fill="var(--title-dark)"/><rect x="146" y="101" width="16" height="4" fill="var(--title-dark)"/><rect x="158" y="105" width="8" height="4" fill="var(--title-dark)"/><rect x="142" y="109" width="4" height="4" fill="var(--title-dark)"/><rect x="158" y="109" width="8" height="4" fill="var(--title-dark)"/><rect x="142" y="113" width="8" height="4" fill="var(--title-dark)"/><rect x="158" y="113" width="8" height="4" fill="var(--title-dark)"/><rect x="146" y="117" width="16" height="4" fill="var(--title-dark)"/><rect x="174" y="85" width="24" height="4" fill="var(--title-dark)"/><rect x="182" y="89" width="8" height="4" fill="var(--title-dark)"/><rect x="182" y="93" width="8" height="4" fill="var(--title-dark)"/><rect x="182" y="97" width="8" height="4" fill="var(--title-dark)"/><rect x="182" y="101" width="8" height="4" fill="var(--title-dark)"/><rect x="182" y="105" width="8" height="4" fill="var(--title-dark)"/><rect x="182" y="109" width="8" height="4" fill="var(--title-dark)"/><rect x="182" y="113" width="8" height="4" fill="var(--title-dark)"/><rect x="174" y="117" width="24" height="4" fill="var(--title-dark)"/><rect x="206" y="85" width="24" height="4" fill="var(--title-dark)"/><rect x="206" y="89" width="8" height="4" fill="var(--title-dark)"/><rect x="206" y="93" width="8" height="4" fill="var(--title-dark)"/><rect x="206" y="97" width="20" height="4" fill="var(--title-dark)"/><rect x="206" y="101" width="20" height="4" fill="var(--title-dark)"/><rect x="206" y="105" width="8" height="4" fill="var(--title-dark)"/><rect x="206" y="109" width="8" height="4" fill="var(--title-dark)"/><rect x="206" y="113" width="8" height="4" fill="var(--title-dark)"/><rect x="206" y="117" width="24" height="4" fill="var(--title-dark)"/><rect x="238" y="85" width="20" height="4" fill="var(--title-dark)"/><rect x="238" y="89" width="8" height="4" fill="var(--title-dark)"/><rect x="254" y="89" width="8" height="4" fill="var(--title-dark)"/><rect x="238" y="93" width="8" height="4" fill="var(--title-dark)"/><rect x="254" y="93" width="8" height="4" fill="var(--title-dark)"/><rect x="238" y="97" width="20" height="4" fill="var(--title-dark)"/><rect x="238" y="101" width="20" height="4" fill="var(--title-dark)"/><rect x="238" y="105" width="8" height="4" fill="var(--title-dark)"/><rect x="250" y="105" width="8" height="4" fill="var(--title-dark)"/><rect x="238" y="109" width="8" height="4" fill="var(--title-dark)"/><rect x="254" y="109" width="8" height="4" fill="var(--title-dark)"/><rect x="238" y="113" width="8" height="4" fill="var(--title-dark)"/><rect x="254" y="113" width="8" height="4" fill="var(--title-dark)"/><rect x="238" y="117" width="8" height="4" fill="var(--title-dark)"/><rect x="258" y="117" width="4" height="4" fill="var(--title-dark)"/>
  <!-- Shadow Mid -->
  <rect x="44" y="38" width="20" height="4" fill="var(--title-mid)"/><rect x="44" y="42" width="8" height="4" fill="var(--title-mid)"/><rect x="60" y="42" width="8" height="4" fill="var(--title-mid)"/><rect x="44" y="46" width="8" height="4" fill="var(--title-mid)"/><rect x="60" y="46" width="8" height="4" fill="var(--title-mid)"/><rect x="44" y="50" width="20" height="4" fill="var(--title-mid)"/><rect x="44" y="54" width="20" height="4" fill="var(--title-mid)"/><rect x="44" y="58" width="8" height="4" fill="var(--title-mid)"/><rect x="56" y="58" width="8" height="4" fill="var(--title-mid)"/><rect x="44" y="62" width="8" height="4" fill="var(--title-mid)"/><rect x="60" y="62" width="8" height="4" fill="var(--title-mid)"/><rect x="44" y="66" width="8" height="4" fill="var(--title-mid)"/><rect x="60" y="66" width="8" height="4" fill="var(--title-mid)"/><rect x="44" y="70" width="8" height="4" fill="var(--title-mid)"/><rect x="64" y="70" width="4" height="4" fill="var(--title-mid)"/><rect x="76" y="38" width="24" height="4" fill="var(--title-mid)"/><rect x="76" y="42" width="8" height="4" fill="var(--title-mid)"/><rect x="76" y="46" width="8" height="4" fill="var(--title-mid)"/><rect x="76" y="50" width="20" height="4" fill="var(--title-mid)"/><rect x="76" y="54" width="20" height="4" fill="var(--title-mid)"/><rect x="76" y="58" width="8" height="4" fill="var(--title-mid)"/><rect x="76" y="62" width="8" height="4" fill="var(--title-mid)"/><rect x="76" y="66" width="8" height="4" fill="var(--title-mid)"/><rect x="76" y="70" width="24" height="4" fill="var(--title-mid)"/><rect x="112" y="38" width="20" height="4" fill="var(--title-mid)"/><rect x="108" y="42" width="8" height="4" fill="var(--title-mid)"/><rect x="128" y="42" width="4" height="4" fill="var(--title-mid)"/><rect x="108" y="46" width="8" height="4" fill="var(--title-mid)"/><rect x="112" y="50" width="16" height="4" fill="var(--title-mid)"/><rect x="112" y="54" width="16" height="4" fill="var(--title-mid)"/><rect x="124" y="58" width="8" height="4" fill="var(--title-mid)"/><rect x="108" y="62" width="4" height="4" fill="var(--title-mid)"/><rect x="124" y="62" width="8" height="4" fill="var(--title-mid)"/><rect x="108" y="66" width="8" height="4" fill="var(--title-mid)"/><rect x="124" y="66" width="8" height="4" fill="var(--title-mid)"/><rect x="112" y="70" width="16" height="4" fill="var(--title-mid)"/><rect x="140" y="38" width="24" height="4" fill="var(--title-mid)"/><rect x="140" y="42" width="8" height="4" fill="var(--title-mid)"/><rect x="140" y="46" width="8" height="4" fill="var(--title-mid)"/><rect x="140" y="50" width="20" height="4" fill="var(--title-mid)"/><rect x="140" y="54" width="20" height="4" fill="var(--title-mid)"/><rect x="140" y="58" width="8" height="4" fill="var(--title-mid)"/><rect x="140" y="62" width="8" height="4" fill="var(--title-mid)"/><rect x="140" y="66" width="8" height="4" fill="var(--title-mid)"/><rect x="140" y="70" width="24" height="4" fill="var(--title-mid)"/><rect x="176" y="38" width="16" height="4" fill="var(--title-mid)"/><rect x="172" y="42" width="8" height="4" fill="var(--title-mid)"/><rect x="188" y="42" width="8" height="4" fill="var(--title-mid)"/><rect x="172" y="46" width="8" height="4" fill="var(--title-mid)"/><rect x="188" y="46" width="8" height="4" fill="var(--title-mid)"/><rect x="172" y="50" width="24" height="4" fill="var(--title-mid)"/><rect x="172" y="54" width="24" height="4" fill="var(--title-mid)"/><rect x="172" y="58" width="8" height="4" fill="var(--title-mid)"/><rect x="188" y="58" width="8" height="4" fill="var(--title-mid)"/><rect x="172" y="62" width="8" height="4" fill="var(--title-mid)"/><rect x="188" y="62" width="8" height="4" fill="var(--title-mid)"/><rect x="172" y="66" width="8" height="4" fill="var(--title-mid)"/><rect x="188" y="66" width="8" height="4" fill="var(--title-mid)"/><rect x="172" y="70" width="8" height="4" fill="var(--title-mid)"/><rect x="188" y="70" width="8" height="4" fill="var(--title-mid)"/><rect x="204" y="38" width="20" height="4" fill="var(--title-mid)"/><rect x="204" y="42" width="8" height="4" fill="var(--title-mid)"/><rect x="220" y="42" width="8" height="4" fill="var(--title-mid)"/><rect x="204" y="46" width="8" height="4" fill="var(--title-mid)"/><rect x="220" y="46" width="8" height="4" fill="var(--title-mid)"/><rect x="204" y="50" width="20" height="4" fill="var(--title-mid)"/><rect x="204" y="54" width="20" height="4" fill="var(--title-mid)"/><rect x="204" y="58" width="8" height="4" fill="var(--title-mid)"/><rect x="216" y="58" width="8" height="4" fill="var(--title-mid)"/><rect x="204" y="62" width="8" height="4" fill="var(--title-mid)"/><rect x="220" y="62" width="8" height="4" fill="var(--title-mid)"/><rect x="204" y="66" width="8" height="4" fill="var(--title-mid)"/><rect x="220" y="66" width="8" height="4" fill="var(--title-mid)"/><rect x="204" y="70" width="8" height="4" fill="var(--title-mid)"/><rect x="224" y="70" width="4" height="4" fill="var(--title-mid)"/><rect x="240" y="38" width="20" height="4" fill="var(--title-mid)"/><rect x="236" y="42" width="8" height="4" fill="var(--title-mid)"/><rect x="256" y="42" width="4" height="4" fill="var(--title-mid)"/><rect x="236" y="46" width="8" height="4" fill="var(--title-mid)"/><rect x="236" y="50" width="8" height="4" fill="var(--title-mid)"/><rect x="236" y="54" width="8" height="4" fill="var(--title-mid)"/><rect x="236" y="58" width="8" height="4" fill="var(--title-mid)"/><rect x="236" y="62" width="8" height="4" fill="var(--title-mid)"/><rect x="236" y="66" width="8" height="4" fill="var(--title-mid)"/><rect x="256" y="66" width="4" height="4" fill="var(--title-mid)"/><rect x="240" y="70" width="20" height="4" fill="var(--title-mid)"/><rect x="268" y="38" width="8" height="4" fill="var(--title-mid)"/><rect x="284" y="38" width="8" height="4" fill="var(--title-mid)"/><rect x="268" y="42" width="8" height="4" fill="var(--title-mid)"/><rect x="284" y="42" width="8" height="4" fill="var(--title-mid)"/><rect x="268" y="46" width="8" height="4" fill="var(--title-mid)"/><rect x="284" y="46" width="8" height="4" fill="var(--title-mid)"/><rect x="268" y="50" width="24" height="4" fill="var(--title-mid)"/><rect x="268" y="54" width="24" height="4" fill="var(--title-mid)"/><rect x="268" y="58" width="8" height="4" fill="var(--title-mid)"/><rect x="284" y="58" width="8" height="4" fill="var(--title-mid)"/><rect x="268" y="62" width="8" height="4" fill="var(--title-mid)"/><rect x="284" y="62" width="8" height="4" fill="var(--title-mid)"/><rect x="268" y="66" width="8" height="4" fill="var(--title-mid)"/><rect x="284" y="66" width="8" height="4" fill="var(--title-mid)"/><rect x="268" y="70" width="8" height="4" fill="var(--title-mid)"/><rect x="284" y="70" width="8" height="4" fill="var(--title-mid)"/><rect x="44" y="83" width="20" height="4" fill="var(--title-mid)"/><rect x="44" y="87" width="8" height="4" fill="var(--title-mid)"/><rect x="60" y="87" width="8" height="4" fill="var(--title-mid)"/><rect x="44" y="91" width="8" height="4" fill="var(--title-mid)"/><rect x="60" y="91" width="8" height="4" fill="var(--title-mid)"/><rect x="44" y="95" width="8" height="4" fill="var(--title-mid)"/><rect x="60" y="95" width="8" height="4" fill="var(--title-mid)"/><rect x="44" y="99" width="8" height="4" fill="var(--title-mid)"/><rect x="60" y="99" width="8" height="4" fill="var(--title-mid)"/><rect x="44" y="103" width="8" height="4" fill="var(--title-mid)"/><rect x="60" y="103" width="8" height="4" fill="var(--title-mid)"/><rect x="44" y="107" width="8" height="4" fill="var(--title-mid)"/><rect x="60" y="107" width="8" height="4" fill="var(--title-mid)"/><rect x="44" y="111" width="8" height="4" fill="var(--title-mid)"/><rect x="60" y="111" width="8" height="4" fill="var(--title-mid)"/><rect x="44" y="115" width="20" height="4" fill="var(--title-mid)"/><rect x="80" y="83" width="16" height="4" fill="var(--title-mid)"/><rect x="76" y="87" width="8" height="4" fill="var(--title-mid)"/><rect x="92" y="87" width="8" height="4" fill="var(--title-mid)"/><rect x="76" y="91" width="8" height="4" fill="var(--title-mid)"/><rect x="92" y="91" width="8" height="4" fill="var(--title-mid)"/><rect x="76" y="95" width="8" height="4" fill="var(--title-mid)"/><rect x="92" y="95" width="8" height="4" fill="var(--title-mid)"/><rect x="76" y="99" width="8" height="4" fill="var(--title-mid)"/><rect x="92" y="99" width="8" height="4" fill="var(--title-mid)"/><rect x="76" y="103" width="8" height="4" fill="var(--title-mid)"/><rect x="92" y="103" width="8" height="4" fill="var(--title-mid)"/><rect x="76" y="107" width="8" height="4" fill="var(--title-mid)"/><rect x="92" y="107" width="8" height="4" fill="var(--title-mid)"/><rect x="76" y="111" width="8" height="4" fill="var(--title-mid)"/><rect x="92" y="111" width="8" height="4" fill="var(--title-mid)"/><rect x="80" y="115" width="16" height="4" fill="var(--title-mid)"/><rect x="112" y="83" width="20" height="4" fill="var(--title-mid)"/><rect x="108" y="87" width="8" height="4" fill="var(--title-mid)"/><rect x="128" y="87" width="4" height="4" fill="var(--title-mid)"/><rect x="108" y="91" width="8" height="4" fill="var(--title-mid)"/><rect x="112" y="95" width="16" height="4" fill="var(--title-mid)"/><rect x="112" y="99" width="16" height="4" fill="var(--title-mid)"/><rect x="124" y="103" width="8" height="4" fill="var(--title-mid)"/><rect x="108" y="107" width="4" height="4" fill="var(--title-mid)"/><rect x="124" y="107" width="8" height="4" fill="var(--title-mid)"/><rect x="108" y="111" width="8" height="4" fill="var(--title-mid)"/><rect x="124" y="111" width="8" height="4" fill="var(--title-mid)"/><rect x="112" y="115" width="16" height="4" fill="var(--title-mid)"/><rect x="144" y="83" width="20" height="4" fill="var(--title-mid)"/><rect x="140" y="87" width="8" height="4" fill="var(--title-mid)"/><rect x="160" y="87" width="4" height="4" fill="var(--title-mid)"/><rect x="140" y="91" width="8" height="4" fill="var(--title-mid)"/><rect x="144" y="95" width="16" height="4" fill="var(--title-mid)"/><rect x="144" y="99" width="16" height="4" fill="var(--title-mid)"/><rect x="156" y="103" width="8" height="4" fill="var(--title-mid)"/><rect x="140" y="107" width="4" height="4" fill="var(--title-mid)"/><rect x="156" y="107" width="8" height="4" fill="var(--title-mid)"/><rect x="140" y="111" width="8" height="4" fill="var(--title-mid)"/><rect x="156" y="111" width="8" height="4" fill="var(--title-mid)"/><rect x="144" y="115" width="16" height="4" fill="var(--title-mid)"/><rect x="172" y="83" width="24" height="4" fill="var(--title-mid)"/><rect x="180" y="87" width="8" height="4" fill="var(--title-mid)"/><rect x="180" y="91" width="8" height="4" fill="var(--title-mid)"/><rect x="180" y="95" width="8" height="4" fill="var(--title-mid)"/><rect x="180" y="99" width="8" height="4" fill="var(--title-mid)"/><rect x="180" y="103" width="8" height="4" fill="var(--title-mid)"/><rect x="180" y="107" width="8" height="4" fill="var(--title-mid)"/><rect x="180" y="111" width="8" height="4" fill="var(--title-mid)"/><rect x="172" y="115" width="24" height="4" fill="var(--title-mid)"/><rect x="204" y="83" width="24" height="4" fill="var(--title-mid)"/><rect x="204" y="87" width="8" height="4" fill="var(--title-mid)"/><rect x="204" y="91" width="8" height="4" fill="var(--title-mid)"/><rect x="204" y="95" width="20" height="4" fill="var(--title-mid)"/><rect x="204" y="99" width="20" height="4" fill="var(--title-mid)"/><rect x="204" y="103" width="8" height="4" fill="var(--title-mid)"/><rect x="204" y="107" width="8" height="4" fill="var(--title-mid)"/><rect x="204" y="111" width="8" height="4" fill="var(--title-mid)"/><rect x="204" y="115" width="24" height="4" fill="var(--title-mid)"/><rect x="236" y="83" width="20" height="4" fill="var(--title-mid)"/><rect x="236" y="87" width="8" height="4" fill="var(--title-mid)"/><rect x="252" y="87" width="8" height="4" fill="var(--title-mid)"/><rect x="236" y="91" width="8" height="4" fill="var(--title-mid)"/><rect x="252" y="91" width="8" height="4" fill="var(--title-mid)"/><rect x="236" y="95" width="20" height="4" fill="var(--title-mid)"/><rect x="236" y="99" width="20" height="4" fill="var(--title-mid)"/><rect x="236" y="103" width="8" height="4" fill="var(--title-mid)"/><rect x="248" y="103" width="8" height="4" fill="var(--title-mid)"/><rect x="236" y="107" width="8" height="4" fill="var(--title-mid)"/><rect x="252" y="107" width="8" height="4" fill="var(--title-mid)"/><rect x="236" y="111" width="8" height="4" fill="var(--title-mid)"/><rect x="252" y="111" width="8" height="4" fill="var(--title-mid)"/><rect x="236" y="115" width="8" height="4" fill="var(--title-mid)"/><rect x="256" y="115" width="4" height="4" fill="var(--title-mid)"/>
  <!-- Front Face -->
  <rect x="42" y="36" width="20" height="4" fill="var(--title-front)"/><rect x="42" y="40" width="8" height="4" fill="var(--title-front)"/><rect x="58" y="40" width="8" height="4" fill="var(--title-front)"/><rect x="42" y="44" width="8" height="4" fill="var(--title-front)"/><rect x="58" y="44" width="8" height="4" fill="var(--title-front)"/><rect x="42" y="48" width="20" height="4" fill="var(--title-front)"/><rect x="42" y="52" width="20" height="4" fill="var(--title-front)"/><rect x="42" y="56" width="8" height="4" fill="var(--title-front)"/><rect x="54" y="56" width="8" height="4" fill="var(--title-front)"/><rect x="42" y="60" width="8" height="4" fill="var(--title-front)"/><rect x="58" y="60" width="8" height="4" fill="var(--title-front)"/><rect x="42" y="64" width="8" height="4" fill="var(--title-front)"/><rect x="58" y="64" width="8" height="4" fill="var(--title-front)"/><rect x="42" y="68" width="8" height="4" fill="var(--title-front)"/><rect x="62" y="68" width="4" height="4" fill="var(--title-front)"/><rect x="74" y="36" width="24" height="4" fill="var(--title-front)"/><rect x="74" y="40" width="8" height="4" fill="var(--title-front)"/><rect x="74" y="44" width="8" height="4" fill="var(--title-front)"/><rect x="74" y="48" width="20" height="4" fill="var(--title-front)"/><rect x="74" y="52" width="20" height="4" fill="var(--title-front)"/><rect x="74" y="56" width="8" height="4" fill="var(--title-front)"/><rect x="74" y="60" width="8" height="4" fill="var(--title-front)"/><rect x="74" y="64" width="8" height="4" fill="var(--title-front)"/><rect x="74" y="68" width="24" height="4" fill="var(--title-front)"/><rect x="110" y="36" width="20" height="4" fill="var(--title-front)"/><rect x="106" y="40" width="8" height="4" fill="var(--title-front)"/><rect x="126" y="40" width="4" height="4" fill="var(--title-front)"/><rect x="106" y="44" width="8" height="4" fill="var(--title-front)"/><rect x="110" y="48" width="16" height="4" fill="var(--title-front)"/><rect x="110" y="52" width="16" height="4" fill="var(--title-front)"/><rect x="122" y="56" width="8" height="4" fill="var(--title-front)"/><rect x="106" y="60" width="4" height="4" fill="var(--title-front)"/><rect x="122" y="60" width="8" height="4" fill="var(--title-front)"/><rect x="106" y="64" width="8" height="4" fill="var(--title-front)"/><rect x="122" y="64" width="8" height="4" fill="var(--title-front)"/><rect x="110" y="68" width="16" height="4" fill="var(--title-front)"/><rect x="138" y="36" width="24" height="4" fill="var(--title-front)"/><rect x="138" y="40" width="8" height="4" fill="var(--title-front)"/><rect x="138" y="44" width="8" height="4" fill="var(--title-front)"/><rect x="138" y="48" width="20" height="4" fill="var(--title-front)"/><rect x="138" y="52" width="20" height="4" fill="var(--title-front)"/><rect x="138" y="56" width="8" height="4" fill="var(--title-front)"/><rect x="138" y="60" width="8" height="4" fill="var(--title-front)"/><rect x="138" y="64" width="8" height="4" fill="var(--title-front)"/><rect x="138" y="68" width="24" height="4" fill="var(--title-front)"/><rect x="174" y="36" width="16" height="4" fill="var(--title-front)"/><rect x="170" y="40" width="8" height="4" fill="var(--title-front)"/><rect x="186" y="40" width="8" height="4" fill="var(--title-front)"/><rect x="170" y="44" width="8" height="4" fill="var(--title-front)"/><rect x="186" y="44" width="8" height="4" fill="var(--title-front)"/><rect x="170" y="48" width="24" height="4" fill="var(--title-front)"/><rect x="170" y="52" width="24" height="4" fill="var(--title-front)"/><rect x="170" y="56" width="8" height="4" fill="var(--title-front)"/><rect x="186" y="56" width="8" height="4" fill="var(--title-front)"/><rect x="170" y="60" width="8" height="4" fill="var(--title-front)"/><rect x="186" y="60" width="8" height="4" fill="var(--title-front)"/><rect x="170" y="64" width="8" height="4" fill="var(--title-front)"/><rect x="186" y="64" width="8" height="4" fill="var(--title-front)"/><rect x="170" y="68" width="8" height="4" fill="var(--title-front)"/><rect x="186" y="68" width="8" height="4" fill="var(--title-front)"/><rect x="202" y="36" width="20" height="4" fill="var(--title-front)"/><rect x="202" y="40" width="8" height="4" fill="var(--title-front)"/><rect x="218" y="40" width="8" height="4" fill="var(--title-front)"/><rect x="202" y="44" width="8" height="4" fill="var(--title-front)"/><rect x="218" y="44" width="8" height="4" fill="var(--title-front)"/><rect x="202" y="48" width="20" height="4" fill="var(--title-front)"/><rect x="202" y="52" width="20" height="4" fill="var(--title-front)"/><rect x="202" y="56" width="8" height="4" fill="var(--title-front)"/><rect x="214" y="56" width="8" height="4" fill="var(--title-front)"/><rect x="202" y="60" width="8" height="4" fill="var(--title-front)"/><rect x="218" y="60" width="8" height="4" fill="var(--title-front)"/><rect x="202" y="64" width="8" height="4" fill="var(--title-front)"/><rect x="218" y="64" width="8" height="4" fill="var(--title-front)"/><rect x="202" y="68" width="8" height="4" fill="var(--title-front)"/><rect x="222" y="68" width="4" height="4" fill="var(--title-front)"/><rect x="238" y="36" width="20" height="4" fill="var(--title-front)"/><rect x="234" y="40" width="8" height="4" fill="var(--title-front)"/><rect x="254" y="40" width="4" height="4" fill="var(--title-front)"/><rect x="234" y="44" width="8" height="4" fill="var(--title-front)"/><rect x="234" y="48" width="8" height="4" fill="var(--title-front)"/><rect x="234" y="52" width="8" height="4" fill="var(--title-front)"/><rect x="234" y="56" width="8" height="4" fill="var(--title-front)"/><rect x="234" y="60" width="8" height="4" fill="var(--title-front)"/><rect x="234" y="64" width="8" height="4" fill="var(--title-front)"/><rect x="254" y="64" width="4" height="4" fill="var(--title-front)"/><rect x="238" y="68" width="20" height="4" fill="var(--title-front)"/><rect x="266" y="36" width="8" height="4" fill="var(--title-front)"/><rect x="282" y="36" width="8" height="4" fill="var(--title-front)"/><rect x="266" y="40" width="8" height="4" fill="var(--title-front)"/><rect x="282" y="40" width="8" height="4" fill="var(--title-front)"/><rect x="266" y="44" width="8" height="4" fill="var(--title-front)"/><rect x="282" y="44" width="8" height="4" fill="var(--title-front)"/><rect x="266" y="48" width="24" height="4" fill="var(--title-front)"/><rect x="266" y="52" width="24" height="4" fill="var(--title-front)"/><rect x="266" y="56" width="8" height="4" fill="var(--title-front)"/><rect x="282" y="56" width="8" height="4" fill="var(--title-front)"/><rect x="266" y="60" width="8" height="4" fill="var(--title-front)"/><rect x="282" y="60" width="8" height="4" fill="var(--title-front)"/><rect x="266" y="64" width="8" height="4" fill="var(--title-front)"/><rect x="282" y="64" width="8" height="4" fill="var(--title-front)"/><rect x="266" y="68" width="8" height="4" fill="var(--title-front)"/><rect x="282" y="68" width="8" height="4" fill="var(--title-front)"/><rect x="42" y="81" width="20" height="4" fill="var(--title-front)"/><rect x="42" y="85" width="8" height="4" fill="var(--title-front)"/><rect x="58" y="85" width="8" height="4" fill="var(--title-front)"/><rect x="42" y="89" width="8" height="4" fill="var(--title-front)"/><rect x="58" y="89" width="8" height="4" fill="var(--title-front)"/><rect x="42" y="93" width="8" height="4" fill="var(--title-front)"/><rect x="58" y="93" width="8" height="4" fill="var(--title-front)"/><rect x="42" y="97" width="8" height="4" fill="var(--title-front)"/><rect x="58" y="97" width="8" height="4" fill="var(--title-front)"/><rect x="42" y="101" width="8" height="4" fill="var(--title-front)"/><rect x="58" y="101" width="8" height="4" fill="var(--title-front)"/><rect x="42" y="105" width="8" height="4" fill="var(--title-front)"/><rect x="58" y="105" width="8" height="4" fill="var(--title-front)"/><rect x="42" y="109" width="8" height="4" fill="var(--title-front)"/><rect x="58" y="109" width="8" height="4" fill="var(--title-front)"/><rect x="42" y="113" width="20" height="4" fill="var(--title-front)"/><rect x="78" y="81" width="16" height="4" fill="var(--title-front)"/><rect x="74" y="85" width="8" height="4" fill="var(--title-front)"/><rect x="90" y="85" width="8" height="4" fill="var(--title-front)"/><rect x="74" y="89" width="8" height="4" fill="var(--title-front)"/><rect x="90" y="89" width="8" height="4" fill="var(--title-front)"/><rect x="74" y="93" width="8" height="4" fill="var(--title-front)"/><rect x="90" y="93" width="8" height="4" fill="var(--title-front)"/><rect x="74" y="97" width="8" height="4" fill="var(--title-front)"/><rect x="90" y="97" width="8" height="4" fill="var(--title-front)"/><rect x="74" y="101" width="8" height="4" fill="var(--title-front)"/><rect x="90" y="101" width="8" height="4" fill="var(--title-front)"/><rect x="74" y="105" width="8" height="4" fill="var(--title-front)"/><rect x="90" y="105" width="8" height="4" fill="var(--title-front)"/><rect x="74" y="109" width="8" height="4" fill="var(--title-front)"/><rect x="90" y="109" width="8" height="4" fill="var(--title-front)"/><rect x="78" y="113" width="16" height="4" fill="var(--title-front)"/><rect x="110" y="81" width="20" height="4" fill="var(--title-front)"/><rect x="106" y="85" width="8" height="4" fill="var(--title-front)"/><rect x="126" y="85" width="4" height="4" fill="var(--title-front)"/><rect x="106" y="89" width="8" height="4" fill="var(--title-front)"/><rect x="110" y="93" width="16" height="4" fill="var(--title-front)"/><rect x="110" y="97" width="16" height="4" fill="var(--title-front)"/><rect x="122" y="101" width="8" height="4" fill="var(--title-front)"/><rect x="106" y="105" width="4" height="4" fill="var(--title-front)"/><rect x="122" y="105" width="8" height="4" fill="var(--title-front)"/><rect x="106" y="109" width="8" height="4" fill="var(--title-front)"/><rect x="122" y="109" width="8" height="4" fill="var(--title-front)"/><rect x="110" y="113" width="16" height="4" fill="var(--title-front)"/><rect x="142" y="81" width="20" height="4" fill="var(--title-front)"/><rect x="138" y="85" width="8" height="4" fill="var(--title-front)"/><rect x="158" y="85" width="4" height="4" fill="var(--title-front)"/><rect x="138" y="89" width="8" height="4" fill="var(--title-front)"/><rect x="142" y="93" width="16" height="4" fill="var(--title-front)"/><rect x="142" y="97" width="16" height="4" fill="var(--title-front)"/><rect x="154" y="101" width="8" height="4" fill="var(--title-front)"/><rect x="138" y="105" width="4" height="4" fill="var(--title-front)"/><rect x="154" y="105" width="8" height="4" fill="var(--title-front)"/><rect x="138" y="109" width="8" height="4" fill="var(--title-front)"/><rect x="154" y="109" width="8" height="4" fill="var(--title-front)"/><rect x="142" y="113" width="16" height="4" fill="var(--title-front)"/><rect x="170" y="81" width="24" height="4" fill="var(--title-front)"/><rect x="178" y="85" width="8" height="4" fill="var(--title-front)"/><rect x="178" y="89" width="8" height="4" fill="var(--title-front)"/><rect x="178" y="93" width="8" height="4" fill="var(--title-front)"/><rect x="178" y="97" width="8" height="4" fill="var(--title-front)"/><rect x="178" y="101" width="8" height="4" fill="var(--title-front)"/><rect x="178" y="105" width="8" height="4" fill="var(--title-front)"/><rect x="178" y="109" width="8" height="4" fill="var(--title-front)"/><rect x="170" y="113" width="24" height="4" fill="var(--title-front)"/><rect x="202" y="81" width="24" height="4" fill="var(--title-front)"/><rect x="202" y="85" width="8" height="4" fill="var(--title-front)"/><rect x="202" y="89" width="8" height="4" fill="var(--title-front)"/><rect x="202" y="93" width="20" height="4" fill="var(--title-front)"/><rect x="202" y="97" width="20" height="4" fill="var(--title-front)"/><rect x="202" y="101" width="8" height="4" fill="var(--title-front)"/><rect x="202" y="105" width="8" height="4" fill="var(--title-front)"/><rect x="202" y="109" width="8" height="4" fill="var(--title-front)"/><rect x="202" y="113" width="24" height="4" fill="var(--title-front)"/><rect x="234" y="81" width="20" height="4" fill="var(--title-front)"/><rect x="234" y="85" width="8" height="4" fill="var(--title-front)"/><rect x="250" y="85" width="8" height="4" fill="var(--title-front)"/><rect x="234" y="89" width="8" height="4" fill="var(--title-front)"/><rect x="250" y="89" width="8" height="4" fill="var(--title-front)"/><rect x="234" y="93" width="20" height="4" fill="var(--title-front)"/><rect x="234" y="97" width="20" height="4" fill="var(--title-front)"/><rect x="234" y="101" width="8" height="4" fill="var(--title-front)"/><rect x="246" y="101" width="8" height="4" fill="var(--title-front)"/><rect x="234" y="105" width="8" height="4" fill="var(--title-front)"/><rect x="250" y="105" width="8" height="4" fill="var(--title-front)"/><rect x="234" y="109" width="8" height="4" fill="var(--title-front)"/><rect x="250" y="109" width="8" height="4" fill="var(--title-front)"/><rect x="234" y="113" width="8" height="4" fill="var(--title-front)"/><rect x="254" y="113" width="4" height="4" fill="var(--title-front)"/>
</g>

  <!-- SUBTITLE CHIP -->
  <g transform="translate(42, 129)">
    <rect x="0" y="0" width="362" height="22" fill="var(--bg-panel)" stroke="var(--accent)" stroke-width="1"/>
    <text x="12" y="15" fill="var(--text-main)" font-size="11" font-weight="bold" class="font-mono">⚡ ARXIV &amp; PEER-REVIEWED SCIENTIFIC INSTRUM...</text>
  </g>

  <!-- SPECS TELEMETRY -->
  
  <text x="42" y="173" fill="var(--primary)" font-size="10" class="font-mono">// STANDARD: <tspan fill="var(--accent)">ISO 8601 COMPLIANT</tspan></text>

  <text x="42" y="191" fill="var(--primary)" font-size="10" class="font-mono">// FONT: <tspan fill="var(--accent)">SYSTEM SERIF / MONO</tspan></text>

  <text x="42" y="209" fill="var(--primary)" font-size="10" class="font-mono">// PRECISION: <tspan fill="var(--accent)">64-BIT IEEE-754</tspan></text>


  <!-- EQUALIZER BARS (RIGHT SIDE) -->
  <g transform="translate(730, 98)">
    <rect x="0" y="28" width="8" height="12" fill="var(--primary)" class="eq1"/>
    <rect x="14" y="12" width="8" height="28" fill="var(--accent)" class="eq2"/>
    <rect x="28" y="22" width="8" height="18" fill="var(--tertiary)" class="eq3"/>
    <rect x="42" y="6" width="8" height="34" fill="var(--warning)" class="eq4"/>
    <rect x="56" y="18" width="8" height="22" fill="var(--status)" class="eq5"/>
    <text x="32" y="52" fill="var(--primary)" font-size="9" font-weight="bold" text-anchor="middle" class="font-mono">LIVE_AUDIO</text>
  </g>
</svg>