<svg xmlns="http://www.w3.org/2000/svg" viewBox="0 0 850 190" width="100%" height="100%" shape-rendering="crispEdges">
  <defs>
    <style>
      
      :root {
        --bg-glass: rgba(10, 14, 23, 0.85);
        --bg-panel: rgba(15, 23, 38, 0.82);
        --border-chassis: rgba(30, 41, 59, 0.85);
        --primary: #00C8D7;
        --accent: #A855F7;
        --tertiary: #FF0055;
        --title-front: #00C8D7;
        --title-mid: #006B74;
        --title-dark: #002B2F;
        --text-main: #F8F8F2;
        --text-dim: #94A3B8;
        --status: #00D26A;
        --warning: #F59E0B;
        --grid-op: 0.08;
      }
      @media (prefers-color-scheme: dark) {
        :root {
          --bg-glass: rgba(10, 14, 23, 0.85);
          --bg-panel: rgba(15, 23, 38, 0.82);
          --border-chassis: rgba(30, 41, 59, 0.85);
          --primary: #00C8D7;
          --accent: #A855F7;
          --tertiary: #FF0055;
          --title-front: #00C8D7;
          --title-mid: #006B74;
          --title-dark: #002B2F;
          --text-main: #F8F8F2;
          --text-dim: #94A3B8;
          --status: #00D26A;
          --warning: #F59E0B;
          --grid-op: 0.08;
        }
      }
      @media (prefers-color-scheme: light) {
        :root {
          --bg-glass: #F6F8FA;
          --bg-panel: #EAEFF5;
          --border-chassis: #D0D7DE;
          --primary: #0969DA;
          --accent: #8250DF;
          --tertiary: #CF222E;
          --title-front: #0969DA;
          --title-mid: #0550AE;
          --title-dark: #033D8B;
          --text-main: #1F2328;
          --text-dim: #57606A;
          --status: #1A7F37;
          --warning: #9A6700;
          --grid-op: 0.10;
        }
      }
      @media (hover: hover) {
        .btn-hover:hover, a:hover polygon, a:hover rect {
          filter: drop-shadow(0 0 6px var(--primary, #00C8D7));
          cursor: pointer;
          transition: filter 0.2s ease;
        }
      }

      .font-mono { font-family: 'JetBrains Mono', 'Fira Code', 'Courier New', monospace; }
    </style>
  </defs>

  
  <!-- CYBERPUNK ASYMMETRICAL DECK -->
  <polygon points="20 1, 849 1, 849 170, 830 189, 1 189, 1 20"
           fill="var(--bg-glass)" stroke="var(--border-chassis)" stroke-width="1.8"/>
  <rect x="1" y="20" width="3" height="40" fill="var(--primary)"/>
  <rect x="846" y="130" width="3" height="40" fill="var(--accent)"/>
  <line x1="24" y1="182" x2="160" y2="182" stroke="var(--accent)" stroke-width="2" stroke-dasharray="8 4 2 4"/>
  <!-- Corner Beacons -->
  <rect x="20" y="1" width="12" height="3" fill="var(--primary)"/>
  <rect x="818" y="186" width="12" height="3" fill="var(--primary)"/>


  
  <!-- CYBERPUNK HEXAGONAL AVATAR & SCANNER -->
  <g transform="translate(28, 28)">
    <polygon points="16 0, 118 0, 134 16, 134 118, 118 134, 16 134, 0 118, 0 16"
             fill="var(--bg-panel)" stroke="var(--primary)" stroke-width="1.8"/>
    <!-- Cyber Scanner Lines -->
    <line x1="10" y1="40" x2="124" y2="40" stroke="var(--border-chassis)" stroke-width="0.8"/>
    <line x1="10" y1="70" x2="124" y2="70" stroke="var(--border-chassis)" stroke-width="0.8"/>
    <!-- Netrunner Silhouette -->
    <circle cx="67" cy="50" r="22" fill="var(--bg-glass)" stroke="var(--accent)" stroke-width="2"/>
    <polygon points="28 102, 42 78, 92 78, 106 102" fill="var(--bg-glass)" stroke="var(--accent)" stroke-width="2"/>
    <circle cx="67" cy="50" r="8" fill="var(--primary)"/>
    <!-- Neon Status LED Pill -->
    <polygon points="10 110, 124 110, 120 126, 6 126" fill="var(--bg-glass)" stroke="var(--status)" stroke-width="1.2"/>
    <text x="67" y="122" fill="var(--status)" font-size="8.5" font-weight="bold" text-anchor="middle" class="font-mono">NET // ONLINE</text>
  </g>


  <!-- TOP BREADCRUMB -->
  <rect x="180" y="24" width="198" height="24" fill="var(--bg-panel)" stroke="var(--border-chassis)" stroke-width="1"/>
  <text x="192" y="40" fill="var(--primary)" font-size="11" font-weight="bold" class="font-mono">■ CYBER_ID // TOKYO / NET</text>

  <!-- BADGE AND STATUS PILLS (TOP RIGHT) -->
  <g transform="translate(661, 24)">
    <rect x="0" y="0" width="71" height="24" fill="var(--bg-panel)" stroke="var(--accent)" stroke-width="1"/>
    <text x="35" y="16" fill="var(--accent)" font-size="10.5" font-weight="bold" text-anchor="middle" class="font-mono">CORE_DEV</text>
    <rect x="79" y="0" width="90" height="24" fill="var(--bg-panel)" stroke="var(--status)" stroke-width="1"/>
    <circle cx="91" y="12" r="3" fill="var(--status)"/>
    <text x="130" y="16" fill="var(--status)" font-size="10" font-weight="bold" text-anchor="middle" class="font-mono">ONLINE</text>
  </g>

  <!-- NAME TYPOGRAPHY -->
  <g class="pixel-text-3d">
  <!-- Shadow Dark -->
  <rect x="191" y="64" width="25" height="5" fill="var(--title-dark)"/><rect x="186" y="69" width="10" height="5" fill="var(--title-dark)"/><rect x="211" y="69" width="5" height="5" fill="var(--title-dark)"/><rect x="186" y="74" width="10" height="5" fill="var(--title-dark)"/><rect x="186" y="79" width="10" height="5" fill="var(--title-dark)"/><rect x="186" y="84" width="10" height="5" fill="var(--title-dark)"/><rect x="186" y="89" width="10" height="5" fill="var(--title-dark)"/><rect x="186" y="94" width="10" height="5" fill="var(--title-dark)"/><rect x="186" y="99" width="10" height="5" fill="var(--title-dark)"/><rect x="211" y="99" width="5" height="5" fill="var(--title-dark)"/><rect x="191" y="104" width="25" height="5" fill="var(--title-dark)"/><rect x="226" y="64" width="10" height="5" fill="var(--title-dark)"/><rect x="246" y="64" width="10" height="5" fill="var(--title-dark)"/><rect x="226" y="69" width="10" height="5" fill="var(--title-dark)"/><rect x="246" y="69" width="10" height="5" fill="var(--title-dark)"/><rect x="231" y="74" width="20" height="5" fill="var(--title-dark)"/><rect x="236" y="79" width="10" height="5" fill="var(--title-dark)"/><rect x="236" y="84" width="10" height="5" fill="var(--title-dark)"/><rect x="236" y="89" width="10" height="5" fill="var(--title-dark)"/><rect x="236" y="94" width="10" height="5" fill="var(--title-dark)"/><rect x="236" y="99" width="10" height="5" fill="var(--title-dark)"/><rect x="236" y="104" width="10" height="5" fill="var(--title-dark)"/><rect x="266" y="64" width="25" height="5" fill="var(--title-dark)"/><rect x="266" y="69" width="10" height="5" fill="var(--title-dark)"/><rect x="286" y="69" width="10" height="5" fill="var(--title-dark)"/><rect x="266" y="74" width="10" height="5" fill="var(--title-dark)"/><rect x="286" y="74" width="10" height="5" fill="var(--title-dark)"/><rect x="266" y="79" width="25" height="5" fill="var(--title-dark)"/><rect x="266" y="84" width="25" height="5" fill="var(--title-dark)"/><rect x="266" y="89" width="10" height="5" fill="var(--title-dark)"/><rect x="286" y="89" width="10" height="5" fill="var(--title-dark)"/><rect x="266" y="94" width="10" height="5" fill="var(--title-dark)"/><rect x="286" y="94" width="10" height="5" fill="var(--title-dark)"/><rect x="266" y="99" width="10" height="5" fill="var(--title-dark)"/><rect x="286" y="99" width="10" height="5" fill="var(--title-dark)"/><rect x="266" y="104" width="25" height="5" fill="var(--title-dark)"/><rect x="306" y="64" width="30" height="5" fill="var(--title-dark)"/><rect x="306" y="69" width="10" height="5" fill="var(--title-dark)"/><rect x="306" y="74" width="10" height="5" fill="var(--title-dark)"/><rect x="306" y="79" width="25" height="5" fill="var(--title-dark)"/><rect x="306" y="84" width="25" height="5" fill="var(--title-dark)"/><rect x="306" y="89" width="10" height="5" fill="var(--title-dark)"/><rect x="306" y="94" width="10" height="5" fill="var(--title-dark)"/><rect x="306" y="99" width="10" height="5" fill="var(--title-dark)"/><rect x="306" y="104" width="30" height="5" fill="var(--title-dark)"/><rect x="346" y="64" width="25" height="5" fill="var(--title-dark)"/><rect x="346" y="69" width="10" height="5" fill="var(--title-dark)"/><rect x="366" y="69" width="10" height="5" fill="var(--title-dark)"/><rect x="346" y="74" width="10" height="5" fill="var(--title-dark)"/><rect x="366" y="74" width="10" height="5" fill="var(--title-dark)"/><rect x="346" y="79" width="25" height="5" fill="var(--title-dark)"/><rect x="346" y="84" width="25" height="5" fill="var(--title-dark)"/><rect x="346" y="89" width="10" height="5" fill="var(--title-dark)"/><rect x="361" y="89" width="10" height="5" fill="var(--title-dark)"/><rect x="346" y="94" width="10" height="5" fill="var(--title-dark)"/><rect x="366" y="94" width="10" height="5" fill="var(--title-dark)"/><rect x="346" y="99" width="10" height="5" fill="var(--title-dark)"/><rect x="366" y="99" width="10" height="5" fill="var(--title-dark)"/><rect x="346" y="104" width="10" height="5" fill="var(--title-dark)"/><rect x="371" y="104" width="5" height="5" fill="var(--title-dark)"/><rect x="386" y="99" width="30" height="5" fill="var(--title-dark)"/><rect x="386" y="104" width="30" height="5" fill="var(--title-dark)"/><rect x="431" y="64" width="20" height="5" fill="var(--title-dark)"/><rect x="426" y="69" width="10" height="5" fill="var(--title-dark)"/><rect x="446" y="69" width="10" height="5" fill="var(--title-dark)"/><rect x="426" y="74" width="10" height="5" fill="var(--title-dark)"/><rect x="446" y="74" width="10" height="5" fill="var(--title-dark)"/><rect x="426" y="79" width="30" height="5" fill="var(--title-dark)"/><rect x="426" y="84" width="30" height="5" fill="var(--title-dark)"/><rect x="426" y="89" width="10" height="5" fill="var(--title-dark)"/><rect x="446" y="89" width="10" height="5" fill="var(--title-dark)"/><rect x="426" y="94" width="10" height="5" fill="var(--title-dark)"/><rect x="446" y="94" width="10" height="5" fill="var(--title-dark)"/><rect x="426" y="99" width="10" height="5" fill="var(--title-dark)"/><rect x="446" y="99" width="10" height="5" fill="var(--title-dark)"/><rect x="426" y="104" width="10" height="5" fill="var(--title-dark)"/><rect x="446" y="104" width="10" height="5" fill="var(--title-dark)"/><rect x="466" y="64" width="25" height="5" fill="var(--title-dark)"/><rect x="466" y="69" width="10" height="5" fill="var(--title-dark)"/><rect x="486" y="69" width="10" height="5" fill="var(--title-dark)"/><rect x="466" y="74" width="10" height="5" fill="var(--title-dark)"/><rect x="486" y="74" width="10" height="5" fill="var(--title-dark)"/><rect x="466" y="79" width="25" height="5" fill="var(--title-dark)"/><rect x="466" y="84" width="25" height="5" fill="var(--title-dark)"/><rect x="466" y="89" width="10" height="5" fill="var(--title-dark)"/><rect x="481" y="89" width="10" height="5" fill="var(--title-dark)"/><rect x="466" y="94" width="10" height="5" fill="var(--title-dark)"/><rect x="486" y="94" width="10" height="5" fill="var(--title-dark)"/><rect x="466" y="99" width="10" height="5" fill="var(--title-dark)"/><rect x="486" y="99" width="10" height="5" fill="var(--title-dark)"/><rect x="466" y="104" width="10" height="5" fill="var(--title-dark)"/><rect x="491" y="104" width="5" height="5" fill="var(--title-dark)"/><rect x="511" y="64" width="25" height="5" fill="var(--title-dark)"/><rect x="506" y="69" width="10" height="5" fill="var(--title-dark)"/><rect x="531" y="69" width="5" height="5" fill="var(--title-dark)"/><rect x="506" y="74" width="10" height="5" fill="var(--title-dark)"/><rect x="506" y="79" width="10" height="5" fill="var(--title-dark)"/><rect x="506" y="84" width="10" height="5" fill="var(--title-dark)"/><rect x="506" y="89" width="10" height="5" fill="var(--title-dark)"/><rect x="506" y="94" width="10" height="5" fill="var(--title-dark)"/><rect x="506" y="99" width="10" height="5" fill="var(--title-dark)"/><rect x="531" y="99" width="5" height="5" fill="var(--title-dark)"/><rect x="511" y="104" width="25" height="5" fill="var(--title-dark)"/><rect x="546" y="64" width="10" height="5" fill="var(--title-dark)"/><rect x="566" y="64" width="10" height="5" fill="var(--title-dark)"/><rect x="546" y="69" width="10" height="5" fill="var(--title-dark)"/><rect x="566" y="69" width="10" height="5" fill="var(--title-dark)"/><rect x="546" y="74" width="10" height="5" fill="var(--title-dark)"/><rect x="566" y="74" width="10" height="5" fill="var(--title-dark)"/><rect x="546" y="79" width="30" height="5" fill="var(--title-dark)"/><rect x="546" y="84" width="30" height="5" fill="var(--title-dark)"/><rect x="546" y="89" width="10" height="5" fill="var(--title-dark)"/><rect x="566" y="89" width="10" height="5" fill="var(--title-dark)"/><rect x="546" y="94" width="10" height="5" fill="var(--title-dark)"/><rect x="566" y="94" width="10" height="5" fill="var(--title-dark)"/><rect x="546" y="99" width="10" height="5" fill="var(--title-dark)"/><rect x="566" y="99" width="10" height="5" fill="var(--title-dark)"/><rect x="546" y="104" width="10" height="5" fill="var(--title-dark)"/><rect x="566" y="104" width="10" height="5" fill="var(--title-dark)"/><rect x="586" y="64" width="30" height="5" fill="var(--title-dark)"/><rect x="596" y="69" width="10" height="5" fill="var(--title-dark)"/><rect x="596" y="74" width="10" height="5" fill="var(--title-dark)"/><rect x="596" y="79" width="10" height="5" fill="var(--title-dark)"/><rect x="596" y="84" width="10" height="5" fill="var(--title-dark)"/><rect x="596" y="89" width="10" height="5" fill="var(--title-dark)"/><rect x="596" y="94" width="10" height="5" fill="var(--title-dark)"/><rect x="596" y="99" width="10" height="5" fill="var(--title-dark)"/><rect x="586" y="104" width="30" height="5" fill="var(--title-dark)"/><rect x="626" y="64" width="35" height="5" fill="var(--title-dark)"/><rect x="626" y="69" width="35" height="5" fill="var(--title-dark)"/><rect x="641" y="74" width="10" height="5" fill="var(--title-dark)"/><rect x="641" y="79" width="10" height="5" fill="var(--title-dark)"/><rect x="641" y="84" width="10" height="5" fill="var(--title-dark)"/><rect x="641" y="89" width="10" height="5" fill="var(--title-dark)"/><rect x="641" y="94" width="10" height="5" fill="var(--title-dark)"/><rect x="641" y="99" width="10" height="5" fill="var(--title-dark)"/><rect x="641" y="104" width="10" height="5" fill="var(--title-dark)"/><rect x="671" y="64" width="30" height="5" fill="var(--title-dark)"/><rect x="671" y="69" width="10" height="5" fill="var(--title-dark)"/><rect x="671" y="74" width="10" height="5" fill="var(--title-dark)"/><rect x="671" y="79" width="25" height="5" fill="var(--title-dark)"/><rect x="671" y="84" width="25" height="5" fill="var(--title-dark)"/><rect x="671" y="89" width="10" height="5" fill="var(--title-dark)"/><rect x="671" y="94" width="10" height="5" fill="var(--title-dark)"/><rect x="671" y="99" width="10" height="5" fill="var(--title-dark)"/><rect x="671" y="104" width="30" height="5" fill="var(--title-dark)"/><rect x="716" y="64" width="25" height="5" fill="var(--title-dark)"/><rect x="711" y="69" width="10" height="5" fill="var(--title-dark)"/><rect x="736" y="69" width="5" height="5" fill="var(--title-dark)"/><rect x="711" y="74" width="10" height="5" fill="var(--title-dark)"/><rect x="711" y="79" width="10" height="5" fill="var(--title-dark)"/><rect x="711" y="84" width="10" height="5" fill="var(--title-dark)"/><rect x="711" y="89" width="10" height="5" fill="var(--title-dark)"/><rect x="711" y="94" width="10" height="5" fill="var(--title-dark)"/><rect x="711" y="99" width="10" height="5" fill="var(--title-dark)"/><rect x="736" y="99" width="5" height="5" fill="var(--title-dark)"/><rect x="716" y="104" width="25" height="5" fill="var(--title-dark)"/><rect x="751" y="64" width="35" height="5" fill="var(--title-dark)"/><rect x="751" y="69" width="35" height="5" fill="var(--title-dark)"/><rect x="766" y="74" width="10" height="5" fill="var(--title-dark)"/><rect x="766" y="79" width="10" height="5" fill="var(--title-dark)"/><rect x="766" y="84" width="10" height="5" fill="var(--title-dark)"/><rect x="766" y="89" width="10" height="5" fill="var(--title-dark)"/><rect x="766" y="94" width="10" height="5" fill="var(--title-dark)"/><rect x="766" y="99" width="10" height="5" fill="var(--title-dark)"/><rect x="766" y="104" width="10" height="5" fill="var(--title-dark)"/>
  <!-- Shadow Mid -->
  <rect x="188" y="61" width="25" height="5" fill="var(--title-mid)"/><rect x="183" y="66" width="10" height="5" fill="var(--title-mid)"/><rect x="208" y="66" width="5" height="5" fill="var(--title-mid)"/><rect x="183" y="71" width="10" height="5" fill="var(--title-mid)"/><rect x="183" y="76" width="10" height="5" fill="var(--title-mid)"/><rect x="183" y="81" width="10" height="5" fill="var(--title-mid)"/><rect x="183" y="86" width="10" height="5" fill="var(--title-mid)"/><rect x="183" y="91" width="10" height="5" fill="var(--title-mid)"/><rect x="183" y="96" width="10" height="5" fill="var(--title-mid)"/><rect x="208" y="96" width="5" height="5" fill="var(--title-mid)"/><rect x="188" y="101" width="25" height="5" fill="var(--title-mid)"/><rect x="223" y="61" width="10" height="5" fill="var(--title-mid)"/><rect x="243" y="61" width="10" height="5" fill="var(--title-mid)"/><rect x="223" y="66" width="10" height="5" fill="var(--title-mid)"/><rect x="243" y="66" width="10" height="5" fill="var(--title-mid)"/><rect x="228" y="71" width="20" height="5" fill="var(--title-mid)"/><rect x="233" y="76" width="10" height="5" fill="var(--title-mid)"/><rect x="233" y="81" width="10" height="5" fill="var(--title-mid)"/><rect x="233" y="86" width="10" height="5" fill="var(--title-mid)"/><rect x="233" y="91" width="10" height="5" fill="var(--title-mid)"/><rect x="233" y="96" width="10" height="5" fill="var(--title-mid)"/><rect x="233" y="101" width="10" height="5" fill="var(--title-mid)"/><rect x="263" y="61" width="25" height="5" fill="var(--title-mid)"/><rect x="263" y="66" width="10" height="5" fill="var(--title-mid)"/><rect x="283" y="66" width="10" height="5" fill="var(--title-mid)"/><rect x="263" y="71" width="10" height="5" fill="var(--title-mid)"/><rect x="283" y="71" width="10" height="5" fill="var(--title-mid)"/><rect x="263" y="76" width="25" height="5" fill="var(--title-mid)"/><rect x="263" y="81" width="25" height="5" fill="var(--title-mid)"/><rect x="263" y="86" width="10" height="5" fill="var(--title-mid)"/><rect x="283" y="86" width="10" height="5" fill="var(--title-mid)"/><rect x="263" y="91" width="10" height="5" fill="var(--title-mid)"/><rect x="283" y="91" width="10" height="5" fill="var(--title-mid)"/><rect x="263" y="96" width="10" height="5" fill="var(--title-mid)"/><rect x="283" y="96" width="10" height="5" fill="var(--title-mid)"/><rect x="263" y="101" width="25" height="5" fill="var(--title-mid)"/><rect x="303" y="61" width="30" height="5" fill="var(--title-mid)"/><rect x="303" y="66" width="10" height="5" fill="var(--title-mid)"/><rect x="303" y="71" width="10" height="5" fill="var(--title-mid)"/><rect x="303" y="76" width="25" height="5" fill="var(--title-mid)"/><rect x="303" y="81" width="25" height="5" fill="var(--title-mid)"/><rect x="303" y="86" width="10" height="5" fill="var(--title-mid)"/><rect x="303" y="91" width="10" height="5" fill="var(--title-mid)"/><rect x="303" y="96" width="10" height="5" fill="var(--title-mid)"/><rect x="303" y="101" width="30" height="5" fill="var(--title-mid)"/><rect x="343" y="61" width="25" height="5" fill="var(--title-mid)"/><rect x="343" y="66" width="10" height="5" fill="var(--title-mid)"/><rect x="363" y="66" width="10" height="5" fill="var(--title-mid)"/><rect x="343" y="71" width="10" height="5" fill="var(--title-mid)"/><rect x="363" y="71" width="10" height="5" fill="var(--title-mid)"/><rect x="343" y="76" width="25" height="5" fill="var(--title-mid)"/><rect x="343" y="81" width="25" height="5" fill="var(--title-mid)"/><rect x="343" y="86" width="10" height="5" fill="var(--title-mid)"/><rect x="358" y="86" width="10" height="5" fill="var(--title-mid)"/><rect x="343" y="91" width="10" height="5" fill="var(--title-mid)"/><rect x="363" y="91" width="10" height="5" fill="var(--title-mid)"/><rect x="343" y="96" width="10" height="5" fill="var(--title-mid)"/><rect x="363" y="96" width="10" height="5" fill="var(--title-mid)"/><rect x="343" y="101" width="10" height="5" fill="var(--title-mid)"/><rect x="368" y="101" width="5" height="5" fill="var(--title-mid)"/><rect x="383" y="96" width="30" height="5" fill="var(--title-mid)"/><rect x="383" y="101" width="30" height="5" fill="var(--title-mid)"/><rect x="428" y="61" width="20" height="5" fill="var(--title-mid)"/><rect x="423" y="66" width="10" height="5" fill="var(--title-mid)"/><rect x="443" y="66" width="10" height="5" fill="var(--title-mid)"/><rect x="423" y="71" width="10" height="5" fill="var(--title-mid)"/><rect x="443" y="71" width="10" height="5" fill="var(--title-mid)"/><rect x="423" y="76" width="30" height="5" fill="var(--title-mid)"/><rect x="423" y="81" width="30" height="5" fill="var(--title-mid)"/><rect x="423" y="86" width="10" height="5" fill="var(--title-mid)"/><rect x="443" y="86" width="10" height="5" fill="var(--title-mid)"/><rect x="423" y="91" width="10" height="5" fill="var(--title-mid)"/><rect x="443" y="91" width="10" height="5" fill="var(--title-mid)"/><rect x="423" y="96" width="10" height="5" fill="var(--title-mid)"/><rect x="443" y="96" width="10" height="5" fill="var(--title-mid)"/><rect x="423" y="101" width="10" height="5" fill="var(--title-mid)"/><rect x="443" y="101" width="10" height="5" fill="var(--title-mid)"/><rect x="463" y="61" width="25" height="5" fill="var(--title-mid)"/><rect x="463" y="66" width="10" height="5" fill="var(--title-mid)"/><rect x="483" y="66" width="10" height="5" fill="var(--title-mid)"/><rect x="463" y="71" width="10" height="5" fill="var(--title-mid)"/><rect x="483" y="71" width="10" height="5" fill="var(--title-mid)"/><rect x="463" y="76" width="25" height="5" fill="var(--title-mid)"/><rect x="463" y="81" width="25" height="5" fill="var(--title-mid)"/><rect x="463" y="86" width="10" height="5" fill="var(--title-mid)"/><rect x="478" y="86" width="10" height="5" fill="var(--title-mid)"/><rect x="463" y="91" width="10" height="5" fill="var(--title-mid)"/><rect x="483" y="91" width="10" height="5" fill="var(--title-mid)"/><rect x="463" y="96" width="10" height="5" fill="var(--title-mid)"/><rect x="483" y="96" width="10" height="5" fill="var(--title-mid)"/><rect x="463" y="101" width="10" height="5" fill="var(--title-mid)"/><rect x="488" y="101" width="5" height="5" fill="var(--title-mid)"/><rect x="508" y="61" width="25" height="5" fill="var(--title-mid)"/><rect x="503" y="66" width="10" height="5" fill="var(--title-mid)"/><rect x="528" y="66" width="5" height="5" fill="var(--title-mid)"/><rect x="503" y="71" width="10" height="5" fill="var(--title-mid)"/><rect x="503" y="76" width="10" height="5" fill="var(--title-mid)"/><rect x="503" y="81" width="10" height="5" fill="var(--title-mid)"/><rect x="503" y="86" width="10" height="5" fill="var(--title-mid)"/><rect x="503" y="91" width="10" height="5" fill="var(--title-mid)"/><rect x="503" y="96" width="10" height="5" fill="var(--title-mid)"/><rect x="528" y="96" width="5" height="5" fill="var(--title-mid)"/><rect x="508" y="101" width="25" height="5" fill="var(--title-mid)"/><rect x="543" y="61" width="10" height="5" fill="var(--title-mid)"/><rect x="563" y="61" width="10" height="5" fill="var(--title-mid)"/><rect x="543" y="66" width="10" height="5" fill="var(--title-mid)"/><rect x="563" y="66" width="10" height="5" fill="var(--title-mid)"/><rect x="543" y="71" width="10" height="5" fill="var(--title-mid)"/><rect x="563" y="71" width="10" height="5" fill="var(--title-mid)"/><rect x="543" y="76" width="30" height="5" fill="var(--title-mid)"/><rect x="543" y="81" width="30" height="5" fill="var(--title-mid)"/><rect x="543" y="86" width="10" height="5" fill="var(--title-mid)"/><rect x="563" y="86" width="10" height="5" fill="var(--title-mid)"/><rect x="543" y="91" width="10" height="5" fill="var(--title-mid)"/><rect x="563" y="91" width="10" height="5" fill="var(--title-mid)"/><rect x="543" y="96" width="10" height="5" fill="var(--title-mid)"/><rect x="563" y="96" width="10" height="5" fill="var(--title-mid)"/><rect x="543" y="101" width="10" height="5" fill="var(--title-mid)"/><rect x="563" y="101" width="10" height="5" fill="var(--title-mid)"/><rect x="583" y="61" width="30" height="5" fill="var(--title-mid)"/><rect x="593" y="66" width="10" height="5" fill="var(--title-mid)"/><rect x="593" y="71" width="10" height="5" fill="var(--title-mid)"/><rect x="593" y="76" width="10" height="5" fill="var(--title-mid)"/><rect x="593" y="81" width="10" height="5" fill="var(--title-mid)"/><rect x="593" y="86" width="10" height="5" fill="var(--title-mid)"/><rect x="593" y="91" width="10" height="5" fill="var(--title-mid)"/><rect x="593" y="96" width="10" height="5" fill="var(--title-mid)"/><rect x="583" y="101" width="30" height="5" fill="var(--title-mid)"/><rect x="623" y="61" width="35" height="5" fill="var(--title-mid)"/><rect x="623" y="66" width="35" height="5" fill="var(--title-mid)"/><rect x="638" y="71" width="10" height="5" fill="var(--title-mid)"/><rect x="638" y="76" width="10" height="5" fill="var(--title-mid)"/><rect x="638" y="81" width="10" height="5" fill="var(--title-mid)"/><rect x="638" y="86" width="10" height="5" fill="var(--title-mid)"/><rect x="638" y="91" width="10" height="5" fill="var(--title-mid)"/><rect x="638" y="96" width="10" height="5" fill="var(--title-mid)"/><rect x="638" y="101" width="10" height="5" fill="var(--title-mid)"/><rect x="668" y="61" width="30" height="5" fill="var(--title-mid)"/><rect x="668" y="66" width="10" height="5" fill="var(--title-mid)"/><rect x="668" y="71" width="10" height="5" fill="var(--title-mid)"/><rect x="668" y="76" width="25" height="5" fill="var(--title-mid)"/><rect x="668" y="81" width="25" height="5" fill="var(--title-mid)"/><rect x="668" y="86" width="10" height="5" fill="var(--title-mid)"/><rect x="668" y="91" width="10" height="5" fill="var(--title-mid)"/><rect x="668" y="96" width="10" height="5" fill="var(--title-mid)"/><rect x="668" y="101" width="30" height="5" fill="var(--title-mid)"/><rect x="713" y="61" width="25" height="5" fill="var(--title-mid)"/><rect x="708" y="66" width="10" height="5" fill="var(--title-mid)"/><rect x="733" y="66" width="5" height="5" fill="var(--title-mid)"/><rect x="708" y="71" width="10" height="5" fill="var(--title-mid)"/><rect x="708" y="76" width="10" height="5" fill="var(--title-mid)"/><rect x="708" y="81" width="10" height="5" fill="var(--title-mid)"/><rect x="708" y="86" width="10" height="5" fill="var(--title-mid)"/><rect x="708" y="91" width="10" height="5" fill="var(--title-mid)"/><rect x="708" y="96" width="10" height="5" fill="var(--title-mid)"/><rect x="733" y="96" width="5" height="5" fill="var(--title-mid)"/><rect x="713" y="101" width="25" height="5" fill="var(--title-mid)"/><rect x="748" y="61" width="35" height="5" fill="var(--title-mid)"/><rect x="748" y="66" width="35" height="5" fill="var(--title-mid)"/><rect x="763" y="71" width="10" height="5" fill="var(--title-mid)"/><rect x="763" y="76" width="10" height="5" fill="var(--title-mid)"/><rect x="763" y="81" width="10" height="5" fill="var(--title-mid)"/><rect x="763" y="86" width="10" height="5" fill="var(--title-mid)"/><rect x="763" y="91" width="10" height="5" fill="var(--title-mid)"/><rect x="763" y="96" width="10" height="5" fill="var(--title-mid)"/><rect x="763" y="101" width="10" height="5" fill="var(--title-mid)"/>
  <!-- Front Face -->
  <rect x="185" y="58" width="25" height="5" fill="var(--title-front)"/><rect x="180" y="63" width="10" height="5" fill="var(--title-front)"/><rect x="205" y="63" width="5" height="5" fill="var(--title-front)"/><rect x="180" y="68" width="10" height="5" fill="var(--title-front)"/><rect x="180" y="73" width="10" height="5" fill="var(--title-front)"/><rect x="180" y="78" width="10" height="5" fill="var(--title-front)"/><rect x="180" y="83" width="10" height="5" fill="var(--title-front)"/><rect x="180" y="88" width="10" height="5" fill="var(--title-front)"/><rect x="180" y="93" width="10" height="5" fill="var(--title-front)"/><rect x="205" y="93" width="5" height="5" fill="var(--title-front)"/><rect x="185" y="98" width="25" height="5" fill="var(--title-front)"/><rect x="220" y="58" width="10" height="5" fill="var(--title-front)"/><rect x="240" y="58" width="10" height="5" fill="var(--title-front)"/><rect x="220" y="63" width="10" height="5" fill="var(--title-front)"/><rect x="240" y="63" width="10" height="5" fill="var(--title-front)"/><rect x="225" y="68" width="20" height="5" fill="var(--title-front)"/><rect x="230" y="73" width="10" height="5" fill="var(--title-front)"/><rect x="230" y="78" width="10" height="5" fill="var(--title-front)"/><rect x="230" y="83" width="10" height="5" fill="var(--title-front)"/><rect x="230" y="88" width="10" height="5" fill="var(--title-front)"/><rect x="230" y="93" width="10" height="5" fill="var(--title-front)"/><rect x="230" y="98" width="10" height="5" fill="var(--title-front)"/><rect x="260" y="58" width="25" height="5" fill="var(--title-front)"/><rect x="260" y="63" width="10" height="5" fill="var(--title-front)"/><rect x="280" y="63" width="10" height="5" fill="var(--title-front)"/><rect x="260" y="68" width="10" height="5" fill="var(--title-front)"/><rect x="280" y="68" width="10" height="5" fill="var(--title-front)"/><rect x="260" y="73" width="25" height="5" fill="var(--title-front)"/><rect x="260" y="78" width="25" height="5" fill="var(--title-front)"/><rect x="260" y="83" width="10" height="5" fill="var(--title-front)"/><rect x="280" y="83" width="10" height="5" fill="var(--title-front)"/><rect x="260" y="88" width="10" height="5" fill="var(--title-front)"/><rect x="280" y="88" width="10" height="5" fill="var(--title-front)"/><rect x="260" y="93" width="10" height="5" fill="var(--title-front)"/><rect x="280" y="93" width="10" height="5" fill="var(--title-front)"/><rect x="260" y="98" width="25" height="5" fill="var(--title-front)"/><rect x="300" y="58" width="30" height="5" fill="var(--title-front)"/><rect x="300" y="63" width="10" height="5" fill="var(--title-front)"/><rect x="300" y="68" width="10" height="5" fill="var(--title-front)"/><rect x="300" y="73" width="25" height="5" fill="var(--title-front)"/><rect x="300" y="78" width="25" height="5" fill="var(--title-front)"/><rect x="300" y="83" width="10" height="5" fill="var(--title-front)"/><rect x="300" y="88" width="10" height="5" fill="var(--title-front)"/><rect x="300" y="93" width="10" height="5" fill="var(--title-front)"/><rect x="300" y="98" width="30" height="5" fill="var(--title-front)"/><rect x="340" y="58" width="25" height="5" fill="var(--title-front)"/><rect x="340" y="63" width="10" height="5" fill="var(--title-front)"/><rect x="360" y="63" width="10" height="5" fill="var(--title-front)"/><rect x="340" y="68" width="10" height="5" fill="var(--title-front)"/><rect x="360" y="68" width="10" height="5" fill="var(--title-front)"/><rect x="340" y="73" width="25" height="5" fill="var(--title-front)"/><rect x="340" y="78" width="25" height="5" fill="var(--title-front)"/><rect x="340" y="83" width="10" height="5" fill="var(--title-front)"/><rect x="355" y="83" width="10" height="5" fill="var(--title-front)"/><rect x="340" y="88" width="10" height="5" fill="var(--title-front)"/><rect x="360" y="88" width="10" height="5" fill="var(--title-front)"/><rect x="340" y="93" width="10" height="5" fill="var(--title-front)"/><rect x="360" y="93" width="10" height="5" fill="var(--title-front)"/><rect x="340" y="98" width="10" height="5" fill="var(--title-front)"/><rect x="365" y="98" width="5" height="5" fill="var(--title-front)"/><rect x="380" y="93" width="30" height="5" fill="var(--title-front)"/><rect x="380" y="98" width="30" height="5" fill="var(--title-front)"/><rect x="425" y="58" width="20" height="5" fill="var(--title-front)"/><rect x="420" y="63" width="10" height="5" fill="var(--title-front)"/><rect x="440" y="63" width="10" height="5" fill="var(--title-front)"/><rect x="420" y="68" width="10" height="5" fill="var(--title-front)"/><rect x="440" y="68" width="10" height="5" fill="var(--title-front)"/><rect x="420" y="73" width="30" height="5" fill="var(--title-front)"/><rect x="420" y="78" width="30" height="5" fill="var(--title-front)"/><rect x="420" y="83" width="10" height="5" fill="var(--title-front)"/><rect x="440" y="83" width="10" height="5" fill="var(--title-front)"/><rect x="420" y="88" width="10" height="5" fill="var(--title-front)"/><rect x="440" y="88" width="10" height="5" fill="var(--title-front)"/><rect x="420" y="93" width="10" height="5" fill="var(--title-front)"/><rect x="440" y="93" width="10" height="5" fill="var(--title-front)"/><rect x="420" y="98" width="10" height="5" fill="var(--title-front)"/><rect x="440" y="98" width="10" height="5" fill="var(--title-front)"/><rect x="460" y="58" width="25" height="5" fill="var(--title-front)"/><rect x="460" y="63" width="10" height="5" fill="var(--title-front)"/><rect x="480" y="63" width="10" height="5" fill="var(--title-front)"/><rect x="460" y="68" width="10" height="5" fill="var(--title-front)"/><rect x="480" y="68" width="10" height="5" fill="var(--title-front)"/><rect x="460" y="73" width="25" height="5" fill="var(--title-front)"/><rect x="460" y="78" width="25" height="5" fill="var(--title-front)"/><rect x="460" y="83" width="10" height="5" fill="var(--title-front)"/><rect x="475" y="83" width="10" height="5" fill="var(--title-front)"/><rect x="460" y="88" width="10" height="5" fill="var(--title-front)"/><rect x="480" y="88" width="10" height="5" fill="var(--title-front)"/><rect x="460" y="93" width="10" height="5" fill="var(--title-front)"/><rect x="480" y="93" width="10" height="5" fill="var(--title-front)"/><rect x="460" y="98" width="10" height="5" fill="var(--title-front)"/><rect x="485" y="98" width="5" height="5" fill="var(--title-front)"/><rect x="505" y="58" width="25" height="5" fill="var(--title-front)"/><rect x="500" y="63" width="10" height="5" fill="var(--title-front)"/><rect x="525" y="63" width="5" height="5" fill="var(--title-front)"/><rect x="500" y="68" width="10" height="5" fill="var(--title-front)"/><rect x="500" y="73" width="10" height="5" fill="var(--title-front)"/><rect x="500" y="78" width="10" height="5" fill="var(--title-front)"/><rect x="500" y="83" width="10" height="5" fill="var(--title-front)"/><rect x="500" y="88" width="10" height="5" fill="var(--title-front)"/><rect x="500" y="93" width="10" height="5" fill="var(--title-front)"/><rect x="525" y="93" width="5" height="5" fill="var(--title-front)"/><rect x="505" y="98" width="25" height="5" fill="var(--title-front)"/><rect x="540" y="58" width="10" height="5" fill="var(--title-front)"/><rect x="560" y="58" width="10" height="5" fill="var(--title-front)"/><rect x="540" y="63" width="10" height="5" fill="var(--title-front)"/><rect x="560" y="63" width="10" height="5" fill="var(--title-front)"/><rect x="540" y="68" width="10" height="5" fill="var(--title-front)"/><rect x="560" y="68" width="10" height="5" fill="var(--title-front)"/><rect x="540" y="73" width="30" height="5" fill="var(--title-front)"/><rect x="540" y="78" width="30" height="5" fill="var(--title-front)"/><rect x="540" y="83" width="10" height="5" fill="var(--title-front)"/><rect x="560" y="83" width="10" height="5" fill="var(--title-front)"/><rect x="540" y="88" width="10" height="5" fill="var(--title-front)"/><rect x="560" y="88" width="10" height="5" fill="var(--title-front)"/><rect x="540" y="93" width="10" height="5" fill="var(--title-front)"/><rect x="560" y="93" width="10" height="5" fill="var(--title-front)"/><rect x="540" y="98" width="10" height="5" fill="var(--title-front)"/><rect x="560" y="98" width="10" height="5" fill="var(--title-front)"/><rect x="580" y="58" width="30" height="5" fill="var(--title-front)"/><rect x="590" y="63" width="10" height="5" fill="var(--title-front)"/><rect x="590" y="68" width="10" height="5" fill="var(--title-front)"/><rect x="590" y="73" width="10" height="5" fill="var(--title-front)"/><rect x="590" y="78" width="10" height="5" fill="var(--title-front)"/><rect x="590" y="83" width="10" height="5" fill="var(--title-front)"/><rect x="590" y="88" width="10" height="5" fill="var(--title-front)"/><rect x="590" y="93" width="10" height="5" fill="var(--title-front)"/><rect x="580" y="98" width="30" height="5" fill="var(--title-front)"/><rect x="620" y="58" width="35" height="5" fill="var(--title-front)"/><rect x="620" y="63" width="35" height="5" fill="var(--title-front)"/><rect x="635" y="68" width="10" height="5" fill="var(--title-front)"/><rect x="635" y="73" width="10" height="5" fill="var(--title-front)"/><rect x="635" y="78" width="10" height="5" fill="var(--title-front)"/><rect x="635" y="83" width="10" height="5" fill="var(--title-front)"/><rect x="635" y="88" width="10" height="5" fill="var(--title-front)"/><rect x="635" y="93" width="10" height="5" fill="var(--title-front)"/><rect x="635" y="98" width="10" height="5" fill="var(--title-front)"/><rect x="665" y="58" width="30" height="5" fill="var(--title-front)"/><rect x="665" y="63" width="10" height="5" fill="var(--title-front)"/><rect x="665" y="68" width="10" height="5" fill="var(--title-front)"/><rect x="665" y="73" width="25" height="5" fill="var(--title-front)"/><rect x="665" y="78" width="25" height="5" fill="var(--title-front)"/><rect x="665" y="83" width="10" height="5" fill="var(--title-front)"/><rect x="665" y="88" width="10" height="5" fill="var(--title-front)"/><rect x="665" y="93" width="10" height="5" fill="var(--title-front)"/><rect x="665" y="98" width="30" height="5" fill="var(--title-front)"/><rect x="710" y="58" width="25" height="5" fill="var(--title-front)"/><rect x="705" y="63" width="10" height="5" fill="var(--title-front)"/><rect x="730" y="63" width="5" height="5" fill="var(--title-front)"/><rect x="705" y="68" width="10" height="5" fill="var(--title-front)"/><rect x="705" y="73" width="10" height="5" fill="var(--title-front)"/><rect x="705" y="78" width="10" height="5" fill="var(--title-front)"/><rect x="705" y="83" width="10" height="5" fill="var(--title-front)"/><rect x="705" y="88" width="10" height="5" fill="var(--title-front)"/><rect x="705" y="93" width="10" height="5" fill="var(--title-front)"/><rect x="730" y="93" width="5" height="5" fill="var(--title-front)"/><rect x="710" y="98" width="25" height="5" fill="var(--title-front)"/><rect x="745" y="58" width="35" height="5" fill="var(--title-front)"/><rect x="745" y="63" width="35" height="5" fill="var(--title-front)"/><rect x="760" y="68" width="10" height="5" fill="var(--title-front)"/><rect x="760" y="73" width="10" height="5" fill="var(--title-front)"/><rect x="760" y="78" width="10" height="5" fill="var(--title-front)"/><rect x="760" y="83" width="10" height="5" fill="var(--title-front)"/><rect x="760" y="88" width="10" height="5" fill="var(--title-front)"/><rect x="760" y="93" width="10" height="5" fill="var(--title-front)"/><rect x="760" y="98" width="10" height="5" fill="var(--title-front)"/>
</g>

  <!-- ROLE PILL -->
  
  <g transform="translate(180, 116)">
    <rect x="0" y="0" width="174" height="26" fill="var(--bg-panel)" stroke="var(--primary)" stroke-width="1.2"/>
    <rect x="0" y="0" width="4" height="26" fill="var(--primary)"/>
    <text x="14" y="17" fill="var(--accent)" font-size="12" font-weight="bold" class="font-mono">▶ SYSTEM SPECIALIST</text>
  </g>


  <!-- BIO SUMMARY -->
  <text x="182" y="166" fill="var(--text-main)" font-size="12" font-weight="normal" class="font-mono">Building modular pixel and vector HUD experiences for GitHub readmes</text>
</svg>